<svg xmlns="http://www.w3.org/2000/svg" viewBox="0 0 4466.52 620.9"><defs><style>.cls-1,.cls-2,.cls-3{fill:none;stroke-miterlimit:10;stroke-width:19px;}.cls-1{stroke:#007737;}.cls-2{stroke:#d1d84c;}.cls-3{stroke:#003a33;}</style></defs><g id="Camada_2" data-name="Camada 2"><g id="Camada_1-2" data-name="Camada 1"><path class="cls-1" d="M4327.93,2206.46h0a43.28,43.28,0,0,1,43.28-43.27h1.51" transform="translate(-4318.43 -2137.7)"/><path class="cls-2" d="M4384.15,2163.19h0a43.27,43.27,0,0,1,43.27,43.27V2208" transform="translate(-4318.43 -2137.7)"/><path class="cls-2" d="M4392.19,2282.05h0a43.28,43.28,0,0,1,43.27-43.28H4437" transform="translate(-4318.43 -2137.7)"/><path class="cls-3" d="M4318.44,2238h0a43.28,43.28,0,0,1,43.28,43.27v1.51" transform="translate(-4318.43 -2137.7)"/><path class="cls-2" d="M4505.28,2153.79h0a43.27,43.27,0,0,1-43.27,43.27h-1.51" transform="translate(-4318.43 -2137.7)"/><path class="cls-3" d="M4578,2197.82h0a43.28,43.28,0,0,1-43.28-43.28V2153" transform="translate(-4318.43 -2137.7)"/><path class="cls-2" d="M4522.76,2236.3h0a43.28,43.28,0,0,1,43.28,43.28v1.51" transform="translate(-4318.43 -2137.7)"/><path class="cls-1" d="M4514.86,2236.81h0a43.28,43.28,0,0,0-43.28,43.28v1.51" transform="translate(-4318.43 -2137.7)"/><path class="cls-2" d="M4608.53,2204.65h0a43.28,43.28,0,0,1,43.27-43.28h1.51" transform="translate(-4318.43 -2137.7)"/><path class="cls-2" d="M4664.74,2161.37h0a43.28,43.28,0,0,1,43.28,43.28v1.51" transform="translate(-4318.43 -2137.7)"/><path class="cls-3" d="M4672.78,2280.23h0a43.28,43.28,0,0,1,43.28-43.27h1.51" transform="translate(-4318.43 -2137.7)"/><path class="cls-2" d="M4599,2236.2h0a43.28,43.28,0,0,1,43.27,43.28V2281" transform="translate(-4318.43 -2137.7)"/><path class="cls-2" d="M4785.88,2152h0a43.28,43.28,0,0,1-43.28,43.27h-1.51" transform="translate(-4318.43 -2137.7)"/><path class="cls-1" d="M4858.62,2196h0a43.28,43.28,0,0,1-43.27-43.28v-1.51" transform="translate(-4318.43 -2137.7)"/><path class="cls-2" d="M4803.36,2234.49h0a43.27,43.27,0,0,1,43.27,43.27v1.51" transform="translate(-4318.43 -2137.7)"/><path class="cls-2" d="M4795.45,2235h0a43.28,43.28,0,0,0-43.28,43.27v1.52" transform="translate(-4318.43 -2137.7)"/><path class="cls-2" d="M4852,2367h0a43.27,43.27,0,0,0-43.27-43.27h-1.52" transform="translate(-4318.43 -2137.7)"/><path class="cls-1" d="M4795.78,2323.69h0A43.28,43.28,0,0,0,4752.5,2367v1.51" transform="translate(-4318.43 -2137.7)"/><path class="cls-3" d="M4787.74,2442.55h0a43.28,43.28,0,0,0-43.28-43.28H4743" transform="translate(-4318.43 -2137.7)"/><path class="cls-2" d="M4861.48,2398.52h0a43.27,43.27,0,0,0-43.27,43.27v1.51" transform="translate(-4318.43 -2137.7)"/><path class="cls-3" d="M4674.64,2314.29h0a43.28,43.28,0,0,0,43.28,43.27h1.51" transform="translate(-4318.43 -2137.7)"/><path class="cls-2" d="M4601.9,2358.32h0a43.28,43.28,0,0,0,43.27-43.28v-1.51" transform="translate(-4318.43 -2137.7)"/><path class="cls-2" d="M4657.16,2396.8h0a43.27,43.27,0,0,0-43.27,43.28v1.51" transform="translate(-4318.43 -2137.7)"/><path class="cls-2" d="M4665.07,2397.31h0a43.28,43.28,0,0,1,43.28,43.28v1.51" transform="translate(-4318.43 -2137.7)"/><path class="cls-2" d="M4571.4,2365.15h0a43.28,43.28,0,0,0-43.28-43.28h-1.51" transform="translate(-4318.43 -2137.7)"/><path class="cls-2" d="M4515.19,2321.87h0a43.28,43.28,0,0,0-43.28,43.28v1.51" transform="translate(-4318.43 -2137.7)"/><path class="cls-2" d="M4507.14,2440.73h0a43.27,43.27,0,0,0-43.27-43.27h-1.51" transform="translate(-4318.43 -2137.7)"/><path class="cls-1" d="M4580.89,2396.7h0a43.28,43.28,0,0,0-43.28,43.28v1.51" transform="translate(-4318.43 -2137.7)"/><path class="cls-1" d="M4394.05,2312.47h0a43.28,43.28,0,0,0,43.27,43.28h1.52" transform="translate(-4318.43 -2137.7)"/><path class="cls-2" d="M4321.3,2356.51h0a43.28,43.28,0,0,0,43.28-43.28v-1.51" transform="translate(-4318.43 -2137.7)"/><path class="cls-3" d="M4376.57,2395h0a43.28,43.28,0,0,0-43.28,43.27v1.51" transform="translate(-4318.43 -2137.7)"/><path class="cls-2" d="M4384.48,2395.5h0a43.27,43.27,0,0,1,43.27,43.27v1.51" transform="translate(-4318.43 -2137.7)"/><path class="cls-1" d="M4889,2202.93h0a43.28,43.28,0,0,1,43.28-43.27h1.51" transform="translate(-4318.43 -2137.7)"/><path class="cls-2" d="M4945.21,2159.66h0a43.27,43.27,0,0,1,43.27,43.27v1.52" transform="translate(-4318.43 -2137.7)"/><path class="cls-2" d="M4953.25,2278.52h0a43.28,43.28,0,0,1,43.27-43.28H4998" transform="translate(-4318.43 -2137.7)"/><path class="cls-3" d="M4879.5,2234.49h0a43.28,43.28,0,0,1,43.28,43.27v1.51" transform="translate(-4318.43 -2137.7)"/><path class="cls-2" d="M5066.34,2150.26h0a43.27,43.27,0,0,1-43.27,43.27h-1.51" transform="translate(-4318.43 -2137.7)"/><path class="cls-3" d="M5139.09,2194.29h0a43.28,43.28,0,0,1-43.28-43.27v-1.52" transform="translate(-4318.43 -2137.7)"/><path class="cls-2" d="M5083.82,2232.77h0a43.28,43.28,0,0,1,43.28,43.28v1.51" transform="translate(-4318.43 -2137.7)"/><path class="cls-1" d="M5075.92,2233.28h0a43.28,43.28,0,0,0-43.28,43.28v1.51" transform="translate(-4318.43 -2137.7)"/><path class="cls-2" d="M5169.59,2201.12h0a43.28,43.28,0,0,1,43.27-43.28h1.51" transform="translate(-4318.43 -2137.7)"/><path class="cls-2" d="M5225.8,2157.84h0a43.28,43.28,0,0,1,43.28,43.28v1.51" transform="translate(-4318.43 -2137.7)"/><path class="cls-3" d="M5233.84,2276.7h0a43.28,43.28,0,0,1,43.28-43.27h1.51" transform="translate(-4318.43 -2137.7)"/><path class="cls-2" d="M5160.1,2232.67h0a43.28,43.28,0,0,1,43.27,43.28v1.51" transform="translate(-4318.43 -2137.7)"/><path class="cls-2" d="M5346.94,2148.45h0a43.28,43.28,0,0,1-43.28,43.27h-1.51" transform="translate(-4318.43 -2137.7)"/><path class="cls-1" d="M5419.68,2192.48h0a43.28,43.28,0,0,1-43.27-43.28v-1.51" transform="translate(-4318.43 -2137.7)"/><path class="cls-2" d="M5364.42,2231h0a43.27,43.27,0,0,1,43.27,43.27v1.51" transform="translate(-4318.43 -2137.7)"/><path class="cls-2" d="M5356.51,2231.47h0a43.28,43.28,0,0,0-43.28,43.27v1.52" transform="translate(-4318.43 -2137.7)"/><path class="cls-2" d="M5413.05,2363.43h0a43.27,43.27,0,0,0-43.27-43.27h-1.52" transform="translate(-4318.43 -2137.7)"/><path class="cls-1" d="M5356.84,2320.16h0a43.28,43.28,0,0,0-43.28,43.27v1.51" transform="translate(-4318.43 -2137.7)"/><path class="cls-3" d="M5348.8,2439h0a43.28,43.28,0,0,0-43.28-43.28H5304" transform="translate(-4318.43 -2137.7)"/><path class="cls-2" d="M5422.54,2395h0a43.27,43.27,0,0,0-43.27,43.27v1.51" transform="translate(-4318.43 -2137.7)"/><path class="cls-3" d="M5235.7,2310.76h0A43.28,43.28,0,0,0,5279,2354h1.51" transform="translate(-4318.43 -2137.7)"/><path class="cls-2" d="M5163,2354.79h0a43.28,43.28,0,0,0,43.27-43.28V2310" transform="translate(-4318.43 -2137.7)"/><path class="cls-2" d="M5218.22,2393.27h0a43.27,43.27,0,0,0-43.27,43.28v1.51" transform="translate(-4318.43 -2137.7)"/><path class="cls-2" d="M5226.13,2393.78h0a43.28,43.28,0,0,1,43.28,43.28v1.51" transform="translate(-4318.43 -2137.7)"/><path class="cls-2" d="M5132.46,2361.62h0a43.28,43.28,0,0,0-43.28-43.28h-1.51" transform="translate(-4318.43 -2137.7)"/><path class="cls-2" d="M5076.25,2318.34h0a43.28,43.28,0,0,0-43.28,43.28v1.51" transform="translate(-4318.43 -2137.7)"/><path class="cls-2" d="M5068.2,2437.2h0a43.27,43.27,0,0,0-43.27-43.27h-1.51" transform="translate(-4318.43 -2137.7)"/><path class="cls-1" d="M5142,2393.17h0a43.28,43.28,0,0,0-43.28,43.28V2438" transform="translate(-4318.43 -2137.7)"/><path class="cls-1" d="M4955.11,2308.94h0a43.28,43.28,0,0,0,43.27,43.28h1.52" transform="translate(-4318.43 -2137.7)"/><path class="cls-2" d="M4882.36,2353h0a43.28,43.28,0,0,0,43.28-43.28v-1.51" transform="translate(-4318.43 -2137.7)"/><path class="cls-3" d="M4937.63,2391.46h0a43.28,43.28,0,0,0-43.28,43.27v1.51" transform="translate(-4318.43 -2137.7)"/><path class="cls-2" d="M4945.54,2392h0a43.27,43.27,0,0,1,43.27,43.27v1.52" transform="translate(-4318.43 -2137.7)"/><path class="cls-1" d="M4327.93,2515.77h0a43.28,43.28,0,0,1,43.28-43.27h1.51" transform="translate(-4318.43 -2137.7)"/><path class="cls-2" d="M4384.15,2472.5h0a43.27,43.27,0,0,1,43.27,43.27v1.52" transform="translate(-4318.43 -2137.7)"/><path class="cls-2" d="M4392.19,2591.36h0a43.28,43.28,0,0,1,43.27-43.28H4437" transform="translate(-4318.43 -2137.7)"/><path class="cls-3" d="M4318.44,2547.33h0a43.28,43.28,0,0,1,43.28,43.27v1.52" transform="translate(-4318.43 -2137.7)"/><path class="cls-2" d="M4505.28,2463.1h0a43.28,43.28,0,0,1-43.27,43.28h-1.51" transform="translate(-4318.43 -2137.7)"/><path class="cls-3" d="M4578,2507.13h0a43.28,43.28,0,0,1-43.28-43.27v-1.52" transform="translate(-4318.43 -2137.7)"/><path class="cls-2" d="M4522.76,2545.61h0a43.28,43.28,0,0,1,43.28,43.28v1.51" transform="translate(-4318.43 -2137.7)"/><path class="cls-1" d="M4514.86,2546.12h0a43.28,43.28,0,0,0-43.28,43.28v1.51" transform="translate(-4318.43 -2137.7)"/><path class="cls-2" d="M4608.53,2514h0a43.27,43.27,0,0,1,43.27-43.27h1.51" transform="translate(-4318.43 -2137.7)"/><path class="cls-2" d="M4664.74,2470.69h0A43.28,43.28,0,0,1,4708,2514v1.51" transform="translate(-4318.43 -2137.7)"/><path class="cls-3" d="M4672.78,2589.55h0a43.28,43.28,0,0,1,43.28-43.28h1.51" transform="translate(-4318.43 -2137.7)"/><path class="cls-2" d="M4599,2545.51h0a43.28,43.28,0,0,1,43.27,43.28v1.51" transform="translate(-4318.43 -2137.7)"/><path class="cls-2" d="M4785.88,2461.29h0a43.28,43.28,0,0,1-43.28,43.27h-1.51" transform="translate(-4318.43 -2137.7)"/><path class="cls-1" d="M4858.62,2505.32h0a43.28,43.28,0,0,1-43.27-43.28v-1.51" transform="translate(-4318.43 -2137.7)"/><path class="cls-2" d="M4803.36,2543.8h0a43.27,43.27,0,0,1,43.27,43.27v1.52" transform="translate(-4318.43 -2137.7)"/><path class="cls-2" d="M4795.45,2544.31h0a43.28,43.28,0,0,0-43.28,43.28v1.51" transform="translate(-4318.43 -2137.7)"/><path class="cls-2" d="M4852,2676.27h0a43.27,43.27,0,0,0-43.27-43.27h-1.52" transform="translate(-4318.43 -2137.7)"/><path class="cls-1" d="M4795.78,2633h0a43.28,43.28,0,0,0-43.28,43.27v1.51" transform="translate(-4318.43 -2137.7)"/><path class="cls-3" d="M4787.74,2750.61h0a43.28,43.28,0,0,0-43.28-43.27H4743" transform="translate(-4318.43 -2137.7)"/><path class="cls-2" d="M4861.48,2705.83h0a43.27,43.27,0,0,0-43.27,43.27v1.51" transform="translate(-4318.43 -2137.7)"/><path class="cls-3" d="M4674.64,2623.6h0a43.28,43.28,0,0,0,43.28,43.27h1.51" transform="translate(-4318.43 -2137.7)"/><path class="cls-2" d="M4601.9,2667.63h0a43.27,43.27,0,0,0,43.27-43.28v-1.51" transform="translate(-4318.43 -2137.7)"/><path class="cls-2" d="M4657.16,2705.83h0a43.27,43.27,0,0,0-43.27,43.27v1.51" transform="translate(-4318.43 -2137.7)"/><path class="cls-2" d="M4665.07,2705.83h0a43.28,43.28,0,0,1,43.28,43.27v1.51" transform="translate(-4318.43 -2137.7)"/><path class="cls-2" d="M4571.4,2674.46h0a43.28,43.28,0,0,0-43.28-43.28h-1.51" transform="translate(-4318.43 -2137.7)"/><path class="cls-2" d="M4515.19,2631.18h0a43.28,43.28,0,0,0-43.28,43.28V2676" transform="translate(-4318.43 -2137.7)"/><path class="cls-2" d="M4507.14,2750.61h0a43.27,43.27,0,0,0-43.27-43.27h-1.51" transform="translate(-4318.43 -2137.7)"/><path class="cls-1" d="M4580.89,2705.83h0a43.28,43.28,0,0,0-43.28,43.27v1.51" transform="translate(-4318.43 -2137.7)"/><path class="cls-1" d="M4394.05,2621.79h0a43.27,43.27,0,0,0,43.27,43.27h1.52" transform="translate(-4318.43 -2137.7)"/><path class="cls-2" d="M4321.3,2665.82h0a43.28,43.28,0,0,0,43.28-43.28V2621" transform="translate(-4318.43 -2137.7)"/><path class="cls-3" d="M4376.57,2705.83h0a43.28,43.28,0,0,0-43.28,43.27v1.51" transform="translate(-4318.43 -2137.7)"/><path class="cls-2" d="M4384.48,2705.83h0a43.27,43.27,0,0,1,43.27,43.27v1.51" transform="translate(-4318.43 -2137.7)"/><path class="cls-1" d="M4889,2512.24h0a43.28,43.28,0,0,1,43.28-43.27h1.51" transform="translate(-4318.43 -2137.7)"/><path class="cls-2" d="M4945.21,2469h0a43.27,43.27,0,0,1,43.27,43.27v1.52" transform="translate(-4318.43 -2137.7)"/><path class="cls-2" d="M4953.25,2587.83h0a43.28,43.28,0,0,1,43.27-43.28H4998" transform="translate(-4318.43 -2137.7)"/><path class="cls-3" d="M4879.5,2543.8h0a43.28,43.28,0,0,1,43.28,43.27v1.52" transform="translate(-4318.43 -2137.7)"/><path class="cls-2" d="M5066.34,2459.57h0a43.28,43.28,0,0,1-43.27,43.28h-1.51" transform="translate(-4318.43 -2137.7)"/><path class="cls-3" d="M5139.09,2503.6h0a43.28,43.28,0,0,1-43.28-43.27v-1.52" transform="translate(-4318.43 -2137.7)"/><path class="cls-2" d="M5083.82,2542.08h0a43.28,43.28,0,0,1,43.28,43.28v1.51" transform="translate(-4318.43 -2137.7)"/><path class="cls-1" d="M5075.92,2542.59h0a43.28,43.28,0,0,0-43.28,43.28v1.51" transform="translate(-4318.43 -2137.7)"/><path class="cls-2" d="M5169.59,2510.43h0a43.27,43.27,0,0,1,43.27-43.27h1.51" transform="translate(-4318.43 -2137.7)"/><path class="cls-2" d="M5225.8,2467.16h0a43.28,43.28,0,0,1,43.28,43.27v1.51" transform="translate(-4318.43 -2137.7)"/><path class="cls-3" d="M5233.84,2586h0a43.28,43.28,0,0,1,43.28-43.28h1.51" transform="translate(-4318.43 -2137.7)"/><path class="cls-2" d="M5160.1,2542h0a43.28,43.28,0,0,1,43.27,43.28v1.51" transform="translate(-4318.43 -2137.7)"/><path class="cls-2" d="M5346.94,2457.76h0a43.28,43.28,0,0,1-43.28,43.27h-1.51" transform="translate(-4318.43 -2137.7)"/><path class="cls-1" d="M5419.68,2501.79h0a43.28,43.28,0,0,1-43.27-43.28V2457" transform="translate(-4318.43 -2137.7)"/><path class="cls-2" d="M5364.42,2540.27h0a43.27,43.27,0,0,1,43.27,43.27v1.52" transform="translate(-4318.43 -2137.7)"/><path class="cls-2" d="M5356.51,2540.78h0a43.28,43.28,0,0,0-43.28,43.28v1.51" transform="translate(-4318.43 -2137.7)"/><path class="cls-2" d="M5413.05,2672.74h0a43.27,43.27,0,0,0-43.27-43.27h-1.52" transform="translate(-4318.43 -2137.7)"/><path class="cls-1" d="M5356.84,2629.47h0a43.28,43.28,0,0,0-43.28,43.27v1.52" transform="translate(-4318.43 -2137.7)"/><path class="cls-3" d="M5348.8,2750.61h0a43.28,43.28,0,0,0-43.28-43.27H5304" transform="translate(-4318.43 -2137.7)"/><path class="cls-2" d="M5422.54,2705.83h0a43.27,43.27,0,0,0-43.27,43.27v1.51" transform="translate(-4318.43 -2137.7)"/><path class="cls-3" d="M5235.7,2620.07h0a43.28,43.28,0,0,0,43.28,43.27h1.51" transform="translate(-4318.43 -2137.7)"/><path class="cls-2" d="M5163,2664.1h0a43.27,43.27,0,0,0,43.27-43.27v-1.52" transform="translate(-4318.43 -2137.7)"/><path class="cls-2" d="M5218.22,2705.83h0A43.27,43.27,0,0,0,5175,2749.1v1.51" transform="translate(-4318.43 -2137.7)"/><path class="cls-2" d="M5226.13,2705.83h0a43.28,43.28,0,0,1,43.28,43.27v1.51" transform="translate(-4318.43 -2137.7)"/><path class="cls-2" d="M5132.46,2670.93h0a43.28,43.28,0,0,0-43.28-43.28h-1.51" transform="translate(-4318.43 -2137.7)"/><path class="cls-2" d="M5076.25,2627.65h0a43.28,43.28,0,0,0-43.28,43.28v1.51" transform="translate(-4318.43 -2137.7)"/><path class="cls-2" d="M5068.2,2750.61h0a43.27,43.27,0,0,0-43.27-43.27h-1.51" transform="translate(-4318.43 -2137.7)"/><path class="cls-1" d="M5142,2705.83h0a43.28,43.28,0,0,0-43.28,43.27v1.51" transform="translate(-4318.43 -2137.7)"/><path class="cls-1" d="M4955.11,2618.26h0a43.27,43.27,0,0,0,43.27,43.27h1.52" transform="translate(-4318.43 -2137.7)"/><path class="cls-2" d="M4882.36,2662.29h0a43.28,43.28,0,0,0,43.28-43.28v-1.51" transform="translate(-4318.43 -2137.7)"/><path class="cls-3" d="M4937.63,2705.83h0a43.28,43.28,0,0,0-43.28,43.27v1.51" transform="translate(-4318.43 -2137.7)"/><path class="cls-2" d="M4945.54,2705.83h0a43.27,43.27,0,0,1,43.27,43.27v1.51" transform="translate(-4318.43 -2137.7)"/><path class="cls-1" d="M5446.31,2204.46h0a43.27,43.27,0,0,1,43.27-43.27h1.52" transform="translate(-4318.43 -2137.7)"/><path class="cls-2" d="M5502.52,2161.19h0a43.28,43.28,0,0,1,43.28,43.27V2206" transform="translate(-4318.43 -2137.7)"/><path class="cls-2" d="M5510.56,2280.05h0a43.28,43.28,0,0,1,43.28-43.28h1.51" transform="translate(-4318.43 -2137.7)"/><path class="cls-3" d="M5436.82,2236h0a43.27,43.27,0,0,1,43.27,43.27v1.51" transform="translate(-4318.43 -2137.7)"/><path class="cls-2" d="M5623.66,2151.79h0a43.28,43.28,0,0,1-43.28,43.27h-1.51" transform="translate(-4318.43 -2137.7)"/><path class="cls-3" d="M5696.4,2195.82h0a43.27,43.27,0,0,1-43.27-43.28V2151" transform="translate(-4318.43 -2137.7)"/><path class="cls-2" d="M5641.14,2234.3h0a43.28,43.28,0,0,1,43.27,43.28v1.51" transform="translate(-4318.43 -2137.7)"/><path class="cls-1" d="M5633.23,2234.81h0a43.28,43.28,0,0,0-43.27,43.28v1.51" transform="translate(-4318.43 -2137.7)"/><path class="cls-2" d="M5726.9,2202.65h0a43.28,43.28,0,0,1,43.28-43.28h1.51" transform="translate(-4318.43 -2137.7)"/><path class="cls-2" d="M5783.12,2159.37h0a43.28,43.28,0,0,1,43.27,43.28v1.51" transform="translate(-4318.43 -2137.7)"/><path class="cls-3" d="M5791.16,2278.23h0a43.27,43.27,0,0,1,43.27-43.27h1.51" transform="translate(-4318.43 -2137.7)"/><path class="cls-2" d="M5717.41,2234.2h0a43.28,43.28,0,0,1,43.28,43.28V2279" transform="translate(-4318.43 -2137.7)"/><path class="cls-2" d="M5904.25,2150h0a43.27,43.27,0,0,1-43.27,43.27h-1.52" transform="translate(-4318.43 -2137.7)"/><path class="cls-1" d="M5977,2194h0a43.28,43.28,0,0,1-43.28-43.28v-1.51" transform="translate(-4318.43 -2137.7)"/><path class="cls-2" d="M5921.73,2232.49h0a43.28,43.28,0,0,1,43.28,43.27v1.51" transform="translate(-4318.43 -2137.7)"/><path class="cls-2" d="M5913.82,2233h0a43.27,43.27,0,0,0-43.27,43.27v1.52" transform="translate(-4318.43 -2137.7)"/><path class="cls-2" d="M5970.37,2365h0a43.28,43.28,0,0,0-43.28-43.27h-1.51" transform="translate(-4318.43 -2137.7)"/><path class="cls-1" d="M5914.15,2321.69h0a43.27,43.27,0,0,0-43.27,43.27v1.51" transform="translate(-4318.43 -2137.7)"/><path class="cls-3" d="M5906.11,2440.55h0a43.28,43.28,0,0,0-43.27-43.28h-1.52" transform="translate(-4318.43 -2137.7)"/><path class="cls-2" d="M5979.86,2396.52h0a43.28,43.28,0,0,0-43.28,43.27v1.51" transform="translate(-4318.43 -2137.7)"/><path class="cls-3" d="M5793,2312.29h0a43.27,43.27,0,0,0,43.27,43.27h1.51" transform="translate(-4318.43 -2137.7)"/><path class="cls-2" d="M5720.27,2356.32h0a43.28,43.28,0,0,0,43.28-43.28v-1.51" transform="translate(-4318.43 -2137.7)"/><path class="cls-2" d="M5775.54,2394.8h0a43.28,43.28,0,0,0-43.28,43.28v1.51" transform="translate(-4318.43 -2137.7)"/><path class="cls-2" d="M5783.44,2395.31h0a43.28,43.28,0,0,1,43.28,43.28v1.51" transform="translate(-4318.43 -2137.7)"/><path class="cls-2" d="M5689.77,2363.15h0a43.28,43.28,0,0,0-43.27-43.28H5645" transform="translate(-4318.43 -2137.7)"/><path class="cls-2" d="M5633.56,2319.87h0a43.28,43.28,0,0,0-43.27,43.28v1.51" transform="translate(-4318.43 -2137.7)"/><path class="cls-2" d="M5625.52,2438.73h0a43.28,43.28,0,0,0-43.28-43.27h-1.51" transform="translate(-4318.43 -2137.7)"/><path class="cls-1" d="M5699.26,2394.7h0A43.28,43.28,0,0,0,5656,2438v1.51" transform="translate(-4318.43 -2137.7)"/><path class="cls-1" d="M5512.42,2310.47h0a43.28,43.28,0,0,0,43.28,43.28h1.51" transform="translate(-4318.43 -2137.7)"/><path class="cls-2" d="M5439.68,2354.51h0a43.28,43.28,0,0,0,43.27-43.28v-1.51" transform="translate(-4318.43 -2137.7)"/><path class="cls-3" d="M5495,2393h0a43.27,43.27,0,0,0-43.28,43.27v1.51" transform="translate(-4318.43 -2137.7)"/><path class="cls-2" d="M5502.85,2393.5h0a43.28,43.28,0,0,1,43.28,43.27v1.51" transform="translate(-4318.43 -2137.7)"/><path class="cls-1" d="M6007.37,2200.93h0a43.27,43.27,0,0,1,43.27-43.27h1.52" transform="translate(-4318.43 -2137.7)"/><path class="cls-2" d="M6063.58,2157.66h0a43.28,43.28,0,0,1,43.28,43.27v1.52" transform="translate(-4318.43 -2137.7)"/><path class="cls-2" d="M6071.62,2276.52h0a43.28,43.28,0,0,1,43.28-43.28h1.51" transform="translate(-4318.43 -2137.7)"/><path class="cls-3" d="M5997.88,2232.49h0a43.27,43.27,0,0,1,43.27,43.27v1.51" transform="translate(-4318.43 -2137.7)"/><path class="cls-2" d="M6184.72,2148.26h0a43.28,43.28,0,0,1-43.28,43.27h-1.51" transform="translate(-4318.43 -2137.7)"/><path class="cls-3" d="M6257.46,2192.29h0a43.27,43.27,0,0,1-43.27-43.27v-1.52" transform="translate(-4318.43 -2137.7)"/><path class="cls-2" d="M6202.2,2230.77h0a43.28,43.28,0,0,1,43.27,43.28v1.51" transform="translate(-4318.43 -2137.7)"/><path class="cls-1" d="M6194.29,2231.28h0a43.28,43.28,0,0,0-43.27,43.28v1.51" transform="translate(-4318.43 -2137.7)"/><path class="cls-2" d="M6288,2199.12h0a43.28,43.28,0,0,1,43.28-43.28h1.51" transform="translate(-4318.43 -2137.7)"/><path class="cls-2" d="M6344.17,2155.84h0a43.28,43.28,0,0,1,43.28,43.28v1.51" transform="translate(-4318.43 -2137.7)"/><path class="cls-3" d="M6352.22,2274.7h0a43.27,43.27,0,0,1,43.27-43.27H6397" transform="translate(-4318.43 -2137.7)"/><path class="cls-2" d="M6278.47,2230.67h0a43.28,43.28,0,0,1,43.28,43.28v1.51" transform="translate(-4318.43 -2137.7)"/><path class="cls-2" d="M6465.31,2146.45h0a43.27,43.27,0,0,1-43.27,43.27h-1.52" transform="translate(-4318.43 -2137.7)"/><path class="cls-1" d="M6538.06,2190.48h0a43.28,43.28,0,0,1-43.28-43.28v-1.51" transform="translate(-4318.43 -2137.7)"/><path class="cls-2" d="M6482.79,2229h0a43.28,43.28,0,0,1,43.28,43.27v1.51" transform="translate(-4318.43 -2137.7)"/><path class="cls-2" d="M6474.88,2229.47h0a43.27,43.27,0,0,0-43.27,43.27v1.52" transform="translate(-4318.43 -2137.7)"/><path class="cls-2" d="M6531.43,2361.43h0a43.28,43.28,0,0,0-43.28-43.27h-1.51" transform="translate(-4318.43 -2137.7)"/><path class="cls-1" d="M6475.21,2318.16h0a43.27,43.27,0,0,0-43.27,43.27v1.51" transform="translate(-4318.43 -2137.7)"/><path class="cls-3" d="M6467.17,2437h0a43.28,43.28,0,0,0-43.27-43.28h-1.52" transform="translate(-4318.43 -2137.7)"/><path class="cls-2" d="M6540.92,2393h0a43.28,43.28,0,0,0-43.28,43.27v1.51" transform="translate(-4318.43 -2137.7)"/><path class="cls-3" d="M6354.08,2308.76h0a43.27,43.27,0,0,0,43.27,43.27h1.51" transform="translate(-4318.43 -2137.7)"/><path class="cls-2" d="M6281.33,2352.79h0a43.28,43.28,0,0,0,43.28-43.28V2308" transform="translate(-4318.43 -2137.7)"/><path class="cls-2" d="M6336.6,2391.27h0a43.28,43.28,0,0,0-43.28,43.28v1.51" transform="translate(-4318.43 -2137.7)"/><path class="cls-2" d="M6344.5,2391.78h0a43.28,43.28,0,0,1,43.28,43.28v1.51" transform="translate(-4318.43 -2137.7)"/><path class="cls-2" d="M6250.83,2359.62h0a43.28,43.28,0,0,0-43.27-43.28h-1.51" transform="translate(-4318.43 -2137.7)"/><path class="cls-2" d="M6194.62,2316.34h0a43.28,43.28,0,0,0-43.27,43.28v1.51" transform="translate(-4318.43 -2137.7)"/><path class="cls-2" d="M6186.58,2435.2h0a43.28,43.28,0,0,0-43.28-43.27h-1.51" transform="translate(-4318.43 -2137.7)"/><path class="cls-1" d="M6260.32,2391.17h0a43.28,43.28,0,0,0-43.27,43.28V2436" transform="translate(-4318.43 -2137.7)"/><path class="cls-1" d="M6073.48,2306.94h0a43.28,43.28,0,0,0,43.28,43.28h1.51" transform="translate(-4318.43 -2137.7)"/><path class="cls-2" d="M6000.74,2351h0A43.28,43.28,0,0,0,6044,2307.7v-1.51" transform="translate(-4318.43 -2137.7)"/><path class="cls-3" d="M6056,2389.46h0a43.27,43.27,0,0,0-43.27,43.27v1.51" transform="translate(-4318.43 -2137.7)"/><path class="cls-2" d="M6063.91,2390h0a43.28,43.28,0,0,1,43.28,43.27v1.52" transform="translate(-4318.43 -2137.7)"/><path class="cls-1" d="M5446.31,2513.77h0a43.27,43.27,0,0,1,43.27-43.27h1.52" transform="translate(-4318.43 -2137.7)"/><path class="cls-2" d="M5502.52,2470.5h0a43.28,43.28,0,0,1,43.28,43.27v1.52" transform="translate(-4318.43 -2137.7)"/><path class="cls-2" d="M5510.56,2589.36h0a43.28,43.28,0,0,1,43.28-43.28h1.51" transform="translate(-4318.43 -2137.7)"/><path class="cls-3" d="M5436.82,2545.33h0a43.27,43.27,0,0,1,43.27,43.27v1.52" transform="translate(-4318.43 -2137.7)"/><path class="cls-2" d="M5623.66,2461.1h0a43.28,43.28,0,0,1-43.28,43.28h-1.51" transform="translate(-4318.43 -2137.7)"/><path class="cls-3" d="M5696.4,2505.13h0a43.27,43.27,0,0,1-43.27-43.27v-1.52" transform="translate(-4318.43 -2137.7)"/><path class="cls-2" d="M5641.14,2543.61h0a43.28,43.28,0,0,1,43.27,43.28v1.51" transform="translate(-4318.43 -2137.7)"/><path class="cls-1" d="M5633.23,2544.12h0A43.28,43.28,0,0,0,5590,2587.4v1.51" transform="translate(-4318.43 -2137.7)"/><path class="cls-2" d="M5726.9,2512h0a43.28,43.28,0,0,1,43.28-43.27h1.51" transform="translate(-4318.43 -2137.7)"/><path class="cls-2" d="M5783.12,2468.69h0a43.27,43.27,0,0,1,43.27,43.27v1.51" transform="translate(-4318.43 -2137.7)"/><path class="cls-3" d="M5791.16,2587.55h0a43.28,43.28,0,0,1,43.27-43.28h1.51" transform="translate(-4318.43 -2137.7)"/><path class="cls-2" d="M5717.41,2543.51h0a43.28,43.28,0,0,1,43.28,43.28v1.51" transform="translate(-4318.43 -2137.7)"/><path class="cls-2" d="M5904.25,2459.29h0a43.27,43.27,0,0,1-43.27,43.27h-1.52" transform="translate(-4318.43 -2137.7)"/><path class="cls-1" d="M5977,2503.32h0a43.28,43.28,0,0,1-43.28-43.28v-1.51" transform="translate(-4318.43 -2137.7)"/><path class="cls-2" d="M5921.73,2541.8h0a43.28,43.28,0,0,1,43.28,43.27v1.52" transform="translate(-4318.43 -2137.7)"/><path class="cls-2" d="M5913.82,2542.31h0a43.28,43.28,0,0,0-43.27,43.28v1.51" transform="translate(-4318.43 -2137.7)"/><path class="cls-2" d="M5970.37,2674.27h0a43.28,43.28,0,0,0-43.28-43.27h-1.51" transform="translate(-4318.43 -2137.7)"/><path class="cls-1" d="M5914.15,2631h0a43.27,43.27,0,0,0-43.27,43.27v1.51" transform="translate(-4318.43 -2137.7)"/><path class="cls-3" d="M5906.11,2749.86h0a43.28,43.28,0,0,0-43.27-43.28h-1.52" transform="translate(-4318.43 -2137.7)"/><path class="cls-2" d="M5979.86,2705.83h0a43.28,43.28,0,0,0-43.28,43.27v1.51" transform="translate(-4318.43 -2137.7)"/><path class="cls-3" d="M5793,2621.6h0a43.27,43.27,0,0,0,43.27,43.27h1.51" transform="translate(-4318.43 -2137.7)"/><path class="cls-2" d="M5720.27,2665.63h0a43.28,43.28,0,0,0,43.28-43.28v-1.51" transform="translate(-4318.43 -2137.7)"/><path class="cls-2" d="M5775.54,2704.11h0a43.28,43.28,0,0,0-43.28,43.28v1.51" transform="translate(-4318.43 -2137.7)"/><path class="cls-2" d="M5783.44,2704.62h0a43.28,43.28,0,0,1,43.28,43.28v1.51" transform="translate(-4318.43 -2137.7)"/><path class="cls-2" d="M5689.77,2672.46h0a43.28,43.28,0,0,0-43.27-43.28H5645" transform="translate(-4318.43 -2137.7)"/><path class="cls-2" d="M5633.56,2629.18h0a43.28,43.28,0,0,0-43.27,43.28V2674" transform="translate(-4318.43 -2137.7)"/><path class="cls-2" d="M5625.52,2748h0a43.28,43.28,0,0,0-43.28-43.27h-1.51" transform="translate(-4318.43 -2137.7)"/><path class="cls-1" d="M5699.26,2704h0a43.28,43.28,0,0,0-43.27,43.28v1.51" transform="translate(-4318.43 -2137.7)"/><path class="cls-1" d="M5512.42,2619.79h0a43.28,43.28,0,0,0,43.28,43.27h1.51" transform="translate(-4318.43 -2137.7)"/><path class="cls-2" d="M5439.68,2663.82h0a43.28,43.28,0,0,0,43.27-43.28V2619" transform="translate(-4318.43 -2137.7)"/><path class="cls-3" d="M5495,2702.3h0a43.27,43.27,0,0,0-43.28,43.27v1.51" transform="translate(-4318.43 -2137.7)"/><path class="cls-2" d="M5502.85,2702.81h0a43.28,43.28,0,0,1,43.28,43.27v1.52" transform="translate(-4318.43 -2137.7)"/><path class="cls-1" d="M6007.37,2510.24h0a43.27,43.27,0,0,1,43.27-43.27h1.52" transform="translate(-4318.43 -2137.7)"/><path class="cls-2" d="M6063.58,2467h0a43.28,43.28,0,0,1,43.28,43.27v1.52" transform="translate(-4318.43 -2137.7)"/><path class="cls-2" d="M6071.62,2585.83h0a43.28,43.28,0,0,1,43.28-43.28h1.51" transform="translate(-4318.43 -2137.7)"/><path class="cls-3" d="M5997.88,2541.8h0a43.27,43.27,0,0,1,43.27,43.27v1.52" transform="translate(-4318.43 -2137.7)"/><path class="cls-2" d="M6184.72,2457.57h0a43.28,43.28,0,0,1-43.28,43.28h-1.51" transform="translate(-4318.43 -2137.7)"/><path class="cls-3" d="M6257.46,2501.6h0a43.27,43.27,0,0,1-43.27-43.27v-1.52" transform="translate(-4318.43 -2137.7)"/><path class="cls-2" d="M6202.2,2540.08h0a43.28,43.28,0,0,1,43.27,43.28v1.51" transform="translate(-4318.43 -2137.7)"/><path class="cls-1" d="M6194.29,2540.59h0a43.28,43.28,0,0,0-43.27,43.28v1.51" transform="translate(-4318.43 -2137.7)"/><path class="cls-2" d="M6288,2508.43h0a43.28,43.28,0,0,1,43.28-43.27h1.51" transform="translate(-4318.43 -2137.7)"/><path class="cls-2" d="M6344.17,2465.16h0a43.27,43.27,0,0,1,43.28,43.27v1.51" transform="translate(-4318.43 -2137.7)"/><path class="cls-3" d="M6352.22,2584h0a43.28,43.28,0,0,1,43.27-43.28H6397" transform="translate(-4318.43 -2137.7)"/><path class="cls-2" d="M6278.47,2540h0a43.28,43.28,0,0,1,43.28,43.28v1.51" transform="translate(-4318.43 -2137.7)"/><path class="cls-2" d="M6465.31,2455.76h0A43.27,43.27,0,0,1,6422,2499h-1.52" transform="translate(-4318.43 -2137.7)"/><path class="cls-1" d="M6538.06,2499.79h0a43.28,43.28,0,0,1-43.28-43.28V2455" transform="translate(-4318.43 -2137.7)"/><path class="cls-2" d="M6482.79,2538.27h0a43.28,43.28,0,0,1,43.28,43.27v1.52" transform="translate(-4318.43 -2137.7)"/><path class="cls-2" d="M6474.88,2538.78h0a43.28,43.28,0,0,0-43.27,43.28v1.51" transform="translate(-4318.43 -2137.7)"/><path class="cls-2" d="M6531.43,2670.74h0a43.28,43.28,0,0,0-43.28-43.27h-1.51" transform="translate(-4318.43 -2137.7)"/><path class="cls-1" d="M6475.21,2627.47h0a43.27,43.27,0,0,0-43.27,43.27v1.52" transform="translate(-4318.43 -2137.7)"/><path class="cls-3" d="M6467.17,2746.33h0a43.28,43.28,0,0,0-43.27-43.28h-1.52" transform="translate(-4318.43 -2137.7)"/><path class="cls-2" d="M6540.92,2702.3h0a43.28,43.28,0,0,0-43.28,43.27v1.51" transform="translate(-4318.43 -2137.7)"/><path class="cls-3" d="M6354.08,2618.07h0a43.27,43.27,0,0,0,43.27,43.27h1.51" transform="translate(-4318.43 -2137.7)"/><path class="cls-2" d="M6281.33,2662.1h0a43.28,43.28,0,0,0,43.28-43.27v-1.52" transform="translate(-4318.43 -2137.7)"/><path class="cls-2" d="M6336.6,2700.58h0a43.28,43.28,0,0,0-43.28,43.28v1.51" transform="translate(-4318.43 -2137.7)"/><path class="cls-2" d="M6344.5,2701.09h0a43.28,43.28,0,0,1,43.28,43.28v1.51" transform="translate(-4318.43 -2137.7)"/><path class="cls-2" d="M6250.83,2668.93h0a43.28,43.28,0,0,0-43.27-43.28h-1.51" transform="translate(-4318.43 -2137.7)"/><path class="cls-2" d="M6194.62,2625.65h0a43.28,43.28,0,0,0-43.27,43.28v1.51" transform="translate(-4318.43 -2137.7)"/><path class="cls-2" d="M6186.58,2744.51h0a43.28,43.28,0,0,0-43.28-43.27h-1.51" transform="translate(-4318.43 -2137.7)"/><path class="cls-1" d="M6260.32,2700.48h0a43.28,43.28,0,0,0-43.27,43.28v1.51" transform="translate(-4318.43 -2137.7)"/><path class="cls-1" d="M6073.48,2616.26h0a43.28,43.28,0,0,0,43.28,43.27h1.51" transform="translate(-4318.43 -2137.7)"/><path class="cls-2" d="M6000.74,2660.29h0A43.28,43.28,0,0,0,6044,2617v-1.51" transform="translate(-4318.43 -2137.7)"/><path class="cls-3" d="M6056,2698.77h0a43.27,43.27,0,0,0-43.27,43.27v1.51" transform="translate(-4318.43 -2137.7)"/><path class="cls-2" d="M6063.91,2699.28h0a43.28,43.28,0,0,1,43.28,43.27v1.52" transform="translate(-4318.43 -2137.7)"/><path class="cls-1" d="M6572,2206.46h0a43.28,43.28,0,0,1,43.28-43.27h1.51" transform="translate(-4318.43 -2137.7)"/><path class="cls-2" d="M6628.17,2163.19h0a43.28,43.28,0,0,1,43.28,43.27V2208" transform="translate(-4318.43 -2137.7)"/><path class="cls-2" d="M6636.22,2282.05h0a43.28,43.28,0,0,1,43.27-43.28H6681" transform="translate(-4318.43 -2137.7)"/><path class="cls-3" d="M6562.47,2238h0a43.28,43.28,0,0,1,43.28,43.27v1.51" transform="translate(-4318.43 -2137.7)"/><path class="cls-2" d="M6749.31,2153.79h0a43.27,43.27,0,0,1-43.28,43.27h-1.51" transform="translate(-4318.43 -2137.7)"/><path class="cls-3" d="M6822.06,2197.82h0a43.28,43.28,0,0,1-43.28-43.28V2153" transform="translate(-4318.43 -2137.7)"/><path class="cls-2" d="M6766.79,2236.3h0a43.28,43.28,0,0,1,43.27,43.28v1.51" transform="translate(-4318.43 -2137.7)"/><path class="cls-1" d="M6758.88,2236.81h0a43.28,43.28,0,0,0-43.27,43.28v1.51" transform="translate(-4318.43 -2137.7)"/><path class="cls-2" d="M6852.55,2204.65h0a43.28,43.28,0,0,1,43.28-43.28h1.51" transform="translate(-4318.43 -2137.7)"/><path class="cls-2" d="M6908.77,2161.37h0a43.28,43.28,0,0,1,43.27,43.28v1.51" transform="translate(-4318.43 -2137.7)"/><path class="cls-3" d="M6916.81,2280.23h0a43.27,43.27,0,0,1,43.27-43.27h1.52" transform="translate(-4318.43 -2137.7)"/><path class="cls-2" d="M6843.06,2236.2h0a43.28,43.28,0,0,1,43.28,43.28V2281" transform="translate(-4318.43 -2137.7)"/><path class="cls-2" d="M7029.9,2152h0a43.27,43.27,0,0,1-43.27,43.27h-1.51" transform="translate(-4318.43 -2137.7)"/><path class="cls-1" d="M7102.65,2196h0a43.28,43.28,0,0,1-43.28-43.28v-1.51" transform="translate(-4318.43 -2137.7)"/><path class="cls-2" d="M7047.38,2234.49h0a43.28,43.28,0,0,1,43.28,43.27v1.51" transform="translate(-4318.43 -2137.7)"/><path class="cls-2" d="M7039.48,2235h0a43.28,43.28,0,0,0-43.28,43.27v1.52" transform="translate(-4318.43 -2137.7)"/><path class="cls-2" d="M7096,2367h0a43.28,43.28,0,0,0-43.28-43.27h-1.51" transform="translate(-4318.43 -2137.7)"/><path class="cls-1" d="M7039.81,2323.69h0a43.28,43.28,0,0,0-43.28,43.27v1.51" transform="translate(-4318.43 -2137.7)"/><path class="cls-3" d="M7031.76,2442.55h0a43.28,43.28,0,0,0-43.27-43.28H6987" transform="translate(-4318.43 -2137.7)"/><path class="cls-2" d="M7105.51,2398.52h0a43.28,43.28,0,0,0-43.28,43.27v1.51" transform="translate(-4318.43 -2137.7)"/><path class="cls-3" d="M6918.67,2314.29h0a43.27,43.27,0,0,0,43.27,43.27h1.52" transform="translate(-4318.43 -2137.7)"/><path class="cls-2" d="M6845.92,2358.32h0A43.28,43.28,0,0,0,6889.2,2315v-1.51" transform="translate(-4318.43 -2137.7)"/><path class="cls-2" d="M6901.19,2396.8h0a43.28,43.28,0,0,0-43.28,43.28v1.51" transform="translate(-4318.43 -2137.7)"/><path class="cls-2" d="M6909.1,2397.31h0a43.28,43.28,0,0,1,43.27,43.28v1.51" transform="translate(-4318.43 -2137.7)"/><path class="cls-2" d="M6815.43,2365.15h0a43.28,43.28,0,0,0-43.28-43.28h-1.51" transform="translate(-4318.43 -2137.7)"/><path class="cls-2" d="M6759.21,2321.87h0a43.28,43.28,0,0,0-43.27,43.28v1.51" transform="translate(-4318.43 -2137.7)"/><path class="cls-2" d="M6751.17,2440.73h0a43.27,43.27,0,0,0-43.27-43.27h-1.52" transform="translate(-4318.43 -2137.7)"/><path class="cls-1" d="M6824.92,2396.7h0a43.28,43.28,0,0,0-43.28,43.28v1.51" transform="translate(-4318.43 -2137.7)"/><path class="cls-1" d="M6638.08,2312.47h0a43.28,43.28,0,0,0,43.27,43.28h1.51" transform="translate(-4318.43 -2137.7)"/><path class="cls-2" d="M6565.33,2356.51h0a43.28,43.28,0,0,0,43.28-43.28v-1.51" transform="translate(-4318.43 -2137.7)"/><path class="cls-3" d="M6620.6,2395h0a43.28,43.28,0,0,0-43.28,43.27v1.51" transform="translate(-4318.43 -2137.7)"/><path class="cls-2" d="M6628.5,2395.5h0a43.28,43.28,0,0,1,43.28,43.27v1.51" transform="translate(-4318.43 -2137.7)"/><path class="cls-1" d="M7133,2202.93h0a43.28,43.28,0,0,1,43.28-43.27h1.51" transform="translate(-4318.43 -2137.7)"/><path class="cls-2" d="M7189.23,2159.66h0a43.28,43.28,0,0,1,43.28,43.27v1.52" transform="translate(-4318.43 -2137.7)"/><path class="cls-2" d="M7197.28,2278.52h0a43.28,43.28,0,0,1,43.27-43.28h1.51" transform="translate(-4318.43 -2137.7)"/><path class="cls-3" d="M7123.53,2234.49h0a43.28,43.28,0,0,1,43.28,43.27v1.51" transform="translate(-4318.43 -2137.7)"/><path class="cls-2" d="M7310.37,2150.26h0a43.27,43.27,0,0,1-43.28,43.27h-1.51" transform="translate(-4318.43 -2137.7)"/><path class="cls-3" d="M7383.12,2194.29h0a43.28,43.28,0,0,1-43.28-43.27v-1.52" transform="translate(-4318.43 -2137.7)"/><path class="cls-2" d="M7327.85,2232.77h0a43.28,43.28,0,0,1,43.27,43.28v1.51" transform="translate(-4318.43 -2137.7)"/><path class="cls-1" d="M7319.94,2233.28h0a43.28,43.28,0,0,0-43.27,43.28v1.51" transform="translate(-4318.43 -2137.7)"/><path class="cls-2" d="M7413.61,2201.12h0a43.28,43.28,0,0,1,43.28-43.28h1.51" transform="translate(-4318.43 -2137.7)"/><path class="cls-2" d="M7469.83,2157.84h0a43.28,43.28,0,0,1,43.27,43.28v1.51" transform="translate(-4318.43 -2137.7)"/><path class="cls-3" d="M7477.87,2276.7h0a43.27,43.27,0,0,1,43.27-43.27h1.52" transform="translate(-4318.43 -2137.7)"/><path class="cls-2" d="M7404.12,2232.67h0A43.28,43.28,0,0,1,7447.4,2276v1.51" transform="translate(-4318.43 -2137.7)"/><path class="cls-2" d="M7591,2148.45h0a43.27,43.27,0,0,1-43.27,43.27h-1.51" transform="translate(-4318.43 -2137.7)"/><path class="cls-1" d="M7663.71,2192.48h0a43.28,43.28,0,0,1-43.28-43.28v-1.51" transform="translate(-4318.43 -2137.7)"/><path class="cls-2" d="M7608.44,2231h0a43.28,43.28,0,0,1,43.28,43.27v1.51" transform="translate(-4318.43 -2137.7)"/><path class="cls-2" d="M7600.54,2231.47h0a43.28,43.28,0,0,0-43.28,43.27v1.52" transform="translate(-4318.43 -2137.7)"/><path class="cls-2" d="M7657.08,2363.43h0a43.28,43.28,0,0,0-43.28-43.27h-1.51" transform="translate(-4318.43 -2137.7)"/><path class="cls-1" d="M7600.87,2320.16h0a43.27,43.27,0,0,0-43.28,43.27v1.51" transform="translate(-4318.43 -2137.7)"/><path class="cls-3" d="M7592.82,2439h0a43.28,43.28,0,0,0-43.27-43.28H7548" transform="translate(-4318.43 -2137.7)"/><path class="cls-2" d="M7666.57,2395h0a43.28,43.28,0,0,0-43.28,43.27v1.51" transform="translate(-4318.43 -2137.7)"/><path class="cls-3" d="M7479.73,2310.76h0A43.27,43.27,0,0,0,7523,2354h1.52" transform="translate(-4318.43 -2137.7)"/><path class="cls-2" d="M7407,2354.79h0a43.28,43.28,0,0,0,43.28-43.28V2310" transform="translate(-4318.43 -2137.7)"/><path class="cls-2" d="M7462.25,2393.27h0a43.28,43.28,0,0,0-43.28,43.28v1.51" transform="translate(-4318.43 -2137.7)"/><path class="cls-2" d="M7470.16,2393.78h0a43.28,43.28,0,0,1,43.27,43.28v1.51" transform="translate(-4318.43 -2137.7)"/><path class="cls-2" d="M7376.49,2361.62h0a43.28,43.28,0,0,0-43.28-43.28h-1.51" transform="translate(-4318.43 -2137.7)"/><path class="cls-2" d="M7320.27,2318.34h0a43.28,43.28,0,0,0-43.27,43.28v1.51" transform="translate(-4318.43 -2137.7)"/><path class="cls-2" d="M7312.23,2437.2h0a43.27,43.27,0,0,0-43.27-43.27h-1.52" transform="translate(-4318.43 -2137.7)"/><path class="cls-1" d="M7386,2393.17h0a43.28,43.28,0,0,0-43.28,43.28V2438" transform="translate(-4318.43 -2137.7)"/><path class="cls-1" d="M7199.14,2308.94h0a43.28,43.28,0,0,0,43.27,43.28h1.51" transform="translate(-4318.43 -2137.7)"/><path class="cls-2" d="M7126.39,2353h0a43.28,43.28,0,0,0,43.28-43.28v-1.51" transform="translate(-4318.43 -2137.7)"/><path class="cls-3" d="M7181.66,2391.46h0a43.28,43.28,0,0,0-43.28,43.27v1.51" transform="translate(-4318.43 -2137.7)"/><path class="cls-2" d="M7189.56,2392h0a43.28,43.28,0,0,1,43.28,43.27v1.52" transform="translate(-4318.43 -2137.7)"/><path class="cls-1" d="M6572,2515.77h0a43.28,43.28,0,0,1,43.28-43.27h1.51" transform="translate(-4318.43 -2137.7)"/><path class="cls-2" d="M6628.17,2472.5h0a43.28,43.28,0,0,1,43.28,43.27v1.52" transform="translate(-4318.43 -2137.7)"/><path class="cls-2" d="M6636.22,2591.36h0a43.28,43.28,0,0,1,43.27-43.28H6681" transform="translate(-4318.43 -2137.7)"/><path class="cls-3" d="M6562.47,2547.33h0a43.28,43.28,0,0,1,43.28,43.27v1.52" transform="translate(-4318.43 -2137.7)"/><path class="cls-2" d="M6749.31,2463.1h0a43.28,43.28,0,0,1-43.28,43.28h-1.51" transform="translate(-4318.43 -2137.7)"/><path class="cls-3" d="M6822.06,2507.13h0a43.28,43.28,0,0,1-43.28-43.27v-1.52" transform="translate(-4318.43 -2137.7)"/><path class="cls-2" d="M6766.79,2545.61h0a43.28,43.28,0,0,1,43.27,43.28v1.51" transform="translate(-4318.43 -2137.7)"/><path class="cls-1" d="M6758.88,2546.12h0a43.28,43.28,0,0,0-43.27,43.28v1.51" transform="translate(-4318.43 -2137.7)"/><path class="cls-2" d="M6852.55,2514h0a43.28,43.28,0,0,1,43.28-43.27h1.51" transform="translate(-4318.43 -2137.7)"/><path class="cls-2" d="M6908.77,2470.69h0A43.27,43.27,0,0,1,6952,2514v1.51" transform="translate(-4318.43 -2137.7)"/><path class="cls-3" d="M6916.81,2589.55h0a43.28,43.28,0,0,1,43.27-43.28h1.52" transform="translate(-4318.43 -2137.7)"/><path class="cls-2" d="M6843.06,2545.51h0a43.28,43.28,0,0,1,43.28,43.28v1.51" transform="translate(-4318.43 -2137.7)"/><path class="cls-2" d="M7029.9,2461.29h0a43.27,43.27,0,0,1-43.27,43.27h-1.51" transform="translate(-4318.43 -2137.7)"/><path class="cls-1" d="M7102.65,2505.32h0a43.28,43.28,0,0,1-43.28-43.28v-1.51" transform="translate(-4318.43 -2137.7)"/><path class="cls-2" d="M7047.38,2543.8h0a43.28,43.28,0,0,1,43.28,43.27v1.52" transform="translate(-4318.43 -2137.7)"/><path class="cls-2" d="M7039.48,2544.31h0a43.28,43.28,0,0,0-43.28,43.28v1.51" transform="translate(-4318.43 -2137.7)"/><path class="cls-2" d="M7096,2676.27h0a43.28,43.28,0,0,0-43.28-43.27h-1.51" transform="translate(-4318.43 -2137.7)"/><path class="cls-1" d="M7039.81,2633h0a43.28,43.28,0,0,0-43.28,43.27v1.51" transform="translate(-4318.43 -2137.7)"/><path class="cls-3" d="M7031.76,2750.61h0a43.27,43.27,0,0,0-43.27-43.27H6987" transform="translate(-4318.43 -2137.7)"/><path class="cls-2" d="M7105.51,2705.83h0a43.28,43.28,0,0,0-43.28,43.27v1.51" transform="translate(-4318.43 -2137.7)"/><path class="cls-3" d="M6918.67,2623.6h0a43.27,43.27,0,0,0,43.27,43.27h1.52" transform="translate(-4318.43 -2137.7)"/><path class="cls-2" d="M6845.92,2667.63h0a43.28,43.28,0,0,0,43.28-43.28v-1.51" transform="translate(-4318.43 -2137.7)"/><path class="cls-2" d="M6901.19,2705.83h0a43.28,43.28,0,0,0-43.28,43.27v1.51" transform="translate(-4318.43 -2137.7)"/><path class="cls-2" d="M6909.1,2705.83h0a43.27,43.27,0,0,1,43.27,43.27v1.51" transform="translate(-4318.43 -2137.7)"/><path class="cls-2" d="M6815.43,2674.46h0a43.28,43.28,0,0,0-43.28-43.28h-1.51" transform="translate(-4318.43 -2137.7)"/><path class="cls-2" d="M6759.21,2631.18h0a43.28,43.28,0,0,0-43.27,43.28V2676" transform="translate(-4318.43 -2137.7)"/><path class="cls-2" d="M6751.17,2750.61h0a43.27,43.27,0,0,0-43.27-43.27h-1.52" transform="translate(-4318.43 -2137.7)"/><path class="cls-1" d="M6824.92,2705.83h0a43.28,43.28,0,0,0-43.28,43.27v1.51" transform="translate(-4318.43 -2137.7)"/><path class="cls-1" d="M6638.08,2621.79h0a43.27,43.27,0,0,0,43.27,43.27h1.51" transform="translate(-4318.43 -2137.7)"/><path class="cls-2" d="M6565.33,2665.82h0a43.28,43.28,0,0,0,43.28-43.28V2621" transform="translate(-4318.43 -2137.7)"/><path class="cls-3" d="M6620.6,2705.83h0a43.28,43.28,0,0,0-43.28,43.27v1.51" transform="translate(-4318.43 -2137.7)"/><path class="cls-2" d="M6628.5,2705.83h0a43.28,43.28,0,0,1,43.28,43.27v1.51" transform="translate(-4318.43 -2137.7)"/><path class="cls-1" d="M7133,2512.24h0A43.28,43.28,0,0,1,7176.3,2469h1.51" transform="translate(-4318.43 -2137.7)"/><path class="cls-2" d="M7189.23,2469h0a43.28,43.28,0,0,1,43.28,43.27v1.52" transform="translate(-4318.43 -2137.7)"/><path class="cls-2" d="M7197.28,2587.83h0a43.28,43.28,0,0,1,43.27-43.28h1.51" transform="translate(-4318.43 -2137.7)"/><path class="cls-3" d="M7123.53,2543.8h0a43.28,43.28,0,0,1,43.28,43.27v1.52" transform="translate(-4318.43 -2137.7)"/><path class="cls-2" d="M7310.37,2459.57h0a43.28,43.28,0,0,1-43.28,43.28h-1.51" transform="translate(-4318.43 -2137.7)"/><path class="cls-3" d="M7383.12,2503.6h0a43.28,43.28,0,0,1-43.28-43.27v-1.52" transform="translate(-4318.43 -2137.7)"/><path class="cls-2" d="M7327.85,2542.08h0a43.28,43.28,0,0,1,43.27,43.28v1.51" transform="translate(-4318.43 -2137.7)"/><path class="cls-1" d="M7319.94,2542.59h0a43.28,43.28,0,0,0-43.27,43.28v1.51" transform="translate(-4318.43 -2137.7)"/><path class="cls-2" d="M7413.61,2510.43h0a43.28,43.28,0,0,1,43.28-43.27h1.51" transform="translate(-4318.43 -2137.7)"/><path class="cls-2" d="M7469.83,2467.16h0a43.27,43.27,0,0,1,43.27,43.27v1.51" transform="translate(-4318.43 -2137.7)"/><path class="cls-3" d="M7477.87,2586h0a43.28,43.28,0,0,1,43.27-43.28h1.52" transform="translate(-4318.43 -2137.7)"/><path class="cls-2" d="M7404.12,2542h0a43.28,43.28,0,0,1,43.28,43.28v1.51" transform="translate(-4318.43 -2137.7)"/><path class="cls-2" d="M7591,2457.76h0a43.27,43.27,0,0,1-43.27,43.27h-1.51" transform="translate(-4318.43 -2137.7)"/><path class="cls-1" d="M7663.71,2501.79h0a43.28,43.28,0,0,1-43.28-43.28V2457" transform="translate(-4318.43 -2137.7)"/><path class="cls-2" d="M7608.44,2540.27h0a43.28,43.28,0,0,1,43.28,43.27v1.52" transform="translate(-4318.43 -2137.7)"/><path class="cls-2" d="M7600.54,2540.78h0a43.28,43.28,0,0,0-43.28,43.28v1.51" transform="translate(-4318.43 -2137.7)"/><path class="cls-2" d="M7657.08,2672.74h0a43.28,43.28,0,0,0-43.28-43.27h-1.51" transform="translate(-4318.43 -2137.7)"/><path class="cls-1" d="M7600.87,2629.47h0a43.27,43.27,0,0,0-43.28,43.27v1.52" transform="translate(-4318.43 -2137.7)"/><path class="cls-3" d="M7592.82,2750.61h0a43.27,43.27,0,0,0-43.27-43.27H7548" transform="translate(-4318.43 -2137.7)"/><path class="cls-2" d="M7666.57,2705.83h0a43.28,43.28,0,0,0-43.28,43.27v1.51" transform="translate(-4318.43 -2137.7)"/><path class="cls-3" d="M7479.73,2620.07h0a43.27,43.27,0,0,0,43.27,43.27h1.52" transform="translate(-4318.43 -2137.7)"/><path class="cls-2" d="M7407,2664.1h0a43.28,43.28,0,0,0,43.28-43.27v-1.52" transform="translate(-4318.43 -2137.7)"/><path class="cls-2" d="M7462.25,2705.83h0A43.28,43.28,0,0,0,7419,2749.1v1.51" transform="translate(-4318.43 -2137.7)"/><path class="cls-2" d="M7470.16,2705.83h0a43.27,43.27,0,0,1,43.27,43.27v1.51" transform="translate(-4318.43 -2137.7)"/><path class="cls-2" d="M7376.49,2670.93h0a43.28,43.28,0,0,0-43.28-43.28h-1.51" transform="translate(-4318.43 -2137.7)"/><path class="cls-2" d="M7320.27,2627.65h0a43.28,43.28,0,0,0-43.27,43.28v1.51" transform="translate(-4318.43 -2137.7)"/><path class="cls-2" d="M7312.23,2750.61h0a43.27,43.27,0,0,0-43.27-43.27h-1.52" transform="translate(-4318.43 -2137.7)"/><path class="cls-1" d="M7386,2705.83h0a43.28,43.28,0,0,0-43.28,43.27v1.51" transform="translate(-4318.43 -2137.7)"/><path class="cls-1" d="M7199.14,2618.26h0a43.27,43.27,0,0,0,43.27,43.27h1.51" transform="translate(-4318.43 -2137.7)"/><path class="cls-2" d="M7126.39,2662.29h0a43.28,43.28,0,0,0,43.28-43.28v-1.51" transform="translate(-4318.43 -2137.7)"/><path class="cls-3" d="M7181.66,2705.83h0a43.28,43.28,0,0,0-43.28,43.27v1.51" transform="translate(-4318.43 -2137.7)"/><path class="cls-2" d="M7189.56,2705.83h0a43.28,43.28,0,0,1,43.28,43.27v1.51" transform="translate(-4318.43 -2137.7)"/><path class="cls-1" d="M7690.34,2204.46h0a43.27,43.27,0,0,1,43.27-43.27h1.51" transform="translate(-4318.43 -2137.7)"/><path class="cls-2" d="M7746.55,2161.19h0a43.27,43.27,0,0,1,43.27,43.27V2206" transform="translate(-4318.43 -2137.7)"/><path class="cls-2" d="M7754.59,2280.05h0a43.28,43.28,0,0,1,43.28-43.28h1.51" transform="translate(-4318.43 -2137.7)"/><path class="cls-3" d="M7680.84,2236h0a43.27,43.27,0,0,1,43.28,43.27v1.51" transform="translate(-4318.43 -2137.7)"/><path class="cls-2" d="M7867.69,2151.79h0a43.28,43.28,0,0,1-43.28,43.27h-1.51" transform="translate(-4318.43 -2137.7)"/><path class="cls-3" d="M7940.43,2195.82h0a43.27,43.27,0,0,1-43.27-43.28V2151" transform="translate(-4318.43 -2137.7)"/><path class="cls-2" d="M7885.16,2234.3h0a43.28,43.28,0,0,1,43.28,43.28v1.51" transform="translate(-4318.43 -2137.7)"/><path class="cls-1" d="M7877.26,2234.81h0a43.28,43.28,0,0,0-43.28,43.28v1.51" transform="translate(-4318.43 -2137.7)"/><path class="cls-2" d="M7970.93,2202.65h0a43.28,43.28,0,0,1,43.27-43.28h1.52" transform="translate(-4318.43 -2137.7)"/><path class="cls-2" d="M8027.14,2159.37h0a43.28,43.28,0,0,1,43.28,43.28v1.51" transform="translate(-4318.43 -2137.7)"/><path class="cls-3" d="M8035.18,2278.23h0a43.28,43.28,0,0,1,43.28-43.27H8080" transform="translate(-4318.43 -2137.7)"/><path class="cls-2" d="M7961.44,2234.2h0a43.28,43.28,0,0,1,43.27,43.28V2279" transform="translate(-4318.43 -2137.7)"/><path class="cls-2" d="M8148.28,2150h0a43.28,43.28,0,0,1-43.28,43.27h-1.51" transform="translate(-4318.43 -2137.7)"/><path class="cls-1" d="M8221,2194h0a43.28,43.28,0,0,1-43.27-43.28v-1.51" transform="translate(-4318.43 -2137.7)"/><path class="cls-2" d="M8165.76,2232.49h0a43.27,43.27,0,0,1,43.27,43.27v1.51" transform="translate(-4318.43 -2137.7)"/><path class="cls-2" d="M8157.85,2233h0a43.27,43.27,0,0,0-43.27,43.27v1.52" transform="translate(-4318.43 -2137.7)"/><path class="cls-2" d="M8214.39,2365h0a43.27,43.27,0,0,0-43.27-43.27h-1.51" transform="translate(-4318.43 -2137.7)"/><path class="cls-1" d="M8158.18,2321.69h0A43.28,43.28,0,0,0,8114.9,2365v1.51" transform="translate(-4318.43 -2137.7)"/><path class="cls-3" d="M8150.14,2440.55h0a43.28,43.28,0,0,0-43.28-43.28h-1.51" transform="translate(-4318.43 -2137.7)"/><path class="cls-2" d="M8223.88,2396.52h0a43.27,43.27,0,0,0-43.27,43.27v1.51" transform="translate(-4318.43 -2137.7)"/><path class="cls-3" d="M8037,2312.29h0a43.28,43.28,0,0,0,43.28,43.27h1.51" transform="translate(-4318.43 -2137.7)"/><path class="cls-2" d="M7964.3,2356.32h0a43.28,43.28,0,0,0,43.27-43.28v-1.51" transform="translate(-4318.43 -2137.7)"/><path class="cls-2" d="M8019.56,2394.8h0a43.27,43.27,0,0,0-43.27,43.28v1.51" transform="translate(-4318.43 -2137.7)"/><path class="cls-2" d="M8027.47,2395.31h0a43.28,43.28,0,0,1,43.28,43.28v1.51" transform="translate(-4318.43 -2137.7)"/><path class="cls-2" d="M7933.8,2363.15h0a43.28,43.28,0,0,0-43.28-43.28H7889" transform="translate(-4318.43 -2137.7)"/><path class="cls-2" d="M7877.59,2319.87h0a43.28,43.28,0,0,0-43.28,43.28v1.51" transform="translate(-4318.43 -2137.7)"/><path class="cls-2" d="M7869.55,2438.73h0a43.28,43.28,0,0,0-43.28-43.27h-1.51" transform="translate(-4318.43 -2137.7)"/><path class="cls-1" d="M7943.29,2394.7h0A43.28,43.28,0,0,0,7900,2438v1.51" transform="translate(-4318.43 -2137.7)"/><path class="cls-1" d="M7756.45,2310.47h0a43.28,43.28,0,0,0,43.28,43.28h1.51" transform="translate(-4318.43 -2137.7)"/><path class="cls-2" d="M7683.71,2354.51h0a43.28,43.28,0,0,0,43.27-43.28v-1.51" transform="translate(-4318.43 -2137.7)"/><path class="cls-3" d="M7739,2393h0a43.27,43.27,0,0,0-43.27,43.27v1.51" transform="translate(-4318.43 -2137.7)"/><path class="cls-2" d="M7746.88,2393.5h0a43.27,43.27,0,0,1,43.27,43.27v1.51" transform="translate(-4318.43 -2137.7)"/><path class="cls-1" d="M8251.4,2200.93h0a43.27,43.27,0,0,1,43.27-43.27h1.51" transform="translate(-4318.43 -2137.7)"/><path class="cls-2" d="M8307.61,2157.66h0a43.27,43.27,0,0,1,43.27,43.27v1.52" transform="translate(-4318.43 -2137.7)"/><path class="cls-2" d="M8315.65,2276.52h0a43.28,43.28,0,0,1,43.28-43.28h1.51" transform="translate(-4318.43 -2137.7)"/><path class="cls-3" d="M8241.9,2232.49h0a43.27,43.27,0,0,1,43.28,43.27v1.51" transform="translate(-4318.43 -2137.7)"/><path class="cls-2" d="M8428.75,2148.26h0a43.28,43.28,0,0,1-43.28,43.27H8384" transform="translate(-4318.43 -2137.7)"/><path class="cls-3" d="M8501.49,2192.29h0a43.27,43.27,0,0,1-43.27-43.27v-1.52" transform="translate(-4318.43 -2137.7)"/><path class="cls-2" d="M8446.22,2230.77h0a43.28,43.28,0,0,1,43.28,43.28v1.51" transform="translate(-4318.43 -2137.7)"/><path class="cls-1" d="M8438.32,2231.28h0a43.28,43.28,0,0,0-43.28,43.28v1.51" transform="translate(-4318.43 -2137.7)"/><path class="cls-2" d="M8532,2199.12h0a43.28,43.28,0,0,1,43.27-43.28h1.52" transform="translate(-4318.43 -2137.7)"/><path class="cls-2" d="M8588.2,2155.84h0a43.28,43.28,0,0,1,43.28,43.28v1.51" transform="translate(-4318.43 -2137.7)"/><path class="cls-3" d="M8596.24,2274.7h0a43.28,43.28,0,0,1,43.28-43.27H8641" transform="translate(-4318.43 -2137.7)"/><path class="cls-2" d="M8522.5,2230.67h0a43.28,43.28,0,0,1,43.27,43.28v1.51" transform="translate(-4318.43 -2137.7)"/><path class="cls-2" d="M8709.34,2146.45h0a43.28,43.28,0,0,1-43.28,43.27h-1.51" transform="translate(-4318.43 -2137.7)"/><path class="cls-1" d="M8782.08,2190.48h0a43.28,43.28,0,0,1-43.27-43.28v-1.51" transform="translate(-4318.43 -2137.7)"/><path class="cls-2" d="M8726.82,2229h0a43.27,43.27,0,0,1,43.27,43.27v1.51" transform="translate(-4318.43 -2137.7)"/><path class="cls-2" d="M8718.91,2229.47h0a43.28,43.28,0,0,0-43.28,43.27v1.52" transform="translate(-4318.43 -2137.7)"/><path class="cls-2" d="M8775.45,2361.43h0a43.27,43.27,0,0,0-43.27-43.27h-1.51" transform="translate(-4318.43 -2137.7)"/><path class="cls-1" d="M8719.24,2318.16h0a43.28,43.28,0,0,0-43.28,43.27v1.51" transform="translate(-4318.43 -2137.7)"/><path class="cls-3" d="M8711.2,2437h0a43.28,43.28,0,0,0-43.28-43.28h-1.51" transform="translate(-4318.43 -2137.7)"/><path class="cls-2" d="M8784.94,2393h0a43.27,43.27,0,0,0-43.27,43.27v1.51" transform="translate(-4318.43 -2137.7)"/><path class="cls-3" d="M8598.1,2308.76h0a43.28,43.28,0,0,0,43.28,43.27h1.51" transform="translate(-4318.43 -2137.7)"/><path class="cls-2" d="M8525.36,2352.79h0a43.28,43.28,0,0,0,43.27-43.28V2308" transform="translate(-4318.43 -2137.7)"/><path class="cls-2" d="M8580.62,2391.27h0a43.27,43.27,0,0,0-43.27,43.28v1.51" transform="translate(-4318.43 -2137.7)"/><path class="cls-2" d="M8588.53,2391.78h0a43.28,43.28,0,0,1,43.28,43.28v1.51" transform="translate(-4318.43 -2137.7)"/><path class="cls-2" d="M8494.86,2359.62h0a43.28,43.28,0,0,0-43.28-43.28h-1.51" transform="translate(-4318.43 -2137.7)"/><path class="cls-2" d="M8438.65,2316.34h0a43.28,43.28,0,0,0-43.28,43.28v1.51" transform="translate(-4318.43 -2137.7)"/><path class="cls-2" d="M8430.61,2435.2h0a43.28,43.28,0,0,0-43.28-43.27h-1.51" transform="translate(-4318.43 -2137.7)"/><path class="cls-1" d="M8504.35,2391.17h0a43.28,43.28,0,0,0-43.27,43.28V2436" transform="translate(-4318.43 -2137.7)"/><path class="cls-1" d="M8317.51,2306.94h0a43.28,43.28,0,0,0,43.28,43.28h1.51" transform="translate(-4318.43 -2137.7)"/><path class="cls-2" d="M8244.77,2351h0A43.28,43.28,0,0,0,8288,2307.7v-1.51" transform="translate(-4318.43 -2137.7)"/><path class="cls-3" d="M8300,2389.46h0a43.27,43.27,0,0,0-43.27,43.27v1.51" transform="translate(-4318.43 -2137.7)"/><path class="cls-2" d="M8307.94,2390h0a43.27,43.27,0,0,1,43.27,43.27v1.52" transform="translate(-4318.43 -2137.7)"/><path class="cls-1" d="M7690.34,2513.77h0a43.27,43.27,0,0,1,43.27-43.27h1.51" transform="translate(-4318.43 -2137.7)"/><path class="cls-2" d="M7746.55,2470.5h0a43.27,43.27,0,0,1,43.27,43.27v1.52" transform="translate(-4318.43 -2137.7)"/><path class="cls-2" d="M7754.59,2589.36h0a43.28,43.28,0,0,1,43.28-43.28h1.51" transform="translate(-4318.43 -2137.7)"/><path class="cls-3" d="M7680.84,2545.33h0a43.27,43.27,0,0,1,43.28,43.27v1.52" transform="translate(-4318.43 -2137.7)"/><path class="cls-2" d="M7867.69,2461.1h0a43.28,43.28,0,0,1-43.28,43.28h-1.51" transform="translate(-4318.43 -2137.7)"/><path class="cls-3" d="M7940.43,2505.13h0a43.27,43.27,0,0,1-43.27-43.27v-1.52" transform="translate(-4318.43 -2137.7)"/><path class="cls-2" d="M7885.16,2543.61h0a43.28,43.28,0,0,1,43.28,43.28v1.51" transform="translate(-4318.43 -2137.7)"/><path class="cls-1" d="M7877.26,2544.12h0A43.28,43.28,0,0,0,7834,2587.4v1.51" transform="translate(-4318.43 -2137.7)"/><path class="cls-2" d="M7970.93,2512h0a43.27,43.27,0,0,1,43.27-43.27h1.52" transform="translate(-4318.43 -2137.7)"/><path class="cls-2" d="M8027.14,2468.69h0a43.28,43.28,0,0,1,43.28,43.27v1.51" transform="translate(-4318.43 -2137.7)"/><path class="cls-3" d="M8035.18,2587.55h0a43.28,43.28,0,0,1,43.28-43.28H8080" transform="translate(-4318.43 -2137.7)"/><path class="cls-2" d="M7961.44,2543.51h0a43.28,43.28,0,0,1,43.27,43.28v1.51" transform="translate(-4318.43 -2137.7)"/><path class="cls-2" d="M8148.28,2459.29h0a43.28,43.28,0,0,1-43.28,43.27h-1.51" transform="translate(-4318.43 -2137.7)"/><path class="cls-1" d="M8221,2503.32h0a43.28,43.28,0,0,1-43.27-43.28v-1.51" transform="translate(-4318.43 -2137.7)"/><path class="cls-2" d="M8165.76,2541.8h0a43.27,43.27,0,0,1,43.27,43.27v1.52" transform="translate(-4318.43 -2137.7)"/><path class="cls-2" d="M8157.85,2542.31h0a43.28,43.28,0,0,0-43.27,43.28v1.51" transform="translate(-4318.43 -2137.7)"/><path class="cls-2" d="M8214.39,2674.27h0a43.27,43.27,0,0,0-43.27-43.27h-1.51" transform="translate(-4318.43 -2137.7)"/><path class="cls-1" d="M8158.18,2631h0a43.28,43.28,0,0,0-43.28,43.27v1.51" transform="translate(-4318.43 -2137.7)"/><path class="cls-3" d="M8150.14,2749.86h0a43.28,43.28,0,0,0-43.28-43.28h-1.51" transform="translate(-4318.43 -2137.7)"/><path class="cls-2" d="M8223.88,2705.83h0a43.27,43.27,0,0,0-43.27,43.27v1.51" transform="translate(-4318.43 -2137.7)"/><path class="cls-3" d="M8037,2621.6h0a43.28,43.28,0,0,0,43.28,43.27h1.51" transform="translate(-4318.43 -2137.7)"/><path class="cls-2" d="M7964.3,2665.63h0a43.27,43.27,0,0,0,43.27-43.28v-1.51" transform="translate(-4318.43 -2137.7)"/><path class="cls-2" d="M8019.56,2704.11h0a43.28,43.28,0,0,0-43.27,43.28v1.51" transform="translate(-4318.43 -2137.7)"/><path class="cls-2" d="M8027.47,2704.62h0a43.28,43.28,0,0,1,43.28,43.28v1.51" transform="translate(-4318.43 -2137.7)"/><path class="cls-2" d="M7933.8,2672.46h0a43.28,43.28,0,0,0-43.28-43.28H7889" transform="translate(-4318.43 -2137.7)"/><path class="cls-2" d="M7877.59,2629.18h0a43.28,43.28,0,0,0-43.28,43.28V2674" transform="translate(-4318.43 -2137.7)"/><path class="cls-2" d="M7869.55,2748h0a43.28,43.28,0,0,0-43.28-43.27h-1.51" transform="translate(-4318.43 -2137.7)"/><path class="cls-1" d="M7943.29,2704h0a43.28,43.28,0,0,0-43.27,43.28v1.51" transform="translate(-4318.43 -2137.7)"/><path class="cls-1" d="M7756.45,2619.79h0a43.28,43.28,0,0,0,43.28,43.27h1.51" transform="translate(-4318.43 -2137.7)"/><path class="cls-2" d="M7683.71,2663.82h0a43.28,43.28,0,0,0,43.27-43.28V2619" transform="translate(-4318.43 -2137.7)"/><path class="cls-3" d="M7739,2702.3h0a43.27,43.27,0,0,0-43.27,43.27v1.51" transform="translate(-4318.43 -2137.7)"/><path class="cls-2" d="M7746.88,2702.81h0a43.27,43.27,0,0,1,43.27,43.27v1.52" transform="translate(-4318.43 -2137.7)"/><path class="cls-1" d="M8251.4,2510.24h0a43.27,43.27,0,0,1,43.27-43.27h1.51" transform="translate(-4318.43 -2137.7)"/><path class="cls-2" d="M8307.61,2467h0a43.27,43.27,0,0,1,43.27,43.27v1.52" transform="translate(-4318.43 -2137.7)"/><path class="cls-2" d="M8315.65,2585.83h0a43.28,43.28,0,0,1,43.28-43.28h1.51" transform="translate(-4318.43 -2137.7)"/><path class="cls-3" d="M8241.9,2541.8h0a43.27,43.27,0,0,1,43.28,43.27v1.52" transform="translate(-4318.43 -2137.7)"/><path class="cls-2" d="M8428.75,2457.57h0a43.28,43.28,0,0,1-43.28,43.28H8384" transform="translate(-4318.43 -2137.7)"/><path class="cls-3" d="M8501.49,2501.6h0a43.27,43.27,0,0,1-43.27-43.27v-1.52" transform="translate(-4318.43 -2137.7)"/><path class="cls-2" d="M8446.22,2540.08h0a43.28,43.28,0,0,1,43.28,43.28v1.51" transform="translate(-4318.43 -2137.7)"/><path class="cls-1" d="M8438.32,2540.59h0a43.28,43.28,0,0,0-43.28,43.28v1.51" transform="translate(-4318.43 -2137.7)"/><path class="cls-2" d="M8532,2508.43h0a43.27,43.27,0,0,1,43.27-43.27h1.52" transform="translate(-4318.43 -2137.7)"/><path class="cls-2" d="M8588.2,2465.16h0a43.28,43.28,0,0,1,43.28,43.27v1.51" transform="translate(-4318.43 -2137.7)"/><path class="cls-3" d="M8596.24,2584h0a43.28,43.28,0,0,1,43.28-43.28H8641" transform="translate(-4318.43 -2137.7)"/><path class="cls-2" d="M8522.5,2540h0a43.28,43.28,0,0,1,43.27,43.28v1.51" transform="translate(-4318.43 -2137.7)"/><path class="cls-2" d="M8709.34,2455.76h0a43.28,43.28,0,0,1-43.28,43.27h-1.51" transform="translate(-4318.43 -2137.7)"/><path class="cls-1" d="M8782.08,2499.79h0a43.28,43.28,0,0,1-43.27-43.28V2455" transform="translate(-4318.43 -2137.7)"/><path class="cls-2" d="M8726.82,2538.27h0a43.27,43.27,0,0,1,43.27,43.27v1.52" transform="translate(-4318.43 -2137.7)"/><path class="cls-2" d="M8718.91,2538.78h0a43.28,43.28,0,0,0-43.28,43.28v1.51" transform="translate(-4318.43 -2137.7)"/><path class="cls-2" d="M8775.45,2670.74h0a43.27,43.27,0,0,0-43.27-43.27h-1.51" transform="translate(-4318.43 -2137.7)"/><path class="cls-1" d="M8719.24,2627.47h0a43.28,43.28,0,0,0-43.28,43.27v1.52" transform="translate(-4318.43 -2137.7)"/><path class="cls-3" d="M8711.2,2746.33h0a43.28,43.28,0,0,0-43.28-43.28h-1.51" transform="translate(-4318.43 -2137.7)"/><path class="cls-2" d="M8784.94,2702.3h0a43.27,43.27,0,0,0-43.27,43.27v1.51" transform="translate(-4318.43 -2137.7)"/><path class="cls-3" d="M8598.1,2618.07h0a43.28,43.28,0,0,0,43.28,43.27h1.51" transform="translate(-4318.43 -2137.7)"/><path class="cls-2" d="M8525.36,2662.1h0a43.27,43.27,0,0,0,43.27-43.27v-1.52" transform="translate(-4318.43 -2137.7)"/><path class="cls-2" d="M8580.62,2700.58h0a43.28,43.28,0,0,0-43.27,43.28v1.51" transform="translate(-4318.43 -2137.7)"/><path class="cls-2" d="M8588.53,2701.09h0a43.28,43.28,0,0,1,43.28,43.28v1.51" transform="translate(-4318.43 -2137.7)"/><path class="cls-2" d="M8494.86,2668.93h0a43.28,43.28,0,0,0-43.28-43.28h-1.51" transform="translate(-4318.43 -2137.7)"/><path class="cls-2" d="M8438.65,2625.65h0a43.28,43.28,0,0,0-43.28,43.28v1.51" transform="translate(-4318.43 -2137.7)"/><path class="cls-2" d="M8430.61,2744.51h0a43.28,43.28,0,0,0-43.28-43.27h-1.51" transform="translate(-4318.43 -2137.7)"/><path class="cls-1" d="M8504.35,2700.48h0a43.28,43.28,0,0,0-43.27,43.28v1.51" transform="translate(-4318.43 -2137.7)"/><path class="cls-1" d="M8317.51,2616.26h0a43.28,43.28,0,0,0,43.28,43.27h1.51" transform="translate(-4318.43 -2137.7)"/><path class="cls-2" d="M8244.77,2660.29h0A43.28,43.28,0,0,0,8288,2617v-1.51" transform="translate(-4318.43 -2137.7)"/><path class="cls-3" d="M8300,2698.77h0a43.27,43.27,0,0,0-43.27,43.27v1.51" transform="translate(-4318.43 -2137.7)"/><path class="cls-2" d="M8307.94,2699.28h0a43.27,43.27,0,0,1,43.27,43.27v1.52" transform="translate(-4318.43 -2137.7)"/></g></g></svg>