<svg xmlns="http://www.w3.org/2000/svg" viewBox="0 0 4465.01 620.9"><defs><style>.cls-1,.cls-2,.cls-3{fill:none;stroke-miterlimit:10;stroke-width:19px;}.cls-1{stroke:#007737;}.cls-2{stroke:#d1d84c;}.cls-3{stroke:#fffbf7;}</style></defs><g id="Camada_2" data-name="Camada 2"><g id="Camada_1-2" data-name="Camada 1"><path class="cls-1" d="M4311.31,3003.46h0a43.28,43.28,0,0,1,43.27-43.28h1.51" transform="translate(-4301.81 -2934.7)"/><path class="cls-2" d="M4367.52,2960.18h0a43.28,43.28,0,0,1,43.27,43.28V3005" transform="translate(-4301.81 -2934.7)"/><path class="cls-2" d="M4375.56,3079h0a43.27,43.27,0,0,1,43.28-43.27h1.51" transform="translate(-4301.81 -2934.7)"/><path class="cls-3" d="M4301.81,3035h0a43.28,43.28,0,0,1,43.28,43.28v1.51" transform="translate(-4301.81 -2934.7)"/><path class="cls-2" d="M4488.65,2950.78h0a43.28,43.28,0,0,1-43.27,43.28h-1.51" transform="translate(-4301.81 -2934.7)"/><path class="cls-3" d="M4561.4,2994.81h0a43.28,43.28,0,0,1-43.28-43.27V2950" transform="translate(-4301.81 -2934.7)"/><path class="cls-2" d="M4506.13,3033.3h0a43.28,43.28,0,0,1,43.28,43.27v1.51" transform="translate(-4301.81 -2934.7)"/><path class="cls-1" d="M4498.23,3033.81h0a43.28,43.28,0,0,0-43.28,43.27v1.51" transform="translate(-4301.81 -2934.7)"/><path class="cls-2" d="M4591.9,3001.64h0a43.27,43.27,0,0,1,43.27-43.27h1.52" transform="translate(-4301.81 -2934.7)"/><path class="cls-2" d="M4648.11,2958.37h0a43.28,43.28,0,0,1,43.28,43.27v1.52" transform="translate(-4301.81 -2934.7)"/><path class="cls-3" d="M4656.15,3077.23h0a43.28,43.28,0,0,1,43.28-43.28h1.51" transform="translate(-4301.81 -2934.7)"/><path class="cls-2" d="M4582.41,3033.2h0a43.27,43.27,0,0,1,43.27,43.27V3078" transform="translate(-4301.81 -2934.7)"/><path class="cls-2" d="M4769.25,2949h0a43.28,43.28,0,0,1-43.28,43.28h-1.51" transform="translate(-4301.81 -2934.7)"/><path class="cls-1" d="M4842,2993h0a43.27,43.27,0,0,1-43.27-43.27v-1.52" transform="translate(-4301.81 -2934.7)"/><path class="cls-2" d="M4786.73,3031.48h0a43.28,43.28,0,0,1,43.27,43.28v1.51" transform="translate(-4301.81 -2934.7)"/><path class="cls-2" d="M4778.82,3032h0a43.28,43.28,0,0,0-43.28,43.28v1.51" transform="translate(-4301.81 -2934.7)"/><path class="cls-2" d="M4835.36,3164h0a43.28,43.28,0,0,0-43.27-43.28h-1.51" transform="translate(-4301.81 -2934.7)"/><path class="cls-1" d="M4779.15,3120.68h0a43.28,43.28,0,0,0-43.28,43.28v1.51" transform="translate(-4301.81 -2934.7)"/><path class="cls-3" d="M4771.11,3239.54h0a43.28,43.28,0,0,0-43.28-43.27h-1.51" transform="translate(-4301.81 -2934.7)"/><path class="cls-2" d="M4844.85,3195.51h0a43.27,43.27,0,0,0-43.27,43.28v1.51" transform="translate(-4301.81 -2934.7)"/><path class="cls-3" d="M4658,3111.28h0a43.28,43.28,0,0,0,43.28,43.28h1.51" transform="translate(-4301.81 -2934.7)"/><path class="cls-2" d="M4585.27,3155.31h0a43.27,43.27,0,0,0,43.27-43.27v-1.51" transform="translate(-4301.81 -2934.7)"/><path class="cls-2" d="M4640.53,3193.79h0a43.28,43.28,0,0,0-43.27,43.28v1.51" transform="translate(-4301.81 -2934.7)"/><path class="cls-2" d="M4648.44,3194.31h0a43.28,43.28,0,0,1,43.28,43.27v1.51" transform="translate(-4301.81 -2934.7)"/><path class="cls-2" d="M4554.77,3162.14h0a43.28,43.28,0,0,0-43.28-43.27H4510" transform="translate(-4301.81 -2934.7)"/><path class="cls-2" d="M4498.56,3118.87h0a43.28,43.28,0,0,0-43.28,43.27v1.51" transform="translate(-4301.81 -2934.7)"/><path class="cls-2" d="M4490.52,3237.73h0a43.28,43.28,0,0,0-43.28-43.28h-1.51" transform="translate(-4301.81 -2934.7)"/><path class="cls-1" d="M4564.26,3193.7h0A43.27,43.27,0,0,0,4521,3237v1.51" transform="translate(-4301.81 -2934.7)"/><path class="cls-1" d="M4377.42,3109.47h0a43.28,43.28,0,0,0,43.28,43.27h1.51" transform="translate(-4301.81 -2934.7)"/><path class="cls-2" d="M4304.67,3153.5h0a43.28,43.28,0,0,0,43.28-43.28v-1.51" transform="translate(-4301.81 -2934.7)"/><path class="cls-3" d="M4359.94,3192h0a43.28,43.28,0,0,0-43.27,43.28v1.51" transform="translate(-4301.81 -2934.7)"/><path class="cls-2" d="M4367.85,3192.49h0a43.28,43.28,0,0,1,43.27,43.28v1.51" transform="translate(-4301.81 -2934.7)"/><path class="cls-1" d="M4872.37,2999.93h0a43.28,43.28,0,0,1,43.27-43.28h1.51" transform="translate(-4301.81 -2934.7)"/><path class="cls-2" d="M4928.58,2956.65h0a43.28,43.28,0,0,1,43.27,43.28v1.51" transform="translate(-4301.81 -2934.7)"/><path class="cls-2" d="M4936.62,3075.51h0a43.27,43.27,0,0,1,43.28-43.27h1.51" transform="translate(-4301.81 -2934.7)"/><path class="cls-3" d="M4862.87,3031.48h0a43.28,43.28,0,0,1,43.28,43.28v1.51" transform="translate(-4301.81 -2934.7)"/><path class="cls-2" d="M5049.71,2947.25h0a43.28,43.28,0,0,1-43.27,43.28h-1.51" transform="translate(-4301.81 -2934.7)"/><path class="cls-3" d="M5122.46,2991.29h0a43.28,43.28,0,0,1-43.28-43.28v-1.51" transform="translate(-4301.81 -2934.7)"/><path class="cls-2" d="M5067.19,3029.77h0a43.28,43.28,0,0,1,43.28,43.27v1.51" transform="translate(-4301.81 -2934.7)"/><path class="cls-1" d="M5059.29,3030.28h0a43.28,43.28,0,0,0-43.28,43.27v1.51" transform="translate(-4301.81 -2934.7)"/><path class="cls-2" d="M5153,2998.11h0a43.27,43.27,0,0,1,43.27-43.27h1.52" transform="translate(-4301.81 -2934.7)"/><path class="cls-2" d="M5209.17,2954.84h0a43.28,43.28,0,0,1,43.28,43.27v1.52" transform="translate(-4301.81 -2934.7)"/><path class="cls-3" d="M5217.21,3073.7h0a43.28,43.28,0,0,1,43.28-43.28H5262" transform="translate(-4301.81 -2934.7)"/><path class="cls-2" d="M5143.47,3029.67h0a43.27,43.27,0,0,1,43.27,43.27v1.51" transform="translate(-4301.81 -2934.7)"/><path class="cls-2" d="M5330.31,2945.44h0a43.28,43.28,0,0,1-43.28,43.28h-1.51" transform="translate(-4301.81 -2934.7)"/><path class="cls-1" d="M5403.05,2989.47h0a43.27,43.27,0,0,1-43.27-43.27v-1.52" transform="translate(-4301.81 -2934.7)"/><path class="cls-2" d="M5347.79,3028h0a43.28,43.28,0,0,1,43.27,43.28v1.51" transform="translate(-4301.81 -2934.7)"/><path class="cls-2" d="M5339.88,3028.46h0a43.28,43.28,0,0,0-43.28,43.28v1.51" transform="translate(-4301.81 -2934.7)"/><path class="cls-2" d="M5396.42,3160.43h0a43.28,43.28,0,0,0-43.27-43.28h-1.51" transform="translate(-4301.81 -2934.7)"/><path class="cls-1" d="M5340.21,3117.15h0a43.28,43.28,0,0,0-43.28,43.28v1.51" transform="translate(-4301.81 -2934.7)"/><path class="cls-3" d="M5332.17,3236h0a43.28,43.28,0,0,0-43.28-43.27h-1.51" transform="translate(-4301.81 -2934.7)"/><path class="cls-2" d="M5405.91,3192h0a43.28,43.28,0,0,0-43.27,43.28v1.51" transform="translate(-4301.81 -2934.7)"/><path class="cls-3" d="M5219.07,3107.75h0a43.28,43.28,0,0,0,43.28,43.28h1.51" transform="translate(-4301.81 -2934.7)"/><path class="cls-2" d="M5146.33,3151.78h0a43.27,43.27,0,0,0,43.27-43.27V3107" transform="translate(-4301.81 -2934.7)"/><path class="cls-2" d="M5201.59,3190.26h0a43.28,43.28,0,0,0-43.27,43.28v1.51" transform="translate(-4301.81 -2934.7)"/><path class="cls-2" d="M5209.5,3190.78h0a43.28,43.28,0,0,1,43.28,43.27v1.51" transform="translate(-4301.81 -2934.7)"/><path class="cls-2" d="M5115.83,3158.61h0a43.28,43.28,0,0,0-43.28-43.27H5071" transform="translate(-4301.81 -2934.7)"/><path class="cls-2" d="M5059.62,3115.34h0a43.28,43.28,0,0,0-43.28,43.27v1.51" transform="translate(-4301.81 -2934.7)"/><path class="cls-2" d="M5051.58,3234.2h0a43.28,43.28,0,0,0-43.28-43.28h-1.51" transform="translate(-4301.81 -2934.7)"/><path class="cls-1" d="M5125.32,3190.17h0a43.28,43.28,0,0,0-43.28,43.27V3235" transform="translate(-4301.81 -2934.7)"/><path class="cls-1" d="M4938.48,3105.94h0a43.28,43.28,0,0,0,43.28,43.27h1.51" transform="translate(-4301.81 -2934.7)"/><path class="cls-2" d="M4865.73,3150h0a43.28,43.28,0,0,0,43.28-43.28v-1.51" transform="translate(-4301.81 -2934.7)"/><path class="cls-3" d="M4921,3188.45h0a43.28,43.28,0,0,0-43.27,43.28v1.51" transform="translate(-4301.81 -2934.7)"/><path class="cls-2" d="M4928.91,3189h0a43.28,43.28,0,0,1,43.27,43.28v1.51" transform="translate(-4301.81 -2934.7)"/><path class="cls-1" d="M4311.31,3312.77h0a43.28,43.28,0,0,1,43.27-43.28h1.51" transform="translate(-4301.81 -2934.7)"/><path class="cls-2" d="M4367.52,3269.49h0a43.28,43.28,0,0,1,43.27,43.28v1.51" transform="translate(-4301.81 -2934.7)"/><path class="cls-2" d="M4375.56,3388.35h0a43.27,43.27,0,0,1,43.28-43.27h1.51" transform="translate(-4301.81 -2934.7)"/><path class="cls-3" d="M4301.81,3344.32h0a43.28,43.28,0,0,1,43.28,43.28v1.51" transform="translate(-4301.81 -2934.7)"/><path class="cls-2" d="M4488.65,3260.09h0a43.27,43.27,0,0,1-43.27,43.28h-1.51" transform="translate(-4301.81 -2934.7)"/><path class="cls-3" d="M4561.4,3304.13h0a43.28,43.28,0,0,1-43.28-43.28v-1.51" transform="translate(-4301.81 -2934.7)"/><path class="cls-2" d="M4506.13,3342.61h0a43.28,43.28,0,0,1,43.28,43.27v1.51" transform="translate(-4301.81 -2934.7)"/><path class="cls-1" d="M4498.23,3343.12h0a43.28,43.28,0,0,0-43.28,43.27v1.52" transform="translate(-4301.81 -2934.7)"/><path class="cls-2" d="M4591.9,3311h0a43.27,43.27,0,0,1,43.27-43.28h1.52" transform="translate(-4301.81 -2934.7)"/><path class="cls-2" d="M4648.11,3267.68h0a43.28,43.28,0,0,1,43.28,43.28v1.51" transform="translate(-4301.81 -2934.7)"/><path class="cls-3" d="M4656.15,3386.54h0a43.28,43.28,0,0,1,43.28-43.28h1.51" transform="translate(-4301.81 -2934.7)"/><path class="cls-2" d="M4582.41,3342.51h0a43.27,43.27,0,0,1,43.27,43.27v1.52" transform="translate(-4301.81 -2934.7)"/><path class="cls-2" d="M4769.25,3258.28h0a43.28,43.28,0,0,1-43.28,43.28h-1.51" transform="translate(-4301.81 -2934.7)"/><path class="cls-1" d="M4842,3302.31h0a43.27,43.27,0,0,1-43.27-43.27v-1.52" transform="translate(-4301.81 -2934.7)"/><path class="cls-2" d="M4786.73,3340.79h0a43.28,43.28,0,0,1,43.27,43.28v1.51" transform="translate(-4301.81 -2934.7)"/><path class="cls-2" d="M4778.82,3341.3h0a43.28,43.28,0,0,0-43.28,43.28v1.51" transform="translate(-4301.81 -2934.7)"/><path class="cls-2" d="M4835.36,3473.27h0a43.28,43.28,0,0,0-43.27-43.28h-1.51" transform="translate(-4301.81 -2934.7)"/><path class="cls-1" d="M4779.15,3430h0a43.28,43.28,0,0,0-43.28,43.28v1.51" transform="translate(-4301.81 -2934.7)"/><path class="cls-3" d="M4771.11,3547.61h0a43.28,43.28,0,0,0-43.28-43.28h-1.51" transform="translate(-4301.81 -2934.7)"/><path class="cls-2" d="M4844.85,3502.82h0a43.28,43.28,0,0,0-43.27,43.28v1.51" transform="translate(-4301.81 -2934.7)"/><path class="cls-3" d="M4658,3420.59h0a43.28,43.28,0,0,0,43.28,43.28h1.51" transform="translate(-4301.81 -2934.7)"/><path class="cls-2" d="M4585.27,3464.62h0a43.27,43.27,0,0,0,43.27-43.27v-1.51" transform="translate(-4301.81 -2934.7)"/><path class="cls-2" d="M4640.53,3502.82h0a43.28,43.28,0,0,0-43.27,43.28v1.51" transform="translate(-4301.81 -2934.7)"/><path class="cls-2" d="M4648.44,3502.82h0a43.28,43.28,0,0,1,43.28,43.28v1.51" transform="translate(-4301.81 -2934.7)"/><path class="cls-2" d="M4554.77,3471.45h0a43.28,43.28,0,0,0-43.28-43.27H4510" transform="translate(-4301.81 -2934.7)"/><path class="cls-2" d="M4498.56,3428.18h0a43.28,43.28,0,0,0-43.28,43.27V3473" transform="translate(-4301.81 -2934.7)"/><path class="cls-2" d="M4490.52,3547.61h0a43.28,43.28,0,0,0-43.28-43.28h-1.51" transform="translate(-4301.81 -2934.7)"/><path class="cls-1" d="M4564.26,3502.82h0A43.28,43.28,0,0,0,4521,3546.1v1.51" transform="translate(-4301.81 -2934.7)"/><path class="cls-1" d="M4377.42,3418.78h0a43.28,43.28,0,0,0,43.28,43.28h1.51" transform="translate(-4301.81 -2934.7)"/><path class="cls-2" d="M4304.67,3462.81h0a43.27,43.27,0,0,0,43.28-43.27V3418" transform="translate(-4301.81 -2934.7)"/><path class="cls-3" d="M4359.94,3502.82h0a43.28,43.28,0,0,0-43.27,43.28v1.51" transform="translate(-4301.81 -2934.7)"/><path class="cls-2" d="M4367.85,3502.82h0a43.28,43.28,0,0,1,43.27,43.28v1.51" transform="translate(-4301.81 -2934.7)"/><path class="cls-1" d="M4872.37,3309.24h0a43.28,43.28,0,0,1,43.27-43.28h1.51" transform="translate(-4301.81 -2934.7)"/><path class="cls-2" d="M4928.58,3266h0a43.28,43.28,0,0,1,43.27,43.28v1.51" transform="translate(-4301.81 -2934.7)"/><path class="cls-2" d="M4936.62,3384.82h0a43.27,43.27,0,0,1,43.28-43.27h1.51" transform="translate(-4301.81 -2934.7)"/><path class="cls-3" d="M4862.87,3340.79h0a43.28,43.28,0,0,1,43.28,43.28v1.51" transform="translate(-4301.81 -2934.7)"/><path class="cls-2" d="M5049.71,3256.57h0a43.27,43.27,0,0,1-43.27,43.27h-1.51" transform="translate(-4301.81 -2934.7)"/><path class="cls-3" d="M5122.46,3300.6h0a43.28,43.28,0,0,1-43.28-43.28v-1.51" transform="translate(-4301.81 -2934.7)"/><path class="cls-2" d="M5067.19,3339.08h0a43.28,43.28,0,0,1,43.28,43.27v1.51" transform="translate(-4301.81 -2934.7)"/><path class="cls-1" d="M5059.29,3339.59h0a43.28,43.28,0,0,0-43.28,43.27v1.52" transform="translate(-4301.81 -2934.7)"/><path class="cls-2" d="M5153,3307.43h0a43.27,43.27,0,0,1,43.27-43.28h1.52" transform="translate(-4301.81 -2934.7)"/><path class="cls-2" d="M5209.17,3264.15h0a43.28,43.28,0,0,1,43.28,43.28v1.51" transform="translate(-4301.81 -2934.7)"/><path class="cls-3" d="M5217.21,3383h0a43.28,43.28,0,0,1,43.28-43.28H5262" transform="translate(-4301.81 -2934.7)"/><path class="cls-2" d="M5143.47,3339h0a43.27,43.27,0,0,1,43.27,43.27v1.52" transform="translate(-4301.81 -2934.7)"/><path class="cls-2" d="M5330.31,3254.75h0A43.28,43.28,0,0,1,5287,3298h-1.51" transform="translate(-4301.81 -2934.7)"/><path class="cls-1" d="M5403.05,3298.78h0a43.27,43.27,0,0,1-43.27-43.27V3254" transform="translate(-4301.81 -2934.7)"/><path class="cls-2" d="M5347.79,3337.26h0a43.28,43.28,0,0,1,43.27,43.28v1.51" transform="translate(-4301.81 -2934.7)"/><path class="cls-2" d="M5339.88,3337.77h0a43.28,43.28,0,0,0-43.28,43.28v1.51" transform="translate(-4301.81 -2934.7)"/><path class="cls-2" d="M5396.42,3469.74h0a43.28,43.28,0,0,0-43.27-43.28h-1.51" transform="translate(-4301.81 -2934.7)"/><path class="cls-1" d="M5340.21,3426.46h0a43.28,43.28,0,0,0-43.28,43.28v1.51" transform="translate(-4301.81 -2934.7)"/><path class="cls-3" d="M5332.17,3547.61h0a43.28,43.28,0,0,0-43.28-43.28h-1.51" transform="translate(-4301.81 -2934.7)"/><path class="cls-2" d="M5405.91,3502.82h0a43.28,43.28,0,0,0-43.27,43.28v1.51" transform="translate(-4301.81 -2934.7)"/><path class="cls-3" d="M5219.07,3417.06h0a43.28,43.28,0,0,0,43.28,43.28h1.51" transform="translate(-4301.81 -2934.7)"/><path class="cls-2" d="M5146.33,3461.1h0a43.28,43.28,0,0,0,43.27-43.28v-1.51" transform="translate(-4301.81 -2934.7)"/><path class="cls-2" d="M5201.59,3502.82h0a43.28,43.28,0,0,0-43.27,43.28v1.51" transform="translate(-4301.81 -2934.7)"/><path class="cls-2" d="M5209.5,3502.82h0a43.28,43.28,0,0,1,43.28,43.28v1.51" transform="translate(-4301.81 -2934.7)"/><path class="cls-2" d="M5115.83,3467.92h0a43.28,43.28,0,0,0-43.28-43.27H5071" transform="translate(-4301.81 -2934.7)"/><path class="cls-2" d="M5059.62,3424.65h0a43.28,43.28,0,0,0-43.28,43.27v1.52" transform="translate(-4301.81 -2934.7)"/><path class="cls-2" d="M5051.58,3547.61h0a43.28,43.28,0,0,0-43.28-43.28h-1.51" transform="translate(-4301.81 -2934.7)"/><path class="cls-1" d="M5125.32,3502.82h0A43.28,43.28,0,0,0,5082,3546.1v1.51" transform="translate(-4301.81 -2934.7)"/><path class="cls-1" d="M4938.48,3415.25h0a43.28,43.28,0,0,0,43.28,43.28h1.51" transform="translate(-4301.81 -2934.7)"/><path class="cls-2" d="M4865.73,3459.28h0A43.27,43.27,0,0,0,4909,3416v-1.52" transform="translate(-4301.81 -2934.7)"/><path class="cls-3" d="M4921,3502.82h0a43.28,43.28,0,0,0-43.27,43.28v1.51" transform="translate(-4301.81 -2934.7)"/><path class="cls-2" d="M4928.91,3502.82h0a43.28,43.28,0,0,1,43.27,43.28v1.51" transform="translate(-4301.81 -2934.7)"/><path class="cls-1" d="M5429.68,3001.46h0a43.28,43.28,0,0,1,43.28-43.28h1.51" transform="translate(-4301.81 -2934.7)"/><path class="cls-2" d="M5485.89,2958.18h0a43.28,43.28,0,0,1,43.28,43.28V3003" transform="translate(-4301.81 -2934.7)"/><path class="cls-2" d="M5493.93,3077h0a43.28,43.28,0,0,1,43.28-43.27h1.51" transform="translate(-4301.81 -2934.7)"/><path class="cls-3" d="M5420.19,3033h0a43.28,43.28,0,0,1,43.27,43.28v1.51" transform="translate(-4301.81 -2934.7)"/><path class="cls-2" d="M5607,2948.78h0a43.28,43.28,0,0,1-43.28,43.28h-1.51" transform="translate(-4301.81 -2934.7)"/><path class="cls-3" d="M5679.78,2992.81h0a43.27,43.27,0,0,1-43.28-43.27V2948" transform="translate(-4301.81 -2934.7)"/><path class="cls-2" d="M5624.51,3031.3h0a43.27,43.27,0,0,1,43.27,43.27v1.51" transform="translate(-4301.81 -2934.7)"/><path class="cls-1" d="M5616.6,3031.81h0a43.27,43.27,0,0,0-43.27,43.27v1.51" transform="translate(-4301.81 -2934.7)"/><path class="cls-2" d="M5710.27,2999.64h0a43.28,43.28,0,0,1,43.28-43.27h1.51" transform="translate(-4301.81 -2934.7)"/><path class="cls-2" d="M5766.49,2956.37h0a43.27,43.27,0,0,1,43.27,43.27v1.52" transform="translate(-4301.81 -2934.7)"/><path class="cls-3" d="M5774.53,3075.23h0A43.28,43.28,0,0,1,5817.8,3032h1.52" transform="translate(-4301.81 -2934.7)"/><path class="cls-2" d="M5700.78,3031.2h0a43.28,43.28,0,0,1,43.28,43.27V3076" transform="translate(-4301.81 -2934.7)"/><path class="cls-2" d="M5887.62,2947h0a43.28,43.28,0,0,1-43.27,43.28h-1.51" transform="translate(-4301.81 -2934.7)"/><path class="cls-1" d="M5960.37,2991h0a43.28,43.28,0,0,1-43.28-43.27v-1.52" transform="translate(-4301.81 -2934.7)"/><path class="cls-2" d="M5905.1,3029.48h0a43.28,43.28,0,0,1,43.28,43.28v1.51" transform="translate(-4301.81 -2934.7)"/><path class="cls-2" d="M5897.2,3030h0a43.28,43.28,0,0,0-43.28,43.28v1.51" transform="translate(-4301.81 -2934.7)"/><path class="cls-2" d="M5953.74,3162h0a43.28,43.28,0,0,0-43.28-43.28H5909" transform="translate(-4301.81 -2934.7)"/><path class="cls-1" d="M5897.52,3118.68h0a43.28,43.28,0,0,0-43.27,43.28v1.51" transform="translate(-4301.81 -2934.7)"/><path class="cls-3" d="M5889.48,3237.54h0a43.27,43.27,0,0,0-43.27-43.27h-1.51" transform="translate(-4301.81 -2934.7)"/><path class="cls-2" d="M5963.23,3193.51h0a43.28,43.28,0,0,0-43.28,43.28v1.51" transform="translate(-4301.81 -2934.7)"/><path class="cls-3" d="M5776.39,3109.28h0a43.28,43.28,0,0,0,43.27,43.28h1.52" transform="translate(-4301.81 -2934.7)"/><path class="cls-2" d="M5703.64,3153.31h0a43.28,43.28,0,0,0,43.28-43.27v-1.51" transform="translate(-4301.81 -2934.7)"/><path class="cls-2" d="M5758.91,3191.79h0a43.28,43.28,0,0,0-43.28,43.28v1.51" transform="translate(-4301.81 -2934.7)"/><path class="cls-2" d="M5766.82,3192.31h0a43.27,43.27,0,0,1,43.27,43.27v1.51" transform="translate(-4301.81 -2934.7)"/><path class="cls-2" d="M5673.14,3160.14h0a43.27,43.27,0,0,0-43.27-43.27h-1.51" transform="translate(-4301.81 -2934.7)"/><path class="cls-2" d="M5616.93,3116.87h0a43.27,43.27,0,0,0-43.27,43.27v1.51" transform="translate(-4301.81 -2934.7)"/><path class="cls-2" d="M5608.89,3235.73h0a43.28,43.28,0,0,0-43.28-43.28h-1.51" transform="translate(-4301.81 -2934.7)"/><path class="cls-1" d="M5682.64,3191.7h0a43.28,43.28,0,0,0-43.28,43.27v1.51" transform="translate(-4301.81 -2934.7)"/><path class="cls-1" d="M5495.8,3107.47h0a43.27,43.27,0,0,0,43.27,43.27h1.51" transform="translate(-4301.81 -2934.7)"/><path class="cls-2" d="M5423.05,3151.5h0a43.28,43.28,0,0,0,43.28-43.28v-1.51" transform="translate(-4301.81 -2934.7)"/><path class="cls-3" d="M5478.32,3190h0a43.28,43.28,0,0,0-43.28,43.28v1.51" transform="translate(-4301.81 -2934.7)"/><path class="cls-2" d="M5486.22,3190.49h0a43.28,43.28,0,0,1,43.28,43.28v1.51" transform="translate(-4301.81 -2934.7)"/><path class="cls-1" d="M5990.74,2997.93h0a43.28,43.28,0,0,1,43.28-43.28h1.51" transform="translate(-4301.81 -2934.7)"/><path class="cls-2" d="M6047,2954.65h0a43.28,43.28,0,0,1,43.28,43.28v1.51" transform="translate(-4301.81 -2934.7)"/><path class="cls-2" d="M6055,3073.51h0a43.28,43.28,0,0,1,43.28-43.27h1.51" transform="translate(-4301.81 -2934.7)"/><path class="cls-3" d="M5981.25,3029.48h0a43.28,43.28,0,0,1,43.27,43.28v1.51" transform="translate(-4301.81 -2934.7)"/><path class="cls-2" d="M6168.09,2945.25h0a43.28,43.28,0,0,1-43.28,43.28h-1.51" transform="translate(-4301.81 -2934.7)"/><path class="cls-3" d="M6240.84,2989.29h0a43.28,43.28,0,0,1-43.28-43.28v-1.51" transform="translate(-4301.81 -2934.7)"/><path class="cls-2" d="M6185.57,3027.77h0a43.27,43.27,0,0,1,43.27,43.27v1.51" transform="translate(-4301.81 -2934.7)"/><path class="cls-1" d="M6177.66,3028.28h0a43.27,43.27,0,0,0-43.27,43.27v1.51" transform="translate(-4301.81 -2934.7)"/><path class="cls-2" d="M6271.33,2996.11h0a43.28,43.28,0,0,1,43.28-43.27h1.51" transform="translate(-4301.81 -2934.7)"/><path class="cls-2" d="M6327.55,2952.84h0a43.27,43.27,0,0,1,43.27,43.27v1.52" transform="translate(-4301.81 -2934.7)"/><path class="cls-3" d="M6335.59,3071.7h0a43.28,43.28,0,0,1,43.27-43.28h1.51" transform="translate(-4301.81 -2934.7)"/><path class="cls-2" d="M6261.84,3027.67h0a43.28,43.28,0,0,1,43.28,43.27v1.51" transform="translate(-4301.81 -2934.7)"/><path class="cls-2" d="M6448.68,2943.44h0a43.28,43.28,0,0,1-43.27,43.28h-1.51" transform="translate(-4301.81 -2934.7)"/><path class="cls-1" d="M6521.43,2987.47h0a43.28,43.28,0,0,1-43.28-43.27v-1.52" transform="translate(-4301.81 -2934.7)"/><path class="cls-2" d="M6466.16,3026h0a43.28,43.28,0,0,1,43.28,43.28v1.51" transform="translate(-4301.81 -2934.7)"/><path class="cls-2" d="M6458.25,3026.46h0a43.28,43.28,0,0,0-43.27,43.28v1.51" transform="translate(-4301.81 -2934.7)"/><path class="cls-2" d="M6514.8,3158.43h0a43.28,43.28,0,0,0-43.28-43.28H6470" transform="translate(-4301.81 -2934.7)"/><path class="cls-1" d="M6458.58,3115.15h0a43.28,43.28,0,0,0-43.27,43.28v1.51" transform="translate(-4301.81 -2934.7)"/><path class="cls-3" d="M6450.54,3234h0a43.27,43.27,0,0,0-43.27-43.27h-1.51" transform="translate(-4301.81 -2934.7)"/><path class="cls-2" d="M6524.29,3190h0a43.28,43.28,0,0,0-43.28,43.28v1.51" transform="translate(-4301.81 -2934.7)"/><path class="cls-3" d="M6337.45,3105.75h0a43.28,43.28,0,0,0,43.27,43.28h1.52" transform="translate(-4301.81 -2934.7)"/><path class="cls-2" d="M6264.7,3149.78h0a43.28,43.28,0,0,0,43.28-43.27V3105" transform="translate(-4301.81 -2934.7)"/><path class="cls-2" d="M6320,3188.26h0a43.28,43.28,0,0,0-43.28,43.28v1.51" transform="translate(-4301.81 -2934.7)"/><path class="cls-2" d="M6327.88,3188.78h0a43.27,43.27,0,0,1,43.27,43.27v1.51" transform="translate(-4301.81 -2934.7)"/><path class="cls-2" d="M6234.2,3156.61h0a43.27,43.27,0,0,0-43.27-43.27h-1.51" transform="translate(-4301.81 -2934.7)"/><path class="cls-2" d="M6178,3113.34h0a43.27,43.27,0,0,0-43.27,43.27v1.51" transform="translate(-4301.81 -2934.7)"/><path class="cls-2" d="M6170,3232.2h0a43.28,43.28,0,0,0-43.28-43.28h-1.51" transform="translate(-4301.81 -2934.7)"/><path class="cls-1" d="M6243.7,3188.17h0a43.28,43.28,0,0,0-43.28,43.27V3233" transform="translate(-4301.81 -2934.7)"/><path class="cls-1" d="M6056.86,3103.94h0a43.27,43.27,0,0,0,43.27,43.27h1.51" transform="translate(-4301.81 -2934.7)"/><path class="cls-2" d="M5984.11,3148h0a43.28,43.28,0,0,0,43.28-43.28v-1.51" transform="translate(-4301.81 -2934.7)"/><path class="cls-3" d="M6039.38,3186.45h0a43.28,43.28,0,0,0-43.28,43.28v1.51" transform="translate(-4301.81 -2934.7)"/><path class="cls-2" d="M6047.28,3187h0a43.28,43.28,0,0,1,43.28,43.28v1.51" transform="translate(-4301.81 -2934.7)"/><path class="cls-1" d="M5429.68,3310.77h0a43.28,43.28,0,0,1,43.28-43.28h1.51" transform="translate(-4301.81 -2934.7)"/><path class="cls-2" d="M5485.89,3267.49h0a43.28,43.28,0,0,1,43.28,43.28v1.51" transform="translate(-4301.81 -2934.7)"/><path class="cls-2" d="M5493.93,3386.35h0a43.28,43.28,0,0,1,43.28-43.27h1.51" transform="translate(-4301.81 -2934.7)"/><path class="cls-3" d="M5420.19,3342.32h0a43.28,43.28,0,0,1,43.27,43.28v1.51" transform="translate(-4301.81 -2934.7)"/><path class="cls-2" d="M5607,3258.09h0a43.28,43.28,0,0,1-43.28,43.28h-1.51" transform="translate(-4301.81 -2934.7)"/><path class="cls-3" d="M5679.78,3302.13h0a43.28,43.28,0,0,1-43.28-43.28v-1.51" transform="translate(-4301.81 -2934.7)"/><path class="cls-2" d="M5624.51,3340.61h0a43.27,43.27,0,0,1,43.27,43.27v1.51" transform="translate(-4301.81 -2934.7)"/><path class="cls-1" d="M5616.6,3341.12h0a43.27,43.27,0,0,0-43.27,43.27v1.52" transform="translate(-4301.81 -2934.7)"/><path class="cls-2" d="M5710.27,3309h0a43.28,43.28,0,0,1,43.28-43.28h1.51" transform="translate(-4301.81 -2934.7)"/><path class="cls-2" d="M5766.49,3265.68h0a43.27,43.27,0,0,1,43.27,43.28v1.51" transform="translate(-4301.81 -2934.7)"/><path class="cls-3" d="M5774.53,3384.54h0a43.28,43.28,0,0,1,43.27-43.28h1.52" transform="translate(-4301.81 -2934.7)"/><path class="cls-2" d="M5700.78,3340.51h0a43.28,43.28,0,0,1,43.28,43.27v1.52" transform="translate(-4301.81 -2934.7)"/><path class="cls-2" d="M5887.62,3256.28h0a43.28,43.28,0,0,1-43.27,43.28h-1.51" transform="translate(-4301.81 -2934.7)"/><path class="cls-1" d="M5960.37,3300.31h0a43.28,43.28,0,0,1-43.28-43.27v-1.52" transform="translate(-4301.81 -2934.7)"/><path class="cls-2" d="M5905.1,3338.79h0a43.28,43.28,0,0,1,43.28,43.28v1.51" transform="translate(-4301.81 -2934.7)"/><path class="cls-2" d="M5897.2,3339.3h0a43.28,43.28,0,0,0-43.28,43.28v1.51" transform="translate(-4301.81 -2934.7)"/><path class="cls-2" d="M5953.74,3471.27h0a43.28,43.28,0,0,0-43.28-43.28H5909" transform="translate(-4301.81 -2934.7)"/><path class="cls-1" d="M5897.52,3428h0a43.28,43.28,0,0,0-43.27,43.28v1.51" transform="translate(-4301.81 -2934.7)"/><path class="cls-3" d="M5889.48,3546.85h0a43.27,43.27,0,0,0-43.27-43.27h-1.51" transform="translate(-4301.81 -2934.7)"/><path class="cls-2" d="M5963.23,3502.82h0A43.28,43.28,0,0,0,5920,3546.1v1.51" transform="translate(-4301.81 -2934.7)"/><path class="cls-3" d="M5776.39,3418.59h0a43.28,43.28,0,0,0,43.27,43.28h1.52" transform="translate(-4301.81 -2934.7)"/><path class="cls-2" d="M5703.64,3462.62h0a43.28,43.28,0,0,0,43.28-43.27v-1.51" transform="translate(-4301.81 -2934.7)"/><path class="cls-2" d="M5758.91,3501.11h0a43.28,43.28,0,0,0-43.28,43.27v1.51" transform="translate(-4301.81 -2934.7)"/><path class="cls-2" d="M5766.82,3501.62h0a43.27,43.27,0,0,1,43.27,43.27v1.51" transform="translate(-4301.81 -2934.7)"/><path class="cls-2" d="M5673.14,3469.45h0a43.27,43.27,0,0,0-43.27-43.27h-1.51" transform="translate(-4301.81 -2934.7)"/><path class="cls-2" d="M5616.93,3426.18h0a43.27,43.27,0,0,0-43.27,43.27V3471" transform="translate(-4301.81 -2934.7)"/><path class="cls-2" d="M5608.89,3545h0a43.28,43.28,0,0,0-43.28-43.28h-1.51" transform="translate(-4301.81 -2934.7)"/><path class="cls-1" d="M5682.64,3501h0a43.28,43.28,0,0,0-43.28,43.27v1.51" transform="translate(-4301.81 -2934.7)"/><path class="cls-1" d="M5495.8,3416.78h0a43.28,43.28,0,0,0,43.27,43.28h1.51" transform="translate(-4301.81 -2934.7)"/><path class="cls-2" d="M5423.05,3460.81h0a43.28,43.28,0,0,0,43.28-43.27V3416" transform="translate(-4301.81 -2934.7)"/><path class="cls-3" d="M5478.32,3499.29h0a43.28,43.28,0,0,0-43.28,43.28v1.51" transform="translate(-4301.81 -2934.7)"/><path class="cls-2" d="M5486.22,3499.8h0a43.28,43.28,0,0,1,43.28,43.28v1.51" transform="translate(-4301.81 -2934.7)"/><path class="cls-1" d="M5990.74,3307.24h0A43.28,43.28,0,0,1,6034,3264h1.51" transform="translate(-4301.81 -2934.7)"/><path class="cls-2" d="M6047,3264h0a43.28,43.28,0,0,1,43.28,43.28v1.51" transform="translate(-4301.81 -2934.7)"/><path class="cls-2" d="M6055,3382.82h0a43.28,43.28,0,0,1,43.28-43.27h1.51" transform="translate(-4301.81 -2934.7)"/><path class="cls-3" d="M5981.25,3338.79h0a43.28,43.28,0,0,1,43.27,43.28v1.51" transform="translate(-4301.81 -2934.7)"/><path class="cls-2" d="M6168.09,3254.57h0a43.28,43.28,0,0,1-43.28,43.27h-1.51" transform="translate(-4301.81 -2934.7)"/><path class="cls-3" d="M6240.84,3298.6h0a43.28,43.28,0,0,1-43.28-43.28v-1.51" transform="translate(-4301.81 -2934.7)"/><path class="cls-2" d="M6185.57,3337.08h0a43.27,43.27,0,0,1,43.27,43.27v1.51" transform="translate(-4301.81 -2934.7)"/><path class="cls-1" d="M6177.66,3337.59h0a43.27,43.27,0,0,0-43.27,43.27v1.52" transform="translate(-4301.81 -2934.7)"/><path class="cls-2" d="M6271.33,3305.43h0a43.28,43.28,0,0,1,43.28-43.28h1.51" transform="translate(-4301.81 -2934.7)"/><path class="cls-2" d="M6327.55,3262.15h0a43.27,43.27,0,0,1,43.27,43.28v1.51" transform="translate(-4301.81 -2934.7)"/><path class="cls-3" d="M6335.59,3381h0a43.28,43.28,0,0,1,43.27-43.28h1.51" transform="translate(-4301.81 -2934.7)"/><path class="cls-2" d="M6261.84,3337h0a43.28,43.28,0,0,1,43.28,43.27v1.52" transform="translate(-4301.81 -2934.7)"/><path class="cls-2" d="M6448.68,3252.75h0a43.28,43.28,0,0,1-43.27,43.28h-1.51" transform="translate(-4301.81 -2934.7)"/><path class="cls-1" d="M6521.43,3296.78h0a43.28,43.28,0,0,1-43.28-43.27V3252" transform="translate(-4301.81 -2934.7)"/><path class="cls-2" d="M6466.16,3335.26h0a43.28,43.28,0,0,1,43.28,43.28v1.51" transform="translate(-4301.81 -2934.7)"/><path class="cls-2" d="M6458.25,3335.77h0a43.28,43.28,0,0,0-43.27,43.28v1.51" transform="translate(-4301.81 -2934.7)"/><path class="cls-2" d="M6514.8,3467.74h0a43.28,43.28,0,0,0-43.28-43.28H6470" transform="translate(-4301.81 -2934.7)"/><path class="cls-1" d="M6458.58,3424.46h0a43.28,43.28,0,0,0-43.27,43.28v1.51" transform="translate(-4301.81 -2934.7)"/><path class="cls-3" d="M6450.54,3543.32h0a43.27,43.27,0,0,0-43.27-43.27h-1.51" transform="translate(-4301.81 -2934.7)"/><path class="cls-2" d="M6524.29,3499.29h0a43.28,43.28,0,0,0-43.28,43.28v1.51" transform="translate(-4301.81 -2934.7)"/><path class="cls-3" d="M6337.45,3415.06h0a43.28,43.28,0,0,0,43.27,43.28h1.52" transform="translate(-4301.81 -2934.7)"/><path class="cls-2" d="M6264.7,3459.1h0a43.28,43.28,0,0,0,43.28-43.28v-1.51" transform="translate(-4301.81 -2934.7)"/><path class="cls-2" d="M6320,3497.58h0a43.28,43.28,0,0,0-43.28,43.27v1.51" transform="translate(-4301.81 -2934.7)"/><path class="cls-2" d="M6327.88,3498.09h0a43.27,43.27,0,0,1,43.27,43.27v1.51" transform="translate(-4301.81 -2934.7)"/><path class="cls-2" d="M6234.2,3465.92h0a43.27,43.27,0,0,0-43.27-43.27h-1.51" transform="translate(-4301.81 -2934.7)"/><path class="cls-2" d="M6178,3422.65h0a43.27,43.27,0,0,0-43.27,43.27v1.52" transform="translate(-4301.81 -2934.7)"/><path class="cls-2" d="M6170,3541.51h0a43.28,43.28,0,0,0-43.28-43.28h-1.51" transform="translate(-4301.81 -2934.7)"/><path class="cls-1" d="M6243.7,3497.48h0a43.28,43.28,0,0,0-43.28,43.27v1.51" transform="translate(-4301.81 -2934.7)"/><path class="cls-1" d="M6056.86,3413.25h0a43.28,43.28,0,0,0,43.27,43.28h1.51" transform="translate(-4301.81 -2934.7)"/><path class="cls-2" d="M5984.11,3457.28h0a43.28,43.28,0,0,0,43.28-43.27v-1.52" transform="translate(-4301.81 -2934.7)"/><path class="cls-3" d="M6039.38,3495.76h0A43.28,43.28,0,0,0,5996.1,3539v1.51" transform="translate(-4301.81 -2934.7)"/><path class="cls-2" d="M6047.28,3496.27h0a43.28,43.28,0,0,1,43.28,43.28v1.51" transform="translate(-4301.81 -2934.7)"/><path class="cls-1" d="M6553.82,3003.46h0a43.28,43.28,0,0,1,43.28-43.28h1.51" transform="translate(-4301.81 -2934.7)"/><path class="cls-2" d="M6610,2960.18h0a43.28,43.28,0,0,1,43.27,43.28V3005" transform="translate(-4301.81 -2934.7)"/><path class="cls-2" d="M6618.08,3079h0a43.27,43.27,0,0,1,43.27-43.27h1.51" transform="translate(-4301.81 -2934.7)"/><path class="cls-3" d="M6544.33,3035h0a43.28,43.28,0,0,1,43.28,43.28v1.51" transform="translate(-4301.81 -2934.7)"/><path class="cls-2" d="M6731.17,2950.78h0a43.28,43.28,0,0,1-43.27,43.28h-1.51" transform="translate(-4301.81 -2934.7)"/><path class="cls-3" d="M6803.92,2994.81h0a43.28,43.28,0,0,1-43.28-43.27V2950" transform="translate(-4301.81 -2934.7)"/><path class="cls-2" d="M6748.65,3033.3h0a43.28,43.28,0,0,1,43.28,43.27v1.51" transform="translate(-4301.81 -2934.7)"/><path class="cls-1" d="M6740.74,3033.81h0a43.27,43.27,0,0,0-43.27,43.27v1.51" transform="translate(-4301.81 -2934.7)"/><path class="cls-2" d="M6834.42,3001.64h0a43.27,43.27,0,0,1,43.27-43.27h1.51" transform="translate(-4301.81 -2934.7)"/><path class="cls-2" d="M6890.63,2958.37h0a43.27,43.27,0,0,1,43.27,43.27v1.52" transform="translate(-4301.81 -2934.7)"/><path class="cls-3" d="M6898.67,3077.23h0A43.28,43.28,0,0,1,6942,3034h1.51" transform="translate(-4301.81 -2934.7)"/><path class="cls-2" d="M6824.92,3033.2h0a43.27,43.27,0,0,1,43.28,43.27V3078" transform="translate(-4301.81 -2934.7)"/><path class="cls-2" d="M7011.77,2949h0a43.28,43.28,0,0,1-43.28,43.28H6967" transform="translate(-4301.81 -2934.7)"/><path class="cls-1" d="M7084.51,2993h0a43.27,43.27,0,0,1-43.27-43.27v-1.52" transform="translate(-4301.81 -2934.7)"/><path class="cls-2" d="M7029.24,3031.48h0a43.28,43.28,0,0,1,43.28,43.28v1.51" transform="translate(-4301.81 -2934.7)"/><path class="cls-2" d="M7021.34,3032h0a43.28,43.28,0,0,0-43.28,43.28v1.51" transform="translate(-4301.81 -2934.7)"/><path class="cls-2" d="M7077.88,3164h0a43.28,43.28,0,0,0-43.28-43.28h-1.51" transform="translate(-4301.81 -2934.7)"/><path class="cls-1" d="M7021.67,3120.68h0a43.28,43.28,0,0,0-43.28,43.28v1.51" transform="translate(-4301.81 -2934.7)"/><path class="cls-3" d="M7013.63,3239.54h0a43.28,43.28,0,0,0-43.28-43.27h-1.51" transform="translate(-4301.81 -2934.7)"/><path class="cls-2" d="M7087.37,3195.51h0a43.27,43.27,0,0,0-43.27,43.28v1.51" transform="translate(-4301.81 -2934.7)"/><path class="cls-3" d="M6900.53,3111.28h0a43.28,43.28,0,0,0,43.28,43.28h1.51" transform="translate(-4301.81 -2934.7)"/><path class="cls-2" d="M6827.79,3155.31h0a43.27,43.27,0,0,0,43.27-43.27v-1.51" transform="translate(-4301.81 -2934.7)"/><path class="cls-2" d="M6883.05,3193.79h0a43.28,43.28,0,0,0-43.27,43.28v1.51" transform="translate(-4301.81 -2934.7)"/><path class="cls-2" d="M6891,3194.31h0a43.27,43.27,0,0,1,43.27,43.27v1.51" transform="translate(-4301.81 -2934.7)"/><path class="cls-2" d="M6797.29,3162.14h0a43.28,43.28,0,0,0-43.28-43.27h-1.51" transform="translate(-4301.81 -2934.7)"/><path class="cls-2" d="M6741.07,3118.87h0a43.27,43.27,0,0,0-43.27,43.27v1.51" transform="translate(-4301.81 -2934.7)"/><path class="cls-2" d="M6733,3237.73h0a43.28,43.28,0,0,0-43.27-43.28h-1.51" transform="translate(-4301.81 -2934.7)"/><path class="cls-1" d="M6806.78,3193.7h0A43.28,43.28,0,0,0,6763.5,3237v1.51" transform="translate(-4301.81 -2934.7)"/><path class="cls-1" d="M6619.94,3109.47h0a43.27,43.27,0,0,0,43.27,43.27h1.52" transform="translate(-4301.81 -2934.7)"/><path class="cls-2" d="M6547.19,3153.5h0a43.28,43.28,0,0,0,43.28-43.28v-1.51" transform="translate(-4301.81 -2934.7)"/><path class="cls-3" d="M6602.46,3192h0a43.28,43.28,0,0,0-43.28,43.28v1.51" transform="translate(-4301.81 -2934.7)"/><path class="cls-2" d="M6610.37,3192.49h0a43.28,43.28,0,0,1,43.27,43.28v1.51" transform="translate(-4301.81 -2934.7)"/><path class="cls-1" d="M7114.88,2999.93h0a43.28,43.28,0,0,1,43.28-43.28h1.51" transform="translate(-4301.81 -2934.7)"/><path class="cls-2" d="M7171.1,2956.65h0a43.28,43.28,0,0,1,43.27,43.28v1.51" transform="translate(-4301.81 -2934.7)"/><path class="cls-2" d="M7179.14,3075.51h0a43.27,43.27,0,0,1,43.27-43.27h1.51" transform="translate(-4301.81 -2934.7)"/><path class="cls-3" d="M7105.39,3031.48h0a43.28,43.28,0,0,1,43.28,43.28v1.51" transform="translate(-4301.81 -2934.7)"/><path class="cls-2" d="M7292.23,2947.25h0a43.28,43.28,0,0,1-43.27,43.28h-1.52" transform="translate(-4301.81 -2934.7)"/><path class="cls-3" d="M7365,2991.29h0A43.28,43.28,0,0,1,7321.7,2948v-1.51" transform="translate(-4301.81 -2934.7)"/><path class="cls-2" d="M7309.71,3029.77h0A43.28,43.28,0,0,1,7353,3073v1.51" transform="translate(-4301.81 -2934.7)"/><path class="cls-1" d="M7301.8,3030.28h0a43.27,43.27,0,0,0-43.27,43.27v1.51" transform="translate(-4301.81 -2934.7)"/><path class="cls-2" d="M7395.48,2998.11h0a43.27,43.27,0,0,1,43.27-43.27h1.51" transform="translate(-4301.81 -2934.7)"/><path class="cls-2" d="M7451.69,2954.84h0a43.27,43.27,0,0,1,43.27,43.27v1.52" transform="translate(-4301.81 -2934.7)"/><path class="cls-3" d="M7459.73,3073.7h0a43.28,43.28,0,0,1,43.28-43.28h1.51" transform="translate(-4301.81 -2934.7)"/><path class="cls-2" d="M7386,3029.67h0a43.27,43.27,0,0,1,43.28,43.27v1.51" transform="translate(-4301.81 -2934.7)"/><path class="cls-2" d="M7572.83,2945.44h0a43.28,43.28,0,0,1-43.28,43.28H7528" transform="translate(-4301.81 -2934.7)"/><path class="cls-1" d="M7645.57,2989.47h0a43.27,43.27,0,0,1-43.27-43.27v-1.52" transform="translate(-4301.81 -2934.7)"/><path class="cls-2" d="M7590.3,3028h0a43.28,43.28,0,0,1,43.28,43.28v1.51" transform="translate(-4301.81 -2934.7)"/><path class="cls-2" d="M7582.4,3028.46h0a43.28,43.28,0,0,0-43.28,43.28v1.51" transform="translate(-4301.81 -2934.7)"/><path class="cls-2" d="M7638.94,3160.43h0a43.28,43.28,0,0,0-43.28-43.28h-1.51" transform="translate(-4301.81 -2934.7)"/><path class="cls-1" d="M7582.73,3117.15h0a43.28,43.28,0,0,0-43.28,43.28v1.51" transform="translate(-4301.81 -2934.7)"/><path class="cls-3" d="M7574.69,3236h0a43.28,43.28,0,0,0-43.28-43.27h-1.51" transform="translate(-4301.81 -2934.7)"/><path class="cls-2" d="M7648.43,3192h0a43.28,43.28,0,0,0-43.27,43.28v1.51" transform="translate(-4301.81 -2934.7)"/><path class="cls-3" d="M7461.59,3107.75h0a43.28,43.28,0,0,0,43.28,43.28h1.51" transform="translate(-4301.81 -2934.7)"/><path class="cls-2" d="M7388.85,3151.78h0a43.27,43.27,0,0,0,43.27-43.27V3107" transform="translate(-4301.81 -2934.7)"/><path class="cls-2" d="M7444.11,3190.26h0a43.28,43.28,0,0,0-43.27,43.28v1.51" transform="translate(-4301.81 -2934.7)"/><path class="cls-2" d="M7452,3190.78h0a43.27,43.27,0,0,1,43.27,43.27v1.51" transform="translate(-4301.81 -2934.7)"/><path class="cls-2" d="M7358.35,3158.61h0a43.28,43.28,0,0,0-43.28-43.27h-1.51" transform="translate(-4301.81 -2934.7)"/><path class="cls-2" d="M7302.13,3115.34h0a43.27,43.27,0,0,0-43.27,43.27v1.51" transform="translate(-4301.81 -2934.7)"/><path class="cls-2" d="M7294.09,3234.2h0a43.28,43.28,0,0,0-43.27-43.28h-1.51" transform="translate(-4301.81 -2934.7)"/><path class="cls-1" d="M7367.84,3190.17h0a43.28,43.28,0,0,0-43.28,43.27V3235" transform="translate(-4301.81 -2934.7)"/><path class="cls-1" d="M7181,3105.94h0a43.27,43.27,0,0,0,43.27,43.27h1.51" transform="translate(-4301.81 -2934.7)"/><path class="cls-2" d="M7108.25,3150h0a43.28,43.28,0,0,0,43.28-43.28v-1.51" transform="translate(-4301.81 -2934.7)"/><path class="cls-3" d="M7163.52,3188.45h0a43.28,43.28,0,0,0-43.28,43.28v1.51" transform="translate(-4301.81 -2934.7)"/><path class="cls-2" d="M7171.43,3189h0a43.28,43.28,0,0,1,43.27,43.28v1.51" transform="translate(-4301.81 -2934.7)"/><path class="cls-1" d="M6553.82,3312.77h0a43.28,43.28,0,0,1,43.28-43.28h1.51" transform="translate(-4301.81 -2934.7)"/><path class="cls-2" d="M6610,3269.49h0a43.28,43.28,0,0,1,43.27,43.28v1.51" transform="translate(-4301.81 -2934.7)"/><path class="cls-2" d="M6618.08,3388.35h0a43.27,43.27,0,0,1,43.27-43.27h1.51" transform="translate(-4301.81 -2934.7)"/><path class="cls-3" d="M6544.33,3344.32h0a43.28,43.28,0,0,1,43.28,43.28v1.51" transform="translate(-4301.81 -2934.7)"/><path class="cls-2" d="M6731.17,3260.09h0a43.27,43.27,0,0,1-43.27,43.28h-1.51" transform="translate(-4301.81 -2934.7)"/><path class="cls-3" d="M6803.92,3304.13h0a43.28,43.28,0,0,1-43.28-43.28v-1.51" transform="translate(-4301.81 -2934.7)"/><path class="cls-2" d="M6748.65,3342.61h0a43.28,43.28,0,0,1,43.28,43.27v1.51" transform="translate(-4301.81 -2934.7)"/><path class="cls-1" d="M6740.74,3343.12h0a43.27,43.27,0,0,0-43.27,43.27v1.52" transform="translate(-4301.81 -2934.7)"/><path class="cls-2" d="M6834.42,3311h0a43.27,43.27,0,0,1,43.27-43.28h1.51" transform="translate(-4301.81 -2934.7)"/><path class="cls-2" d="M6890.63,3267.68h0A43.27,43.27,0,0,1,6933.9,3311v1.51" transform="translate(-4301.81 -2934.7)"/><path class="cls-3" d="M6898.67,3386.54h0a43.28,43.28,0,0,1,43.28-43.28h1.51" transform="translate(-4301.81 -2934.7)"/><path class="cls-2" d="M6824.92,3342.51h0a43.27,43.27,0,0,1,43.28,43.27v1.52" transform="translate(-4301.81 -2934.7)"/><path class="cls-2" d="M7011.77,3258.28h0a43.28,43.28,0,0,1-43.28,43.28H6967" transform="translate(-4301.81 -2934.7)"/><path class="cls-1" d="M7084.51,3302.31h0a43.27,43.27,0,0,1-43.27-43.27v-1.52" transform="translate(-4301.81 -2934.7)"/><path class="cls-2" d="M7029.24,3340.79h0a43.28,43.28,0,0,1,43.28,43.28v1.51" transform="translate(-4301.81 -2934.7)"/><path class="cls-2" d="M7021.34,3341.3h0a43.28,43.28,0,0,0-43.28,43.28v1.51" transform="translate(-4301.81 -2934.7)"/><path class="cls-2" d="M7077.88,3473.27h0A43.28,43.28,0,0,0,7034.6,3430h-1.51" transform="translate(-4301.81 -2934.7)"/><path class="cls-1" d="M7021.67,3430h0a43.28,43.28,0,0,0-43.28,43.28v1.51" transform="translate(-4301.81 -2934.7)"/><path class="cls-3" d="M7013.63,3547.61h0a43.28,43.28,0,0,0-43.28-43.28h-1.51" transform="translate(-4301.81 -2934.7)"/><path class="cls-2" d="M7087.37,3502.82h0a43.28,43.28,0,0,0-43.27,43.28v1.51" transform="translate(-4301.81 -2934.7)"/><path class="cls-3" d="M6900.53,3420.59h0a43.28,43.28,0,0,0,43.28,43.28h1.51" transform="translate(-4301.81 -2934.7)"/><path class="cls-2" d="M6827.79,3464.62h0a43.27,43.27,0,0,0,43.27-43.27v-1.51" transform="translate(-4301.81 -2934.7)"/><path class="cls-2" d="M6883.05,3502.82h0a43.28,43.28,0,0,0-43.27,43.28v1.51" transform="translate(-4301.81 -2934.7)"/><path class="cls-2" d="M6891,3502.82h0a43.28,43.28,0,0,1,43.27,43.28v1.51" transform="translate(-4301.81 -2934.7)"/><path class="cls-2" d="M6797.29,3471.45h0a43.28,43.28,0,0,0-43.28-43.27h-1.51" transform="translate(-4301.81 -2934.7)"/><path class="cls-2" d="M6741.07,3428.18h0a43.27,43.27,0,0,0-43.27,43.27V3473" transform="translate(-4301.81 -2934.7)"/><path class="cls-2" d="M6733,3547.61h0a43.28,43.28,0,0,0-43.27-43.28h-1.51" transform="translate(-4301.81 -2934.7)"/><path class="cls-1" d="M6806.78,3502.82h0a43.28,43.28,0,0,0-43.28,43.28v1.51" transform="translate(-4301.81 -2934.7)"/><path class="cls-1" d="M6619.94,3418.78h0a43.28,43.28,0,0,0,43.27,43.28h1.52" transform="translate(-4301.81 -2934.7)"/><path class="cls-2" d="M6547.19,3462.81h0a43.28,43.28,0,0,0,43.28-43.27V3418" transform="translate(-4301.81 -2934.7)"/><path class="cls-3" d="M6602.46,3502.82h0a43.28,43.28,0,0,0-43.28,43.28v1.51" transform="translate(-4301.81 -2934.7)"/><path class="cls-2" d="M6610.37,3502.82h0a43.28,43.28,0,0,1,43.27,43.28v1.51" transform="translate(-4301.81 -2934.7)"/><path class="cls-1" d="M7114.88,3309.24h0a43.28,43.28,0,0,1,43.28-43.28h1.51" transform="translate(-4301.81 -2934.7)"/><path class="cls-2" d="M7171.1,3266h0a43.28,43.28,0,0,1,43.27,43.28v1.51" transform="translate(-4301.81 -2934.7)"/><path class="cls-2" d="M7179.14,3384.82h0a43.27,43.27,0,0,1,43.27-43.27h1.51" transform="translate(-4301.81 -2934.7)"/><path class="cls-3" d="M7105.39,3340.79h0a43.28,43.28,0,0,1,43.28,43.28v1.51" transform="translate(-4301.81 -2934.7)"/><path class="cls-2" d="M7292.23,3256.57h0a43.27,43.27,0,0,1-43.27,43.27h-1.52" transform="translate(-4301.81 -2934.7)"/><path class="cls-3" d="M7365,3300.6h0a43.28,43.28,0,0,1-43.28-43.28v-1.51" transform="translate(-4301.81 -2934.7)"/><path class="cls-2" d="M7309.71,3339.08h0a43.28,43.28,0,0,1,43.28,43.27v1.51" transform="translate(-4301.81 -2934.7)"/><path class="cls-1" d="M7301.8,3339.59h0a43.27,43.27,0,0,0-43.27,43.27v1.52" transform="translate(-4301.81 -2934.7)"/><path class="cls-2" d="M7395.48,3307.43h0a43.27,43.27,0,0,1,43.27-43.28h1.51" transform="translate(-4301.81 -2934.7)"/><path class="cls-2" d="M7451.69,3264.15h0a43.27,43.27,0,0,1,43.27,43.28v1.51" transform="translate(-4301.81 -2934.7)"/><path class="cls-3" d="M7459.73,3383h0a43.28,43.28,0,0,1,43.28-43.28h1.51" transform="translate(-4301.81 -2934.7)"/><path class="cls-2" d="M7386,3339h0a43.27,43.27,0,0,1,43.28,43.27v1.52" transform="translate(-4301.81 -2934.7)"/><path class="cls-2" d="M7572.83,3254.75h0a43.28,43.28,0,0,1-43.28,43.28H7528" transform="translate(-4301.81 -2934.7)"/><path class="cls-1" d="M7645.57,3298.78h0a43.27,43.27,0,0,1-43.27-43.27V3254" transform="translate(-4301.81 -2934.7)"/><path class="cls-2" d="M7590.3,3337.26h0a43.28,43.28,0,0,1,43.28,43.28v1.51" transform="translate(-4301.81 -2934.7)"/><path class="cls-2" d="M7582.4,3337.77h0a43.28,43.28,0,0,0-43.28,43.28v1.51" transform="translate(-4301.81 -2934.7)"/><path class="cls-2" d="M7638.94,3469.74h0a43.28,43.28,0,0,0-43.28-43.28h-1.51" transform="translate(-4301.81 -2934.7)"/><path class="cls-1" d="M7582.73,3426.46h0a43.28,43.28,0,0,0-43.28,43.28v1.51" transform="translate(-4301.81 -2934.7)"/><path class="cls-3" d="M7574.69,3547.61h0a43.28,43.28,0,0,0-43.28-43.28h-1.51" transform="translate(-4301.81 -2934.7)"/><path class="cls-2" d="M7648.43,3502.82h0a43.28,43.28,0,0,0-43.27,43.28v1.51" transform="translate(-4301.81 -2934.7)"/><path class="cls-3" d="M7461.59,3417.06h0a43.28,43.28,0,0,0,43.28,43.28h1.51" transform="translate(-4301.81 -2934.7)"/><path class="cls-2" d="M7388.85,3461.1h0a43.28,43.28,0,0,0,43.27-43.28v-1.51" transform="translate(-4301.81 -2934.7)"/><path class="cls-2" d="M7444.11,3502.82h0a43.28,43.28,0,0,0-43.27,43.28v1.51" transform="translate(-4301.81 -2934.7)"/><path class="cls-2" d="M7452,3502.82h0a43.28,43.28,0,0,1,43.27,43.28v1.51" transform="translate(-4301.81 -2934.7)"/><path class="cls-2" d="M7358.35,3467.92h0a43.28,43.28,0,0,0-43.28-43.27h-1.51" transform="translate(-4301.81 -2934.7)"/><path class="cls-2" d="M7302.13,3424.65h0a43.27,43.27,0,0,0-43.27,43.27v1.52" transform="translate(-4301.81 -2934.7)"/><path class="cls-2" d="M7294.09,3547.61h0a43.28,43.28,0,0,0-43.27-43.28h-1.51" transform="translate(-4301.81 -2934.7)"/><path class="cls-1" d="M7367.84,3502.82h0a43.28,43.28,0,0,0-43.28,43.28v1.51" transform="translate(-4301.81 -2934.7)"/><path class="cls-1" d="M7181,3415.25h0a43.28,43.28,0,0,0,43.27,43.28h1.51" transform="translate(-4301.81 -2934.7)"/><path class="cls-2" d="M7108.25,3459.28h0a43.28,43.28,0,0,0,43.28-43.27v-1.52" transform="translate(-4301.81 -2934.7)"/><path class="cls-3" d="M7163.52,3502.82h0a43.28,43.28,0,0,0-43.28,43.28v1.51" transform="translate(-4301.81 -2934.7)"/><path class="cls-2" d="M7171.43,3502.82h0a43.28,43.28,0,0,1,43.27,43.28v1.51" transform="translate(-4301.81 -2934.7)"/><path class="cls-1" d="M7672.2,3001.46h0a43.28,43.28,0,0,1,43.27-43.28H7717" transform="translate(-4301.81 -2934.7)"/><path class="cls-2" d="M7728.41,2958.18h0a43.28,43.28,0,0,1,43.28,43.28V3003" transform="translate(-4301.81 -2934.7)"/><path class="cls-2" d="M7736.45,3077h0a43.28,43.28,0,0,1,43.28-43.27h1.51" transform="translate(-4301.81 -2934.7)"/><path class="cls-3" d="M7662.71,3033h0a43.28,43.28,0,0,1,43.27,43.28v1.51" transform="translate(-4301.81 -2934.7)"/><path class="cls-2" d="M7849.55,2948.78h0a43.28,43.28,0,0,1-43.28,43.28h-1.51" transform="translate(-4301.81 -2934.7)"/><path class="cls-3" d="M7922.29,2992.81h0a43.27,43.27,0,0,1-43.27-43.27V2948" transform="translate(-4301.81 -2934.7)"/><path class="cls-2" d="M7867,3031.3h0a43.27,43.27,0,0,1,43.27,43.27v1.51" transform="translate(-4301.81 -2934.7)"/><path class="cls-1" d="M7859.12,3031.81h0a43.28,43.28,0,0,0-43.28,43.27v1.51" transform="translate(-4301.81 -2934.7)"/><path class="cls-2" d="M7952.79,2999.64h0a43.28,43.28,0,0,1,43.28-43.27h1.51" transform="translate(-4301.81 -2934.7)"/><path class="cls-2" d="M8009,2956.37h0a43.28,43.28,0,0,1,43.28,43.27v1.52" transform="translate(-4301.81 -2934.7)"/><path class="cls-3" d="M8017.05,3075.23h0a43.28,43.28,0,0,1,43.27-43.28h1.51" transform="translate(-4301.81 -2934.7)"/><path class="cls-2" d="M7943.3,3031.2h0a43.28,43.28,0,0,1,43.28,43.27V3076" transform="translate(-4301.81 -2934.7)"/><path class="cls-2" d="M8130.14,2947h0a43.28,43.28,0,0,1-43.28,43.28h-1.51" transform="translate(-4301.81 -2934.7)"/><path class="cls-1" d="M8202.89,2991h0a43.28,43.28,0,0,1-43.28-43.27v-1.52" transform="translate(-4301.81 -2934.7)"/><path class="cls-2" d="M8147.62,3029.48h0a43.28,43.28,0,0,1,43.28,43.28v1.51" transform="translate(-4301.81 -2934.7)"/><path class="cls-2" d="M8139.71,3030h0a43.28,43.28,0,0,0-43.27,43.28v1.51" transform="translate(-4301.81 -2934.7)"/><path class="cls-2" d="M8196.26,3162h0a43.28,43.28,0,0,0-43.28-43.28h-1.51" transform="translate(-4301.81 -2934.7)"/><path class="cls-1" d="M8140,3118.68h0a43.28,43.28,0,0,0-43.27,43.28v1.51" transform="translate(-4301.81 -2934.7)"/><path class="cls-3" d="M8132,3237.54h0a43.27,43.27,0,0,0-43.27-43.27h-1.52" transform="translate(-4301.81 -2934.7)"/><path class="cls-2" d="M8205.75,3193.51h0a43.28,43.28,0,0,0-43.28,43.28v1.51" transform="translate(-4301.81 -2934.7)"/><path class="cls-3" d="M8018.91,3109.28h0a43.28,43.28,0,0,0,43.27,43.28h1.51" transform="translate(-4301.81 -2934.7)"/><path class="cls-2" d="M7946.16,3153.31h0a43.28,43.28,0,0,0,43.28-43.27v-1.51" transform="translate(-4301.81 -2934.7)"/><path class="cls-2" d="M8001.43,3191.79h0a43.28,43.28,0,0,0-43.28,43.28v1.51" transform="translate(-4301.81 -2934.7)"/><path class="cls-2" d="M8009.33,3192.31h0a43.28,43.28,0,0,1,43.28,43.27v1.51" transform="translate(-4301.81 -2934.7)"/><path class="cls-2" d="M7915.66,3160.14h0a43.27,43.27,0,0,0-43.27-43.27h-1.52" transform="translate(-4301.81 -2934.7)"/><path class="cls-2" d="M7859.45,3116.87h0a43.28,43.28,0,0,0-43.28,43.27v1.51" transform="translate(-4301.81 -2934.7)"/><path class="cls-2" d="M7851.41,3235.73h0a43.28,43.28,0,0,0-43.28-43.28h-1.51" transform="translate(-4301.81 -2934.7)"/><path class="cls-1" d="M7925.15,3191.7h0a43.27,43.27,0,0,0-43.27,43.27v1.51" transform="translate(-4301.81 -2934.7)"/><path class="cls-1" d="M7738.31,3107.47h0a43.28,43.28,0,0,0,43.28,43.27h1.51" transform="translate(-4301.81 -2934.7)"/><path class="cls-2" d="M7665.57,3151.5h0a43.28,43.28,0,0,0,43.27-43.28v-1.51" transform="translate(-4301.81 -2934.7)"/><path class="cls-3" d="M7720.83,3190h0a43.28,43.28,0,0,0-43.27,43.28v1.51" transform="translate(-4301.81 -2934.7)"/><path class="cls-2" d="M7728.74,3190.49h0a43.28,43.28,0,0,1,43.28,43.28v1.51" transform="translate(-4301.81 -2934.7)"/><path class="cls-1" d="M8233.26,2997.93h0a43.28,43.28,0,0,1,43.27-43.28h1.52" transform="translate(-4301.81 -2934.7)"/><path class="cls-2" d="M8289.47,2954.65h0a43.28,43.28,0,0,1,43.28,43.28v1.51" transform="translate(-4301.81 -2934.7)"/><path class="cls-2" d="M8297.51,3073.51h0a43.28,43.28,0,0,1,43.28-43.27h1.51" transform="translate(-4301.81 -2934.7)"/><path class="cls-3" d="M8223.77,3029.48h0a43.28,43.28,0,0,1,43.27,43.28v1.51" transform="translate(-4301.81 -2934.7)"/><path class="cls-2" d="M8410.61,2945.25h0a43.28,43.28,0,0,1-43.28,43.28h-1.51" transform="translate(-4301.81 -2934.7)"/><path class="cls-3" d="M8483.35,2989.29h0a43.28,43.28,0,0,1-43.27-43.28v-1.51" transform="translate(-4301.81 -2934.7)"/><path class="cls-2" d="M8428.09,3027.77h0a43.27,43.27,0,0,1,43.27,43.27v1.51" transform="translate(-4301.81 -2934.7)"/><path class="cls-1" d="M8420.18,3028.28h0a43.28,43.28,0,0,0-43.28,43.27v1.51" transform="translate(-4301.81 -2934.7)"/><path class="cls-2" d="M8513.85,2996.11h0a43.28,43.28,0,0,1,43.28-43.27h1.51" transform="translate(-4301.81 -2934.7)"/><path class="cls-2" d="M8570.06,2952.84h0a43.28,43.28,0,0,1,43.28,43.27v1.52" transform="translate(-4301.81 -2934.7)"/><path class="cls-3" d="M8578.11,3071.7h0a43.28,43.28,0,0,1,43.27-43.28h1.51" transform="translate(-4301.81 -2934.7)"/><path class="cls-2" d="M8504.36,3027.67h0a43.28,43.28,0,0,1,43.28,43.27v1.51" transform="translate(-4301.81 -2934.7)"/><path class="cls-2" d="M8691.2,2943.44h0a43.28,43.28,0,0,1-43.28,43.28h-1.51" transform="translate(-4301.81 -2934.7)"/><path class="cls-1" d="M8764,2987.47h0a43.28,43.28,0,0,1-43.28-43.27v-1.52" transform="translate(-4301.81 -2934.7)"/><path class="cls-2" d="M8708.68,3026h0a43.28,43.28,0,0,1,43.27,43.28v1.51" transform="translate(-4301.81 -2934.7)"/><path class="cls-2" d="M8700.77,3026.46h0a43.28,43.28,0,0,0-43.27,43.28v1.51" transform="translate(-4301.81 -2934.7)"/><path class="cls-2" d="M8757.32,3158.43h0a43.28,43.28,0,0,0-43.28-43.28h-1.51" transform="translate(-4301.81 -2934.7)"/><path class="cls-1" d="M8701.1,3115.15h0a43.28,43.28,0,0,0-43.27,43.28v1.51" transform="translate(-4301.81 -2934.7)"/><path class="cls-3" d="M8693.06,3234h0a43.27,43.27,0,0,0-43.27-43.27h-1.52" transform="translate(-4301.81 -2934.7)"/><path class="cls-2" d="M8766.81,3190h0a43.28,43.28,0,0,0-43.28,43.28v1.51" transform="translate(-4301.81 -2934.7)"/><path class="cls-3" d="M8580,3105.75h0a43.28,43.28,0,0,0,43.27,43.28h1.51" transform="translate(-4301.81 -2934.7)"/><path class="cls-2" d="M8507.22,3149.78h0a43.28,43.28,0,0,0,43.28-43.27V3105" transform="translate(-4301.81 -2934.7)"/><path class="cls-2" d="M8562.49,3188.26h0a43.28,43.28,0,0,0-43.28,43.28v1.51" transform="translate(-4301.81 -2934.7)"/><path class="cls-2" d="M8570.39,3188.78h0a43.28,43.28,0,0,1,43.28,43.27v1.51" transform="translate(-4301.81 -2934.7)"/><path class="cls-2" d="M8476.72,3156.61h0a43.27,43.27,0,0,0-43.27-43.27h-1.52" transform="translate(-4301.81 -2934.7)"/><path class="cls-2" d="M8420.51,3113.34h0a43.28,43.28,0,0,0-43.28,43.27v1.51" transform="translate(-4301.81 -2934.7)"/><path class="cls-2" d="M8412.47,3232.2h0a43.28,43.28,0,0,0-43.28-43.28h-1.51" transform="translate(-4301.81 -2934.7)"/><path class="cls-1" d="M8486.21,3188.17h0a43.27,43.27,0,0,0-43.27,43.27V3233" transform="translate(-4301.81 -2934.7)"/><path class="cls-1" d="M8299.37,3103.94h0a43.28,43.28,0,0,0,43.28,43.27h1.51" transform="translate(-4301.81 -2934.7)"/><path class="cls-2" d="M8226.63,3148h0a43.28,43.28,0,0,0,43.27-43.28v-1.51" transform="translate(-4301.81 -2934.7)"/><path class="cls-3" d="M8281.89,3186.45h0a43.28,43.28,0,0,0-43.27,43.28v1.51" transform="translate(-4301.81 -2934.7)"/><path class="cls-2" d="M8289.8,3187h0a43.28,43.28,0,0,1,43.28,43.28v1.51" transform="translate(-4301.81 -2934.7)"/><path class="cls-1" d="M7672.2,3310.77h0a43.28,43.28,0,0,1,43.27-43.28H7717" transform="translate(-4301.81 -2934.7)"/><path class="cls-2" d="M7728.41,3267.49h0a43.28,43.28,0,0,1,43.28,43.28v1.51" transform="translate(-4301.81 -2934.7)"/><path class="cls-2" d="M7736.45,3386.35h0a43.28,43.28,0,0,1,43.28-43.27h1.51" transform="translate(-4301.81 -2934.7)"/><path class="cls-3" d="M7662.71,3342.32h0A43.28,43.28,0,0,1,7706,3385.6v1.51" transform="translate(-4301.81 -2934.7)"/><path class="cls-2" d="M7849.55,3258.09h0a43.28,43.28,0,0,1-43.28,43.28h-1.51" transform="translate(-4301.81 -2934.7)"/><path class="cls-3" d="M7922.29,3302.13h0a43.28,43.28,0,0,1-43.27-43.28v-1.51" transform="translate(-4301.81 -2934.7)"/><path class="cls-2" d="M7867,3340.61h0a43.27,43.27,0,0,1,43.27,43.27v1.51" transform="translate(-4301.81 -2934.7)"/><path class="cls-1" d="M7859.12,3341.12h0a43.28,43.28,0,0,0-43.28,43.27v1.52" transform="translate(-4301.81 -2934.7)"/><path class="cls-2" d="M7952.79,3309h0a43.28,43.28,0,0,1,43.28-43.28h1.51" transform="translate(-4301.81 -2934.7)"/><path class="cls-2" d="M8009,3265.68h0a43.28,43.28,0,0,1,43.28,43.28v1.51" transform="translate(-4301.81 -2934.7)"/><path class="cls-3" d="M8017.05,3384.54h0a43.28,43.28,0,0,1,43.27-43.28h1.51" transform="translate(-4301.81 -2934.7)"/><path class="cls-2" d="M7943.3,3340.51h0a43.28,43.28,0,0,1,43.28,43.27v1.52" transform="translate(-4301.81 -2934.7)"/><path class="cls-2" d="M8130.14,3256.28h0a43.28,43.28,0,0,1-43.28,43.28h-1.51" transform="translate(-4301.81 -2934.7)"/><path class="cls-1" d="M8202.89,3300.31h0a43.28,43.28,0,0,1-43.28-43.27v-1.52" transform="translate(-4301.81 -2934.7)"/><path class="cls-2" d="M8147.62,3338.79h0a43.28,43.28,0,0,1,43.28,43.28v1.51" transform="translate(-4301.81 -2934.7)"/><path class="cls-2" d="M8139.71,3339.3h0a43.28,43.28,0,0,0-43.27,43.28v1.51" transform="translate(-4301.81 -2934.7)"/><path class="cls-2" d="M8196.26,3471.27h0A43.28,43.28,0,0,0,8153,3428h-1.51" transform="translate(-4301.81 -2934.7)"/><path class="cls-1" d="M8140,3428h0a43.28,43.28,0,0,0-43.27,43.28v1.51" transform="translate(-4301.81 -2934.7)"/><path class="cls-3" d="M8132,3546.85h0a43.27,43.27,0,0,0-43.27-43.27h-1.52" transform="translate(-4301.81 -2934.7)"/><path class="cls-2" d="M8205.75,3502.82h0a43.28,43.28,0,0,0-43.28,43.28v1.51" transform="translate(-4301.81 -2934.7)"/><path class="cls-3" d="M8018.91,3418.59h0a43.28,43.28,0,0,0,43.27,43.28h1.51" transform="translate(-4301.81 -2934.7)"/><path class="cls-2" d="M7946.16,3462.62h0a43.28,43.28,0,0,0,43.28-43.27v-1.51" transform="translate(-4301.81 -2934.7)"/><path class="cls-2" d="M8001.43,3501.11h0a43.28,43.28,0,0,0-43.28,43.27v1.51" transform="translate(-4301.81 -2934.7)"/><path class="cls-2" d="M8009.33,3501.62h0a43.28,43.28,0,0,1,43.28,43.27v1.51" transform="translate(-4301.81 -2934.7)"/><path class="cls-2" d="M7915.66,3469.45h0a43.27,43.27,0,0,0-43.27-43.27h-1.52" transform="translate(-4301.81 -2934.7)"/><path class="cls-2" d="M7859.45,3426.18h0a43.28,43.28,0,0,0-43.28,43.27V3471" transform="translate(-4301.81 -2934.7)"/><path class="cls-2" d="M7851.41,3545h0a43.28,43.28,0,0,0-43.28-43.28h-1.51" transform="translate(-4301.81 -2934.7)"/><path class="cls-1" d="M7925.15,3501h0a43.27,43.27,0,0,0-43.27,43.27v1.51" transform="translate(-4301.81 -2934.7)"/><path class="cls-1" d="M7738.31,3416.78h0a43.28,43.28,0,0,0,43.28,43.28h1.51" transform="translate(-4301.81 -2934.7)"/><path class="cls-2" d="M7665.57,3460.81h0a43.27,43.27,0,0,0,43.27-43.27V3416" transform="translate(-4301.81 -2934.7)"/><path class="cls-3" d="M7720.83,3499.29h0a43.28,43.28,0,0,0-43.27,43.28v1.51" transform="translate(-4301.81 -2934.7)"/><path class="cls-2" d="M7728.74,3499.8h0a43.28,43.28,0,0,1,43.28,43.28v1.51" transform="translate(-4301.81 -2934.7)"/><path class="cls-1" d="M8233.26,3307.24h0a43.28,43.28,0,0,1,43.27-43.28h1.52" transform="translate(-4301.81 -2934.7)"/><path class="cls-2" d="M8289.47,3264h0a43.28,43.28,0,0,1,43.28,43.28v1.51" transform="translate(-4301.81 -2934.7)"/><path class="cls-2" d="M8297.51,3382.82h0a43.28,43.28,0,0,1,43.28-43.27h1.51" transform="translate(-4301.81 -2934.7)"/><path class="cls-3" d="M8223.77,3338.79h0a43.28,43.28,0,0,1,43.27,43.28v1.51" transform="translate(-4301.81 -2934.7)"/><path class="cls-2" d="M8410.61,3254.57h0a43.28,43.28,0,0,1-43.28,43.27h-1.51" transform="translate(-4301.81 -2934.7)"/><path class="cls-3" d="M8483.35,3298.6h0a43.28,43.28,0,0,1-43.27-43.28v-1.51" transform="translate(-4301.81 -2934.7)"/><path class="cls-2" d="M8428.09,3337.08h0a43.27,43.27,0,0,1,43.27,43.27v1.51" transform="translate(-4301.81 -2934.7)"/><path class="cls-1" d="M8420.18,3337.59h0a43.28,43.28,0,0,0-43.28,43.27v1.52" transform="translate(-4301.81 -2934.7)"/><path class="cls-2" d="M8513.85,3305.43h0a43.28,43.28,0,0,1,43.28-43.28h1.51" transform="translate(-4301.81 -2934.7)"/><path class="cls-2" d="M8570.06,3262.15h0a43.28,43.28,0,0,1,43.28,43.28v1.51" transform="translate(-4301.81 -2934.7)"/><path class="cls-3" d="M8578.11,3381h0a43.28,43.28,0,0,1,43.27-43.28h1.51" transform="translate(-4301.81 -2934.7)"/><path class="cls-2" d="M8504.36,3337h0a43.28,43.28,0,0,1,43.28,43.27v1.52" transform="translate(-4301.81 -2934.7)"/><path class="cls-2" d="M8691.2,3252.75h0a43.28,43.28,0,0,1-43.28,43.28h-1.51" transform="translate(-4301.81 -2934.7)"/><path class="cls-1" d="M8764,3296.78h0a43.28,43.28,0,0,1-43.28-43.27V3252" transform="translate(-4301.81 -2934.7)"/><path class="cls-2" d="M8708.68,3335.26h0a43.28,43.28,0,0,1,43.27,43.28v1.51" transform="translate(-4301.81 -2934.7)"/><path class="cls-2" d="M8700.77,3335.77h0a43.28,43.28,0,0,0-43.27,43.28v1.51" transform="translate(-4301.81 -2934.7)"/><path class="cls-2" d="M8757.32,3467.74h0a43.28,43.28,0,0,0-43.28-43.28h-1.51" transform="translate(-4301.81 -2934.7)"/><path class="cls-1" d="M8701.1,3424.46h0a43.28,43.28,0,0,0-43.27,43.28v1.51" transform="translate(-4301.81 -2934.7)"/><path class="cls-3" d="M8693.06,3543.32h0a43.27,43.27,0,0,0-43.27-43.27h-1.52" transform="translate(-4301.81 -2934.7)"/><path class="cls-2" d="M8766.81,3499.29h0a43.28,43.28,0,0,0-43.28,43.28v1.51" transform="translate(-4301.81 -2934.7)"/><path class="cls-3" d="M8580,3415.06h0a43.28,43.28,0,0,0,43.27,43.28h1.51" transform="translate(-4301.81 -2934.7)"/><path class="cls-2" d="M8507.22,3459.1h0a43.28,43.28,0,0,0,43.28-43.28v-1.51" transform="translate(-4301.81 -2934.7)"/><path class="cls-2" d="M8562.49,3497.58h0a43.28,43.28,0,0,0-43.28,43.27v1.51" transform="translate(-4301.81 -2934.7)"/><path class="cls-2" d="M8570.39,3498.09h0a43.28,43.28,0,0,1,43.28,43.27v1.51" transform="translate(-4301.81 -2934.7)"/><path class="cls-2" d="M8476.72,3465.92h0a43.27,43.27,0,0,0-43.27-43.27h-1.52" transform="translate(-4301.81 -2934.7)"/><path class="cls-2" d="M8420.51,3422.65h0a43.28,43.28,0,0,0-43.28,43.27v1.52" transform="translate(-4301.81 -2934.7)"/><path class="cls-2" d="M8412.47,3541.51h0a43.28,43.28,0,0,0-43.28-43.28h-1.51" transform="translate(-4301.81 -2934.7)"/><path class="cls-1" d="M8486.21,3497.48h0a43.27,43.27,0,0,0-43.27,43.27v1.51" transform="translate(-4301.81 -2934.7)"/><path class="cls-1" d="M8299.37,3413.25h0a43.28,43.28,0,0,0,43.28,43.28h1.51" transform="translate(-4301.81 -2934.7)"/><path class="cls-2" d="M8226.63,3457.28h0A43.27,43.27,0,0,0,8269.9,3414v-1.52" transform="translate(-4301.81 -2934.7)"/><path class="cls-3" d="M8281.89,3495.76h0a43.28,43.28,0,0,0-43.27,43.28v1.51" transform="translate(-4301.81 -2934.7)"/><path class="cls-2" d="M8289.8,3496.27h0a43.28,43.28,0,0,1,43.28,43.28v1.51" transform="translate(-4301.81 -2934.7)"/></g></g></svg>