<svg xmlns="http://www.w3.org/2000/svg" viewBox="0 0 4493.52 620.9"><defs><style>.cls-1,.cls-2,.cls-3{fill:none;stroke-miterlimit:10;stroke-width:19px;}.cls-1{stroke:#fffbf7;}.cls-2{stroke:#d1d84c;}.cls-3{stroke:#003a33;}</style></defs><g id="Camada_2" data-name="Camada 2"><g id="Camada_1-2" data-name="Camada 1"><path class="cls-1" d="M4284.31,3723.91h0a43.28,43.28,0,0,1,43.27-43.28h1.51" transform="translate(-4274.81 -3655.15)"/><path class="cls-2" d="M4340.52,3680.63h0a43.28,43.28,0,0,1,43.28,43.28v1.51" transform="translate(-4274.81 -3655.15)"/><path class="cls-2" d="M4348.56,3799.49h0a43.28,43.28,0,0,1,43.28-43.27h1.51" transform="translate(-4274.81 -3655.15)"/><path class="cls-3" d="M4274.82,3755.46h0a43.28,43.28,0,0,1,43.27,43.28v1.51" transform="translate(-4274.81 -3655.15)"/><path class="cls-2" d="M4461.66,3671.23h0a43.28,43.28,0,0,1-43.28,43.28h-1.51" transform="translate(-4274.81 -3655.15)"/><path class="cls-3" d="M4534.4,3715.26h0a43.27,43.27,0,0,1-43.27-43.27v-1.51" transform="translate(-4274.81 -3655.15)"/><path class="cls-2" d="M4479.14,3753.74h0a43.28,43.28,0,0,1,43.27,43.28v1.51" transform="translate(-4274.81 -3655.15)"/><path class="cls-1" d="M4471.23,3754.26h0a43.28,43.28,0,0,0-43.28,43.27V3799" transform="translate(-4274.81 -3655.15)"/><path class="cls-2" d="M4564.9,3722.09h0a43.28,43.28,0,0,1,43.28-43.27h1.51" transform="translate(-4274.81 -3655.15)"/><path class="cls-2" d="M4621.11,3678.82h0a43.28,43.28,0,0,1,43.28,43.27v1.52" transform="translate(-4274.81 -3655.15)"/><path class="cls-3" d="M4629.15,3797.68h0a43.28,43.28,0,0,1,43.28-43.28h1.51" transform="translate(-4274.81 -3655.15)"/><path class="cls-2" d="M4555.41,3753.65h0a43.27,43.27,0,0,1,43.27,43.27v1.51" transform="translate(-4274.81 -3655.15)"/><path class="cls-2" d="M4742.25,3669.42h0a43.28,43.28,0,0,1-43.28,43.27h-1.51" transform="translate(-4274.81 -3655.15)"/><path class="cls-1" d="M4815,3713.45h0a43.27,43.27,0,0,1-43.28-43.27v-1.52" transform="translate(-4274.81 -3655.15)"/><path class="cls-2" d="M4759.73,3751.93h0a43.28,43.28,0,0,1,43.27,43.28v1.51" transform="translate(-4274.81 -3655.15)"/><path class="cls-2" d="M4751.82,3752.44h0a43.28,43.28,0,0,0-43.27,43.28v1.51" transform="translate(-4274.81 -3655.15)"/><path class="cls-2" d="M4808.36,3884.41h0a43.28,43.28,0,0,0-43.27-43.28h-1.51" transform="translate(-4274.81 -3655.15)"/><path class="cls-1" d="M4752.15,3841.13h0a43.28,43.28,0,0,0-43.27,43.28v1.51" transform="translate(-4274.81 -3655.15)"/><path class="cls-3" d="M4744.11,3960h0a43.27,43.27,0,0,0-43.28-43.27h-1.51" transform="translate(-4274.81 -3655.15)"/><path class="cls-2" d="M4817.86,3916h0a43.28,43.28,0,0,0-43.28,43.27v1.52" transform="translate(-4274.81 -3655.15)"/><path class="cls-3" d="M4631,3831.73h0a43.28,43.28,0,0,0,43.27,43.28h1.51" transform="translate(-4274.81 -3655.15)"/><path class="cls-2" d="M4558.27,3875.76h0a43.28,43.28,0,0,0,43.28-43.27V3831" transform="translate(-4274.81 -3655.15)"/><path class="cls-2" d="M4613.54,3914.24h0a43.28,43.28,0,0,0-43.28,43.28V3959" transform="translate(-4274.81 -3655.15)"/><path class="cls-2" d="M4621.44,3914.76h0a43.28,43.28,0,0,1,43.28,43.27v1.51" transform="translate(-4274.81 -3655.15)"/><path class="cls-2" d="M4527.77,3882.59h0a43.27,43.27,0,0,0-43.27-43.27H4483" transform="translate(-4274.81 -3655.15)"/><path class="cls-2" d="M4471.56,3839.32h0a43.28,43.28,0,0,0-43.28,43.27v1.51" transform="translate(-4274.81 -3655.15)"/><path class="cls-2" d="M4463.52,3958.18h0a43.28,43.28,0,0,0-43.28-43.28h-1.51" transform="translate(-4274.81 -3655.15)"/><path class="cls-1" d="M4537.26,3914.15h0a43.27,43.27,0,0,0-43.27,43.27v1.51" transform="translate(-4274.81 -3655.15)"/><path class="cls-1" d="M4350.42,3829.92h0a43.28,43.28,0,0,0,43.28,43.27h1.51" transform="translate(-4274.81 -3655.15)"/><path class="cls-2" d="M4277.68,3874h0a43.28,43.28,0,0,0,43.27-43.28v-1.51" transform="translate(-4274.81 -3655.15)"/><path class="cls-3" d="M4332.94,3912.43h0a43.27,43.27,0,0,0-43.27,43.28v1.51" transform="translate(-4274.81 -3655.15)"/><path class="cls-2" d="M4340.85,3912.94h0a43.28,43.28,0,0,1,43.28,43.28v1.51" transform="translate(-4274.81 -3655.15)"/><path class="cls-1" d="M4845.37,3720.38h0a43.28,43.28,0,0,1,43.27-43.28h1.51" transform="translate(-4274.81 -3655.15)"/><path class="cls-2" d="M4901.58,3677.1h0a43.28,43.28,0,0,1,43.28,43.28v1.51" transform="translate(-4274.81 -3655.15)"/><path class="cls-2" d="M4909.62,3796h0a43.28,43.28,0,0,1,43.28-43.27h1.51" transform="translate(-4274.81 -3655.15)"/><path class="cls-3" d="M4835.88,3751.93h0a43.28,43.28,0,0,1,43.27,43.28v1.51" transform="translate(-4274.81 -3655.15)"/><path class="cls-2" d="M5022.72,3667.7h0a43.28,43.28,0,0,1-43.28,43.28h-1.51" transform="translate(-4274.81 -3655.15)"/><path class="cls-3" d="M5095.46,3711.73h0a43.27,43.27,0,0,1-43.27-43.27V3667" transform="translate(-4274.81 -3655.15)"/><path class="cls-2" d="M5040.2,3750.22h0a43.27,43.27,0,0,1,43.27,43.27V3795" transform="translate(-4274.81 -3655.15)"/><path class="cls-1" d="M5032.29,3750.73h0A43.28,43.28,0,0,0,4989,3794v1.51" transform="translate(-4274.81 -3655.15)"/><path class="cls-2" d="M5126,3718.56h0a43.28,43.28,0,0,1,43.28-43.27h1.51" transform="translate(-4274.81 -3655.15)"/><path class="cls-2" d="M5182.17,3675.29h0a43.28,43.28,0,0,1,43.28,43.27v1.52" transform="translate(-4274.81 -3655.15)"/><path class="cls-3" d="M5190.21,3794.15h0a43.28,43.28,0,0,1,43.28-43.28H5235" transform="translate(-4274.81 -3655.15)"/><path class="cls-2" d="M5116.47,3750.12h0a43.27,43.27,0,0,1,43.27,43.27v1.51" transform="translate(-4274.81 -3655.15)"/><path class="cls-2" d="M5303.31,3665.89h0a43.28,43.28,0,0,1-43.28,43.28h-1.51" transform="translate(-4274.81 -3655.15)"/><path class="cls-1" d="M5376.05,3709.92h0a43.27,43.27,0,0,1-43.27-43.27v-1.52" transform="translate(-4274.81 -3655.15)"/><path class="cls-2" d="M5320.79,3748.4h0a43.28,43.28,0,0,1,43.27,43.28v1.51" transform="translate(-4274.81 -3655.15)"/><path class="cls-2" d="M5312.88,3748.91h0a43.28,43.28,0,0,0-43.27,43.28v1.51" transform="translate(-4274.81 -3655.15)"/><path class="cls-2" d="M5369.42,3880.88h0a43.28,43.28,0,0,0-43.27-43.28h-1.51" transform="translate(-4274.81 -3655.15)"/><path class="cls-1" d="M5313.21,3837.6h0a43.28,43.28,0,0,0-43.27,43.28v1.51" transform="translate(-4274.81 -3655.15)"/><path class="cls-3" d="M5305.17,3956.46h0a43.28,43.28,0,0,0-43.28-43.27h-1.51" transform="translate(-4274.81 -3655.15)"/><path class="cls-2" d="M5378.92,3912.43h0a43.27,43.27,0,0,0-43.28,43.28v1.51" transform="translate(-4274.81 -3655.15)"/><path class="cls-3" d="M5192.07,3828.2h0a43.28,43.28,0,0,0,43.28,43.28h1.51" transform="translate(-4274.81 -3655.15)"/><path class="cls-2" d="M5119.33,3872.23h0a43.28,43.28,0,0,0,43.28-43.27v-1.51" transform="translate(-4274.81 -3655.15)"/><path class="cls-2" d="M5174.6,3910.71h0a43.28,43.28,0,0,0-43.28,43.28v1.51" transform="translate(-4274.81 -3655.15)"/><path class="cls-2" d="M5182.5,3911.23h0a43.28,43.28,0,0,1,43.28,43.27V3956" transform="translate(-4274.81 -3655.15)"/><path class="cls-2" d="M5088.83,3879.06h0a43.27,43.27,0,0,0-43.27-43.27H5044" transform="translate(-4274.81 -3655.15)"/><path class="cls-2" d="M5032.62,3835.79h0a43.28,43.28,0,0,0-43.28,43.27v1.51" transform="translate(-4274.81 -3655.15)"/><path class="cls-2" d="M5024.58,3954.65h0a43.28,43.28,0,0,0-43.28-43.28h-1.51" transform="translate(-4274.81 -3655.15)"/><path class="cls-1" d="M5098.32,3910.62h0a43.27,43.27,0,0,0-43.27,43.27v1.51" transform="translate(-4274.81 -3655.15)"/><path class="cls-1" d="M4911.48,3826.39h0a43.28,43.28,0,0,0,43.28,43.27h1.51" transform="translate(-4274.81 -3655.15)"/><path class="cls-2" d="M4838.74,3870.42h0a43.28,43.28,0,0,0,43.27-43.28v-1.51" transform="translate(-4274.81 -3655.15)"/><path class="cls-3" d="M4894,3908.9h0a43.28,43.28,0,0,0-43.27,43.28v1.51" transform="translate(-4274.81 -3655.15)"/><path class="cls-2" d="M4901.91,3909.41h0a43.28,43.28,0,0,1,43.28,43.28v1.51" transform="translate(-4274.81 -3655.15)"/><path class="cls-1" d="M4284.31,4033.22h0a43.28,43.28,0,0,1,43.27-43.28h1.51" transform="translate(-4274.81 -3655.15)"/><path class="cls-2" d="M4340.52,3989.94h0a43.28,43.28,0,0,1,43.28,43.28v1.51" transform="translate(-4274.81 -3655.15)"/><path class="cls-2" d="M4348.56,4108.8h0a43.28,43.28,0,0,1,43.28-43.27h1.51" transform="translate(-4274.81 -3655.15)"/><path class="cls-3" d="M4274.82,4064.77h0a43.28,43.28,0,0,1,43.27,43.28v1.51" transform="translate(-4274.81 -3655.15)"/><path class="cls-2" d="M4461.66,3980.54h0a43.28,43.28,0,0,1-43.28,43.28h-1.51" transform="translate(-4274.81 -3655.15)"/><path class="cls-3" d="M4534.4,4024.58h0a43.28,43.28,0,0,1-43.27-43.28v-1.51" transform="translate(-4274.81 -3655.15)"/><path class="cls-2" d="M4479.14,4063.06h0a43.27,43.27,0,0,1,43.27,43.27v1.51" transform="translate(-4274.81 -3655.15)"/><path class="cls-1" d="M4471.23,4063.57h0a43.28,43.28,0,0,0-43.28,43.27v1.52" transform="translate(-4274.81 -3655.15)"/><path class="cls-2" d="M4564.9,4031.4h0a43.28,43.28,0,0,1,43.28-43.27h1.51" transform="translate(-4274.81 -3655.15)"/><path class="cls-2" d="M4621.11,3988.13h0a43.28,43.28,0,0,1,43.28,43.27v1.52" transform="translate(-4274.81 -3655.15)"/><path class="cls-3" d="M4629.15,4107h0a43.28,43.28,0,0,1,43.28-43.28h1.51" transform="translate(-4274.81 -3655.15)"/><path class="cls-2" d="M4555.41,4063h0a43.27,43.27,0,0,1,43.27,43.27v1.52" transform="translate(-4274.81 -3655.15)"/><path class="cls-2" d="M4742.25,3978.73h0A43.28,43.28,0,0,1,4699,4022h-1.51" transform="translate(-4274.81 -3655.15)"/><path class="cls-1" d="M4815,4022.76h0a43.27,43.27,0,0,1-43.28-43.27V3978" transform="translate(-4274.81 -3655.15)"/><path class="cls-2" d="M4759.73,4061.24h0a43.28,43.28,0,0,1,43.27,43.28V4106" transform="translate(-4274.81 -3655.15)"/><path class="cls-2" d="M4751.82,4061.75h0a43.28,43.28,0,0,0-43.27,43.28v1.51" transform="translate(-4274.81 -3655.15)"/><path class="cls-2" d="M4808.36,4193.72h0a43.28,43.28,0,0,0-43.27-43.28h-1.51" transform="translate(-4274.81 -3655.15)"/><path class="cls-1" d="M4752.15,4150.44h0a43.28,43.28,0,0,0-43.27,43.28v1.51" transform="translate(-4274.81 -3655.15)"/><path class="cls-3" d="M4744.11,4268.06h0a43.28,43.28,0,0,0-43.28-43.28h-1.51" transform="translate(-4274.81 -3655.15)"/><path class="cls-2" d="M4817.86,4223.27h0a43.28,43.28,0,0,0-43.28,43.28v1.51" transform="translate(-4274.81 -3655.15)"/><path class="cls-3" d="M4631,4141h0a43.28,43.28,0,0,0,43.27,43.28h1.51" transform="translate(-4274.81 -3655.15)"/><path class="cls-2" d="M4558.27,4185.07h0a43.28,43.28,0,0,0,43.28-43.27v-1.51" transform="translate(-4274.81 -3655.15)"/><path class="cls-2" d="M4613.54,4223.27h0a43.28,43.28,0,0,0-43.28,43.28v1.51" transform="translate(-4274.81 -3655.15)"/><path class="cls-2" d="M4621.44,4223.27h0a43.28,43.28,0,0,1,43.28,43.28v1.51" transform="translate(-4274.81 -3655.15)"/><path class="cls-2" d="M4527.77,4191.9h0a43.27,43.27,0,0,0-43.27-43.27H4483" transform="translate(-4274.81 -3655.15)"/><path class="cls-2" d="M4471.56,4148.63h0a43.28,43.28,0,0,0-43.28,43.27v1.52" transform="translate(-4274.81 -3655.15)"/><path class="cls-2" d="M4463.52,4268.06h0a43.28,43.28,0,0,0-43.28-43.28h-1.51" transform="translate(-4274.81 -3655.15)"/><path class="cls-1" d="M4537.26,4223.27h0a43.28,43.28,0,0,0-43.27,43.28v1.51" transform="translate(-4274.81 -3655.15)"/><path class="cls-1" d="M4350.42,4139.23h0a43.28,43.28,0,0,0,43.28,43.27h1.51" transform="translate(-4274.81 -3655.15)"/><path class="cls-2" d="M4277.68,4183.26h0A43.27,43.27,0,0,0,4321,4140v-1.52" transform="translate(-4274.81 -3655.15)"/><path class="cls-3" d="M4332.94,4223.27h0a43.28,43.28,0,0,0-43.27,43.28v1.51" transform="translate(-4274.81 -3655.15)"/><path class="cls-2" d="M4340.85,4223.27h0a43.28,43.28,0,0,1,43.28,43.28v1.51" transform="translate(-4274.81 -3655.15)"/><path class="cls-1" d="M4845.37,4029.69h0a43.28,43.28,0,0,1,43.27-43.28h1.51" transform="translate(-4274.81 -3655.15)"/><path class="cls-2" d="M4901.58,3986.41h0a43.28,43.28,0,0,1,43.28,43.28v1.51" transform="translate(-4274.81 -3655.15)"/><path class="cls-2" d="M4909.62,4105.27h0A43.28,43.28,0,0,1,4952.9,4062h1.51" transform="translate(-4274.81 -3655.15)"/><path class="cls-3" d="M4835.88,4061.24h0a43.28,43.28,0,0,1,43.27,43.28V4106" transform="translate(-4274.81 -3655.15)"/><path class="cls-2" d="M5022.72,3977h0a43.28,43.28,0,0,1-43.28,43.28h-1.51" transform="translate(-4274.81 -3655.15)"/><path class="cls-3" d="M5095.46,4021.05h0a43.28,43.28,0,0,1-43.27-43.28v-1.51" transform="translate(-4274.81 -3655.15)"/><path class="cls-2" d="M5040.2,4059.53h0a43.27,43.27,0,0,1,43.27,43.27v1.51" transform="translate(-4274.81 -3655.15)"/><path class="cls-1" d="M5032.29,4060h0a43.28,43.28,0,0,0-43.28,43.27v1.52" transform="translate(-4274.81 -3655.15)"/><path class="cls-2" d="M5126,4027.88h0a43.28,43.28,0,0,1,43.28-43.28h1.51" transform="translate(-4274.81 -3655.15)"/><path class="cls-2" d="M5182.17,3984.6h0a43.28,43.28,0,0,1,43.28,43.28v1.51" transform="translate(-4274.81 -3655.15)"/><path class="cls-3" d="M5190.21,4103.46h0a43.28,43.28,0,0,1,43.28-43.28H5235" transform="translate(-4274.81 -3655.15)"/><path class="cls-2" d="M5116.47,4059.43h0a43.27,43.27,0,0,1,43.27,43.27v1.52" transform="translate(-4274.81 -3655.15)"/><path class="cls-2" d="M5303.31,3975.2h0a43.28,43.28,0,0,1-43.28,43.28h-1.51" transform="translate(-4274.81 -3655.15)"/><path class="cls-1" d="M5376.05,4019.23h0a43.27,43.27,0,0,1-43.27-43.27v-1.52" transform="translate(-4274.81 -3655.15)"/><path class="cls-2" d="M5320.79,4057.71h0a43.28,43.28,0,0,1,43.27,43.28v1.51" transform="translate(-4274.81 -3655.15)"/><path class="cls-2" d="M5312.88,4058.22h0a43.28,43.28,0,0,0-43.27,43.28V4103" transform="translate(-4274.81 -3655.15)"/><path class="cls-2" d="M5369.42,4190.19h0a43.28,43.28,0,0,0-43.27-43.28h-1.51" transform="translate(-4274.81 -3655.15)"/><path class="cls-1" d="M5313.21,4146.91h0a43.28,43.28,0,0,0-43.27,43.28v1.51" transform="translate(-4274.81 -3655.15)"/><path class="cls-3" d="M5305.17,4268.06h0a43.28,43.28,0,0,0-43.28-43.28h-1.51" transform="translate(-4274.81 -3655.15)"/><path class="cls-2" d="M5378.92,4223.27h0a43.28,43.28,0,0,0-43.28,43.28v1.51" transform="translate(-4274.81 -3655.15)"/><path class="cls-3" d="M5192.07,4137.51h0a43.28,43.28,0,0,0,43.28,43.28h1.51" transform="translate(-4274.81 -3655.15)"/><path class="cls-2" d="M5119.33,4181.54h0a43.28,43.28,0,0,0,43.28-43.27v-1.51" transform="translate(-4274.81 -3655.15)"/><path class="cls-2" d="M5174.6,4223.27h0a43.28,43.28,0,0,0-43.28,43.28v1.51" transform="translate(-4274.81 -3655.15)"/><path class="cls-2" d="M5182.5,4223.27h0a43.28,43.28,0,0,1,43.28,43.28v1.51" transform="translate(-4274.81 -3655.15)"/><path class="cls-2" d="M5088.83,4188.37h0a43.27,43.27,0,0,0-43.27-43.27H5044" transform="translate(-4274.81 -3655.15)"/><path class="cls-2" d="M5032.62,4145.1h0a43.28,43.28,0,0,0-43.28,43.27v1.52" transform="translate(-4274.81 -3655.15)"/><path class="cls-2" d="M5024.58,4268.06h0a43.28,43.28,0,0,0-43.28-43.28h-1.51" transform="translate(-4274.81 -3655.15)"/><path class="cls-1" d="M5098.32,4223.27h0a43.28,43.28,0,0,0-43.27,43.28v1.51" transform="translate(-4274.81 -3655.15)"/><path class="cls-1" d="M4911.48,4135.7h0a43.28,43.28,0,0,0,43.28,43.28h1.51" transform="translate(-4274.81 -3655.15)"/><path class="cls-2" d="M4838.74,4179.73h0a43.27,43.27,0,0,0,43.27-43.27v-1.52" transform="translate(-4274.81 -3655.15)"/><path class="cls-3" d="M4894,4223.27h0a43.28,43.28,0,0,0-43.27,43.28v1.51" transform="translate(-4274.81 -3655.15)"/><path class="cls-2" d="M4901.91,4223.27h0a43.28,43.28,0,0,1,43.28,43.28v1.51" transform="translate(-4274.81 -3655.15)"/><path class="cls-1" d="M5402.68,3721.91h0a43.28,43.28,0,0,1,43.28-43.28h1.51" transform="translate(-4274.81 -3655.15)"/><path class="cls-2" d="M5458.9,3678.63h0a43.28,43.28,0,0,1,43.27,43.28v1.51" transform="translate(-4274.81 -3655.15)"/><path class="cls-2" d="M5466.94,3797.49h0a43.27,43.27,0,0,1,43.27-43.27h1.51" transform="translate(-4274.81 -3655.15)"/><path class="cls-3" d="M5393.19,3753.46h0a43.28,43.28,0,0,1,43.28,43.28v1.51" transform="translate(-4274.81 -3655.15)"/><path class="cls-2" d="M5580,3669.23h0a43.28,43.28,0,0,1-43.27,43.28h-1.52" transform="translate(-4274.81 -3655.15)"/><path class="cls-3" d="M5652.78,3713.26h0A43.28,43.28,0,0,1,5609.5,3670v-1.51" transform="translate(-4274.81 -3655.15)"/><path class="cls-2" d="M5597.51,3751.74h0a43.28,43.28,0,0,1,43.28,43.28v1.51" transform="translate(-4274.81 -3655.15)"/><path class="cls-1" d="M5589.6,3752.26h0a43.27,43.27,0,0,0-43.27,43.27V3797" transform="translate(-4274.81 -3655.15)"/><path class="cls-2" d="M5683.28,3720.09h0a43.27,43.27,0,0,1,43.27-43.27h1.51" transform="translate(-4274.81 -3655.15)"/><path class="cls-2" d="M5739.49,3676.82h0a43.27,43.27,0,0,1,43.27,43.27v1.52" transform="translate(-4274.81 -3655.15)"/><path class="cls-3" d="M5747.53,3795.68h0a43.28,43.28,0,0,1,43.28-43.28h1.51" transform="translate(-4274.81 -3655.15)"/><path class="cls-2" d="M5673.78,3751.65h0a43.28,43.28,0,0,1,43.28,43.27v1.51" transform="translate(-4274.81 -3655.15)"/><path class="cls-2" d="M5860.62,3667.42h0a43.27,43.27,0,0,1-43.27,43.27h-1.51" transform="translate(-4274.81 -3655.15)"/><path class="cls-1" d="M5933.37,3711.45h0a43.28,43.28,0,0,1-43.28-43.27v-1.52" transform="translate(-4274.81 -3655.15)"/><path class="cls-2" d="M5878.1,3749.93h0a43.28,43.28,0,0,1,43.28,43.28v1.51" transform="translate(-4274.81 -3655.15)"/><path class="cls-2" d="M5870.2,3750.44h0a43.28,43.28,0,0,0-43.28,43.28v1.51" transform="translate(-4274.81 -3655.15)"/><path class="cls-2" d="M5926.74,3882.41h0a43.28,43.28,0,0,0-43.28-43.28H5882" transform="translate(-4274.81 -3655.15)"/><path class="cls-1" d="M5870.53,3839.13h0a43.28,43.28,0,0,0-43.28,43.28v1.51" transform="translate(-4274.81 -3655.15)"/><path class="cls-3" d="M5862.49,3958h0a43.28,43.28,0,0,0-43.28-43.27h-1.51" transform="translate(-4274.81 -3655.15)"/><path class="cls-2" d="M5936.23,3914h0a43.27,43.27,0,0,0-43.27,43.27v1.52" transform="translate(-4274.81 -3655.15)"/><path class="cls-3" d="M5749.39,3829.73h0a43.28,43.28,0,0,0,43.28,43.28h1.51" transform="translate(-4274.81 -3655.15)"/><path class="cls-2" d="M5676.64,3873.76h0a43.27,43.27,0,0,0,43.28-43.27V3829" transform="translate(-4274.81 -3655.15)"/><path class="cls-2" d="M5731.91,3912.24h0a43.28,43.28,0,0,0-43.27,43.28V3957" transform="translate(-4274.81 -3655.15)"/><path class="cls-2" d="M5739.82,3912.76h0a43.27,43.27,0,0,1,43.27,43.27v1.51" transform="translate(-4274.81 -3655.15)"/><path class="cls-2" d="M5646.15,3880.59h0a43.28,43.28,0,0,0-43.28-43.27h-1.51" transform="translate(-4274.81 -3655.15)"/><path class="cls-2" d="M5589.93,3837.32h0a43.27,43.27,0,0,0-43.27,43.27v1.51" transform="translate(-4274.81 -3655.15)"/><path class="cls-2" d="M5581.89,3956.18h0a43.28,43.28,0,0,0-43.27-43.28h-1.52" transform="translate(-4274.81 -3655.15)"/><path class="cls-1" d="M5655.64,3912.15h0a43.28,43.28,0,0,0-43.28,43.27v1.51" transform="translate(-4274.81 -3655.15)"/><path class="cls-1" d="M5468.8,3827.92h0a43.27,43.27,0,0,0,43.27,43.27h1.51" transform="translate(-4274.81 -3655.15)"/><path class="cls-2" d="M5396.05,3872h0a43.28,43.28,0,0,0,43.28-43.28v-1.51" transform="translate(-4274.81 -3655.15)"/><path class="cls-3" d="M5451.32,3910.43h0a43.28,43.28,0,0,0-43.28,43.28v1.51" transform="translate(-4274.81 -3655.15)"/><path class="cls-2" d="M5459.22,3910.94h0a43.28,43.28,0,0,1,43.28,43.28v1.51" transform="translate(-4274.81 -3655.15)"/><path class="cls-1" d="M5963.74,3718.38h0A43.28,43.28,0,0,1,6007,3675.1h1.51" transform="translate(-4274.81 -3655.15)"/><path class="cls-2" d="M6020,3675.1h0a43.28,43.28,0,0,1,43.28,43.28v1.51" transform="translate(-4274.81 -3655.15)"/><path class="cls-2" d="M6028,3794h0a43.27,43.27,0,0,1,43.27-43.27h1.51" transform="translate(-4274.81 -3655.15)"/><path class="cls-3" d="M5954.25,3749.93h0a43.28,43.28,0,0,1,43.28,43.28v1.51" transform="translate(-4274.81 -3655.15)"/><path class="cls-2" d="M6141.09,3665.7h0a43.28,43.28,0,0,1-43.27,43.28h-1.52" transform="translate(-4274.81 -3655.15)"/><path class="cls-3" d="M6213.84,3709.73h0a43.28,43.28,0,0,1-43.28-43.27V3665" transform="translate(-4274.81 -3655.15)"/><path class="cls-2" d="M6158.57,3748.22h0a43.28,43.28,0,0,1,43.28,43.27V3793" transform="translate(-4274.81 -3655.15)"/><path class="cls-1" d="M6150.66,3748.73h0a43.27,43.27,0,0,0-43.27,43.27v1.51" transform="translate(-4274.81 -3655.15)"/><path class="cls-2" d="M6244.34,3716.56h0a43.27,43.27,0,0,1,43.27-43.27h1.51" transform="translate(-4274.81 -3655.15)"/><path class="cls-2" d="M6300.55,3673.29h0a43.27,43.27,0,0,1,43.27,43.27v1.52" transform="translate(-4274.81 -3655.15)"/><path class="cls-3" d="M6308.59,3792.15h0a43.28,43.28,0,0,1,43.28-43.28h1.51" transform="translate(-4274.81 -3655.15)"/><path class="cls-2" d="M6234.84,3748.12h0a43.28,43.28,0,0,1,43.28,43.27v1.51" transform="translate(-4274.81 -3655.15)"/><path class="cls-2" d="M6421.68,3663.89h0a43.28,43.28,0,0,1-43.27,43.28h-1.51" transform="translate(-4274.81 -3655.15)"/><path class="cls-1" d="M6494.43,3707.92h0a43.28,43.28,0,0,1-43.28-43.27v-1.52" transform="translate(-4274.81 -3655.15)"/><path class="cls-2" d="M6439.16,3746.4h0a43.28,43.28,0,0,1,43.28,43.28v1.51" transform="translate(-4274.81 -3655.15)"/><path class="cls-2" d="M6431.26,3746.91h0a43.28,43.28,0,0,0-43.28,43.28v1.51" transform="translate(-4274.81 -3655.15)"/><path class="cls-2" d="M6487.8,3878.88h0a43.28,43.28,0,0,0-43.28-43.28H6443" transform="translate(-4274.81 -3655.15)"/><path class="cls-1" d="M6431.59,3835.6h0a43.28,43.28,0,0,0-43.28,43.28v1.51" transform="translate(-4274.81 -3655.15)"/><path class="cls-3" d="M6423.55,3954.46h0a43.28,43.28,0,0,0-43.28-43.27h-1.51" transform="translate(-4274.81 -3655.15)"/><path class="cls-2" d="M6497.29,3910.43h0a43.28,43.28,0,0,0-43.28,43.28v1.51" transform="translate(-4274.81 -3655.15)"/><path class="cls-3" d="M6310.45,3826.2h0a43.28,43.28,0,0,0,43.28,43.28h1.51" transform="translate(-4274.81 -3655.15)"/><path class="cls-2" d="M6237.7,3870.23h0A43.27,43.27,0,0,0,6281,3827v-1.51" transform="translate(-4274.81 -3655.15)"/><path class="cls-2" d="M6293,3908.71h0A43.28,43.28,0,0,0,6249.7,3952v1.51" transform="translate(-4274.81 -3655.15)"/><path class="cls-2" d="M6300.88,3909.23h0a43.27,43.27,0,0,1,43.27,43.27V3954" transform="translate(-4274.81 -3655.15)"/><path class="cls-2" d="M6207.21,3877.06h0a43.28,43.28,0,0,0-43.28-43.27h-1.51" transform="translate(-4274.81 -3655.15)"/><path class="cls-2" d="M6151,3833.79h0a43.27,43.27,0,0,0-43.27,43.27v1.51" transform="translate(-4274.81 -3655.15)"/><path class="cls-2" d="M6143,3952.65h0a43.28,43.28,0,0,0-43.27-43.28h-1.52" transform="translate(-4274.81 -3655.15)"/><path class="cls-1" d="M6216.7,3908.62h0a43.28,43.28,0,0,0-43.28,43.27v1.51" transform="translate(-4274.81 -3655.15)"/><path class="cls-1" d="M6029.86,3824.39h0a43.27,43.27,0,0,0,43.27,43.27h1.51" transform="translate(-4274.81 -3655.15)"/><path class="cls-2" d="M5957.11,3868.42h0a43.28,43.28,0,0,0,43.28-43.28v-1.51" transform="translate(-4274.81 -3655.15)"/><path class="cls-3" d="M6012.38,3906.9h0a43.28,43.28,0,0,0-43.28,43.28v1.51" transform="translate(-4274.81 -3655.15)"/><path class="cls-2" d="M6020.28,3907.41h0a43.28,43.28,0,0,1,43.28,43.28v1.51" transform="translate(-4274.81 -3655.15)"/><path class="cls-1" d="M5402.68,4031.22h0a43.28,43.28,0,0,1,43.28-43.28h1.51" transform="translate(-4274.81 -3655.15)"/><path class="cls-2" d="M5458.9,3987.94h0a43.28,43.28,0,0,1,43.27,43.28v1.51" transform="translate(-4274.81 -3655.15)"/><path class="cls-2" d="M5466.94,4106.8h0a43.27,43.27,0,0,1,43.27-43.27h1.51" transform="translate(-4274.81 -3655.15)"/><path class="cls-3" d="M5393.19,4062.77h0a43.28,43.28,0,0,1,43.28,43.28v1.51" transform="translate(-4274.81 -3655.15)"/><path class="cls-2" d="M5580,3978.54h0a43.28,43.28,0,0,1-43.27,43.28h-1.52" transform="translate(-4274.81 -3655.15)"/><path class="cls-3" d="M5652.78,4022.58h0a43.28,43.28,0,0,1-43.28-43.28v-1.51" transform="translate(-4274.81 -3655.15)"/><path class="cls-2" d="M5597.51,4061.06h0a43.28,43.28,0,0,1,43.28,43.27v1.51" transform="translate(-4274.81 -3655.15)"/><path class="cls-1" d="M5589.6,4061.57h0a43.27,43.27,0,0,0-43.27,43.27v1.52" transform="translate(-4274.81 -3655.15)"/><path class="cls-2" d="M5683.28,4029.4h0a43.27,43.27,0,0,1,43.27-43.27h1.51" transform="translate(-4274.81 -3655.15)"/><path class="cls-2" d="M5739.49,3986.13h0a43.27,43.27,0,0,1,43.27,43.27v1.52" transform="translate(-4274.81 -3655.15)"/><path class="cls-3" d="M5747.53,4105h0a43.28,43.28,0,0,1,43.28-43.28h1.51" transform="translate(-4274.81 -3655.15)"/><path class="cls-2" d="M5673.78,4061h0a43.28,43.28,0,0,1,43.28,43.27v1.52" transform="translate(-4274.81 -3655.15)"/><path class="cls-2" d="M5860.62,3976.73h0a43.28,43.28,0,0,1-43.27,43.28h-1.51" transform="translate(-4274.81 -3655.15)"/><path class="cls-1" d="M5933.37,4020.76h0a43.28,43.28,0,0,1-43.28-43.27V3976" transform="translate(-4274.81 -3655.15)"/><path class="cls-2" d="M5878.1,4059.24h0a43.28,43.28,0,0,1,43.28,43.28V4104" transform="translate(-4274.81 -3655.15)"/><path class="cls-2" d="M5870.2,4059.75h0a43.28,43.28,0,0,0-43.28,43.28v1.51" transform="translate(-4274.81 -3655.15)"/><path class="cls-2" d="M5926.74,4191.72h0a43.28,43.28,0,0,0-43.28-43.28H5882" transform="translate(-4274.81 -3655.15)"/><path class="cls-1" d="M5870.53,4148.44h0a43.28,43.28,0,0,0-43.28,43.28v1.51" transform="translate(-4274.81 -3655.15)"/><path class="cls-3" d="M5862.49,4267.3h0a43.28,43.28,0,0,0-43.28-43.27h-1.51" transform="translate(-4274.81 -3655.15)"/><path class="cls-2" d="M5936.23,4223.27h0a43.28,43.28,0,0,0-43.27,43.28v1.51" transform="translate(-4274.81 -3655.15)"/><path class="cls-3" d="M5749.39,4139h0a43.28,43.28,0,0,0,43.28,43.28h1.51" transform="translate(-4274.81 -3655.15)"/><path class="cls-2" d="M5676.64,4183.07h0a43.27,43.27,0,0,0,43.28-43.27v-1.51" transform="translate(-4274.81 -3655.15)"/><path class="cls-2" d="M5731.91,4221.55h0a43.28,43.28,0,0,0-43.27,43.28v1.51" transform="translate(-4274.81 -3655.15)"/><path class="cls-2" d="M5739.82,4222.07h0a43.27,43.27,0,0,1,43.27,43.27v1.51" transform="translate(-4274.81 -3655.15)"/><path class="cls-2" d="M5646.15,4189.9h0a43.28,43.28,0,0,0-43.28-43.27h-1.51" transform="translate(-4274.81 -3655.15)"/><path class="cls-2" d="M5589.93,4146.63h0a43.27,43.27,0,0,0-43.27,43.27v1.52" transform="translate(-4274.81 -3655.15)"/><path class="cls-2" d="M5581.89,4265.49h0a43.28,43.28,0,0,0-43.27-43.28h-1.52" transform="translate(-4274.81 -3655.15)"/><path class="cls-1" d="M5655.64,4221.46h0a43.28,43.28,0,0,0-43.28,43.27v1.51" transform="translate(-4274.81 -3655.15)"/><path class="cls-1" d="M5468.8,4137.23h0a43.27,43.27,0,0,0,43.27,43.27h1.51" transform="translate(-4274.81 -3655.15)"/><path class="cls-2" d="M5396.05,4181.26h0a43.28,43.28,0,0,0,43.28-43.27v-1.52" transform="translate(-4274.81 -3655.15)"/><path class="cls-3" d="M5451.32,4219.74h0A43.28,43.28,0,0,0,5408,4263v1.51" transform="translate(-4274.81 -3655.15)"/><path class="cls-2" d="M5459.22,4220.25h0a43.28,43.28,0,0,1,43.28,43.28V4265" transform="translate(-4274.81 -3655.15)"/><path class="cls-1" d="M5963.74,4027.69h0a43.28,43.28,0,0,1,43.28-43.28h1.51" transform="translate(-4274.81 -3655.15)"/><path class="cls-2" d="M6020,3984.41h0a43.28,43.28,0,0,1,43.28,43.28v1.51" transform="translate(-4274.81 -3655.15)"/><path class="cls-2" d="M6028,4103.27h0a43.27,43.27,0,0,1,43.27-43.27h1.51" transform="translate(-4274.81 -3655.15)"/><path class="cls-3" d="M5954.25,4059.24h0a43.28,43.28,0,0,1,43.28,43.28V4104" transform="translate(-4274.81 -3655.15)"/><path class="cls-2" d="M6141.09,3975h0a43.27,43.27,0,0,1-43.27,43.28h-1.52" transform="translate(-4274.81 -3655.15)"/><path class="cls-3" d="M6213.84,4019.05h0a43.28,43.28,0,0,1-43.28-43.28v-1.51" transform="translate(-4274.81 -3655.15)"/><path class="cls-2" d="M6158.57,4057.53h0a43.28,43.28,0,0,1,43.28,43.27v1.51" transform="translate(-4274.81 -3655.15)"/><path class="cls-1" d="M6150.66,4058h0a43.27,43.27,0,0,0-43.27,43.27v1.52" transform="translate(-4274.81 -3655.15)"/><path class="cls-2" d="M6244.34,4025.88h0a43.27,43.27,0,0,1,43.27-43.28h1.51" transform="translate(-4274.81 -3655.15)"/><path class="cls-2" d="M6300.55,3982.6h0a43.27,43.27,0,0,1,43.27,43.28v1.51" transform="translate(-4274.81 -3655.15)"/><path class="cls-3" d="M6308.59,4101.46h0a43.28,43.28,0,0,1,43.28-43.28h1.51" transform="translate(-4274.81 -3655.15)"/><path class="cls-2" d="M6234.84,4057.43h0a43.28,43.28,0,0,1,43.28,43.27v1.52" transform="translate(-4274.81 -3655.15)"/><path class="cls-2" d="M6421.68,3973.2h0a43.28,43.28,0,0,1-43.27,43.28h-1.51" transform="translate(-4274.81 -3655.15)"/><path class="cls-1" d="M6494.43,4017.23h0a43.28,43.28,0,0,1-43.28-43.27v-1.52" transform="translate(-4274.81 -3655.15)"/><path class="cls-2" d="M6439.16,4055.71h0a43.28,43.28,0,0,1,43.28,43.28v1.51" transform="translate(-4274.81 -3655.15)"/><path class="cls-2" d="M6431.26,4056.22h0A43.28,43.28,0,0,0,6388,4099.5V4101" transform="translate(-4274.81 -3655.15)"/><path class="cls-2" d="M6487.8,4188.19h0a43.28,43.28,0,0,0-43.28-43.28H6443" transform="translate(-4274.81 -3655.15)"/><path class="cls-1" d="M6431.59,4144.91h0a43.28,43.28,0,0,0-43.28,43.28v1.51" transform="translate(-4274.81 -3655.15)"/><path class="cls-3" d="M6423.55,4263.77h0a43.28,43.28,0,0,0-43.28-43.27h-1.51" transform="translate(-4274.81 -3655.15)"/><path class="cls-2" d="M6497.29,4219.74h0A43.28,43.28,0,0,0,6454,4263v1.51" transform="translate(-4274.81 -3655.15)"/><path class="cls-3" d="M6310.45,4135.51h0a43.28,43.28,0,0,0,43.28,43.28h1.51" transform="translate(-4274.81 -3655.15)"/><path class="cls-2" d="M6237.7,4179.54h0a43.27,43.27,0,0,0,43.28-43.27v-1.51" transform="translate(-4274.81 -3655.15)"/><path class="cls-2" d="M6293,4218h0a43.27,43.27,0,0,0-43.27,43.27v1.51" transform="translate(-4274.81 -3655.15)"/><path class="cls-2" d="M6300.88,4218.54h0a43.27,43.27,0,0,1,43.27,43.27v1.51" transform="translate(-4274.81 -3655.15)"/><path class="cls-2" d="M6207.21,4186.37h0a43.28,43.28,0,0,0-43.28-43.27h-1.51" transform="translate(-4274.81 -3655.15)"/><path class="cls-2" d="M6151,4143.1h0a43.27,43.27,0,0,0-43.27,43.27v1.52" transform="translate(-4274.81 -3655.15)"/><path class="cls-2" d="M6143,4262h0a43.28,43.28,0,0,0-43.27-43.28h-1.52" transform="translate(-4274.81 -3655.15)"/><path class="cls-1" d="M6216.7,4217.93h0a43.28,43.28,0,0,0-43.28,43.27v1.51" transform="translate(-4274.81 -3655.15)"/><path class="cls-1" d="M6029.86,4133.7h0a43.28,43.28,0,0,0,43.27,43.28h1.51" transform="translate(-4274.81 -3655.15)"/><path class="cls-2" d="M5957.11,4177.73h0a43.28,43.28,0,0,0,43.28-43.27v-1.52" transform="translate(-4274.81 -3655.15)"/><path class="cls-3" d="M6012.38,4216.21h0a43.28,43.28,0,0,0-43.28,43.28V4261" transform="translate(-4274.81 -3655.15)"/><path class="cls-2" d="M6020.28,4216.72h0a43.28,43.28,0,0,1,43.28,43.28v1.51" transform="translate(-4274.81 -3655.15)"/><path class="cls-1" d="M6555.33,3723.91h0a43.28,43.28,0,0,1,43.28-43.28h1.51" transform="translate(-4274.81 -3655.15)"/><path class="cls-2" d="M6611.54,3680.63h0a43.28,43.28,0,0,1,43.28,43.28v1.51" transform="translate(-4274.81 -3655.15)"/><path class="cls-2" d="M6619.59,3799.49h0a43.27,43.27,0,0,1,43.27-43.27h1.51" transform="translate(-4274.81 -3655.15)"/><path class="cls-3" d="M6545.84,3755.46h0a43.28,43.28,0,0,1,43.28,43.28v1.51" transform="translate(-4274.81 -3655.15)"/><path class="cls-2" d="M6732.68,3671.23h0a43.28,43.28,0,0,1-43.27,43.28h-1.52" transform="translate(-4274.81 -3655.15)"/><path class="cls-3" d="M6805.43,3715.26h0a43.28,43.28,0,0,1-43.28-43.27v-1.51" transform="translate(-4274.81 -3655.15)"/><path class="cls-2" d="M6750.16,3753.74h0a43.28,43.28,0,0,1,43.28,43.28v1.51" transform="translate(-4274.81 -3655.15)"/><path class="cls-1" d="M6742.25,3754.26h0a43.27,43.27,0,0,0-43.27,43.27V3799" transform="translate(-4274.81 -3655.15)"/><path class="cls-2" d="M6835.93,3722.09h0a43.27,43.27,0,0,1,43.27-43.27h1.51" transform="translate(-4274.81 -3655.15)"/><path class="cls-2" d="M6892.14,3678.82h0a43.27,43.27,0,0,1,43.27,43.27v1.52" transform="translate(-4274.81 -3655.15)"/><path class="cls-3" d="M6900.18,3797.68h0a43.28,43.28,0,0,1,43.27-43.28H6945" transform="translate(-4274.81 -3655.15)"/><path class="cls-2" d="M6826.43,3753.65h0a43.28,43.28,0,0,1,43.28,43.27v1.51" transform="translate(-4274.81 -3655.15)"/><path class="cls-2" d="M7013.27,3669.42h0a43.27,43.27,0,0,1-43.27,43.27h-1.51" transform="translate(-4274.81 -3655.15)"/><path class="cls-1" d="M7086,3713.45h0a43.28,43.28,0,0,1-43.28-43.27v-1.52" transform="translate(-4274.81 -3655.15)"/><path class="cls-2" d="M7030.75,3751.93h0a43.28,43.28,0,0,1,43.28,43.28v1.51" transform="translate(-4274.81 -3655.15)"/><path class="cls-2" d="M7022.85,3752.44h0a43.28,43.28,0,0,0-43.28,43.28v1.51" transform="translate(-4274.81 -3655.15)"/><path class="cls-2" d="M7079.39,3884.41h0a43.28,43.28,0,0,0-43.28-43.28h-1.51" transform="translate(-4274.81 -3655.15)"/><path class="cls-1" d="M7023.18,3841.13h0a43.28,43.28,0,0,0-43.28,43.28v1.51" transform="translate(-4274.81 -3655.15)"/><path class="cls-3" d="M7015.14,3960h0a43.28,43.28,0,0,0-43.28-43.27h-1.51" transform="translate(-4274.81 -3655.15)"/><path class="cls-2" d="M7088.88,3916h0a43.28,43.28,0,0,0-43.28,43.27v1.52" transform="translate(-4274.81 -3655.15)"/><path class="cls-3" d="M6902,3831.73h0a43.28,43.28,0,0,0,43.28,43.28h1.51" transform="translate(-4274.81 -3655.15)"/><path class="cls-2" d="M6829.29,3875.76h0a43.27,43.27,0,0,0,43.28-43.27V3831" transform="translate(-4274.81 -3655.15)"/><path class="cls-2" d="M6884.56,3914.24h0a43.28,43.28,0,0,0-43.27,43.28V3959" transform="translate(-4274.81 -3655.15)"/><path class="cls-2" d="M6892.47,3914.76h0a43.27,43.27,0,0,1,43.27,43.27v1.51" transform="translate(-4274.81 -3655.15)"/><path class="cls-2" d="M6798.8,3882.59h0a43.28,43.28,0,0,0-43.28-43.27H6754" transform="translate(-4274.81 -3655.15)"/><path class="cls-2" d="M6742.58,3839.32h0a43.27,43.27,0,0,0-43.27,43.27v1.51" transform="translate(-4274.81 -3655.15)"/><path class="cls-2" d="M6734.54,3958.18h0a43.28,43.28,0,0,0-43.27-43.28h-1.52" transform="translate(-4274.81 -3655.15)"/><path class="cls-1" d="M6808.29,3914.15h0a43.28,43.28,0,0,0-43.28,43.27v1.51" transform="translate(-4274.81 -3655.15)"/><path class="cls-1" d="M6621.45,3829.92h0a43.27,43.27,0,0,0,43.27,43.27h1.51" transform="translate(-4274.81 -3655.15)"/><path class="cls-2" d="M6548.7,3874h0a43.28,43.28,0,0,0,43.28-43.28v-1.51" transform="translate(-4274.81 -3655.15)"/><path class="cls-3" d="M6604,3912.43h0a43.28,43.28,0,0,0-43.28,43.28v1.51" transform="translate(-4274.81 -3655.15)"/><path class="cls-2" d="M6611.87,3912.94h0a43.28,43.28,0,0,1,43.28,43.28v1.51" transform="translate(-4274.81 -3655.15)"/><path class="cls-1" d="M7116.39,3720.38h0a43.28,43.28,0,0,1,43.28-43.28h1.51" transform="translate(-4274.81 -3655.15)"/><path class="cls-2" d="M7172.6,3677.1h0a43.28,43.28,0,0,1,43.28,43.28v1.51" transform="translate(-4274.81 -3655.15)"/><path class="cls-2" d="M7180.65,3796h0a43.27,43.27,0,0,1,43.27-43.27h1.51" transform="translate(-4274.81 -3655.15)"/><path class="cls-3" d="M7106.9,3751.93h0a43.28,43.28,0,0,1,43.28,43.28v1.51" transform="translate(-4274.81 -3655.15)"/><path class="cls-2" d="M7293.74,3667.7h0a43.28,43.28,0,0,1-43.27,43.28H7249" transform="translate(-4274.81 -3655.15)"/><path class="cls-3" d="M7366.49,3711.73h0a43.28,43.28,0,0,1-43.28-43.27V3667" transform="translate(-4274.81 -3655.15)"/><path class="cls-2" d="M7311.22,3750.22h0a43.28,43.28,0,0,1,43.28,43.27V3795" transform="translate(-4274.81 -3655.15)"/><path class="cls-1" d="M7303.31,3750.73h0A43.27,43.27,0,0,0,7260,3794v1.51" transform="translate(-4274.81 -3655.15)"/><path class="cls-2" d="M7397,3718.56h0a43.28,43.28,0,0,1,43.28-43.27h1.51" transform="translate(-4274.81 -3655.15)"/><path class="cls-2" d="M7453.2,3675.29h0a43.27,43.27,0,0,1,43.27,43.27v1.52" transform="translate(-4274.81 -3655.15)"/><path class="cls-3" d="M7461.24,3794.15h0a43.28,43.28,0,0,1,43.27-43.28H7506" transform="translate(-4274.81 -3655.15)"/><path class="cls-2" d="M7387.49,3750.12h0a43.28,43.28,0,0,1,43.28,43.27v1.51" transform="translate(-4274.81 -3655.15)"/><path class="cls-2" d="M7574.33,3665.89h0a43.28,43.28,0,0,1-43.27,43.28h-1.51" transform="translate(-4274.81 -3655.15)"/><path class="cls-1" d="M7647.08,3709.92h0a43.28,43.28,0,0,1-43.28-43.27v-1.52" transform="translate(-4274.81 -3655.15)"/><path class="cls-2" d="M7591.81,3748.4h0a43.28,43.28,0,0,1,43.28,43.28v1.51" transform="translate(-4274.81 -3655.15)"/><path class="cls-2" d="M7583.91,3748.91h0a43.28,43.28,0,0,0-43.28,43.28v1.51" transform="translate(-4274.81 -3655.15)"/><path class="cls-2" d="M7640.45,3880.88h0a43.28,43.28,0,0,0-43.28-43.28h-1.51" transform="translate(-4274.81 -3655.15)"/><path class="cls-1" d="M7584.24,3837.6h0a43.28,43.28,0,0,0-43.28,43.28v1.51" transform="translate(-4274.81 -3655.15)"/><path class="cls-3" d="M7576.19,3956.46h0a43.27,43.27,0,0,0-43.27-43.27h-1.51" transform="translate(-4274.81 -3655.15)"/><path class="cls-2" d="M7649.94,3912.43h0a43.28,43.28,0,0,0-43.28,43.28v1.51" transform="translate(-4274.81 -3655.15)"/><path class="cls-3" d="M7463.1,3828.2h0a43.28,43.28,0,0,0,43.28,43.28h1.51" transform="translate(-4274.81 -3655.15)"/><path class="cls-2" d="M7390.35,3872.23h0a43.28,43.28,0,0,0,43.28-43.27v-1.51" transform="translate(-4274.81 -3655.15)"/><path class="cls-2" d="M7445.62,3910.71h0a43.28,43.28,0,0,0-43.27,43.28v1.51" transform="translate(-4274.81 -3655.15)"/><path class="cls-2" d="M7453.53,3911.23h0a43.27,43.27,0,0,1,43.27,43.27V3956" transform="translate(-4274.81 -3655.15)"/><path class="cls-2" d="M7359.86,3879.06h0a43.28,43.28,0,0,0-43.28-43.27h-1.51" transform="translate(-4274.81 -3655.15)"/><path class="cls-2" d="M7303.64,3835.79h0a43.27,43.27,0,0,0-43.27,43.27v1.51" transform="translate(-4274.81 -3655.15)"/><path class="cls-2" d="M7295.6,3954.65h0a43.28,43.28,0,0,0-43.27-43.28h-1.52" transform="translate(-4274.81 -3655.15)"/><path class="cls-1" d="M7369.35,3910.62h0a43.28,43.28,0,0,0-43.28,43.27v1.51" transform="translate(-4274.81 -3655.15)"/><path class="cls-1" d="M7182.51,3826.39h0a43.27,43.27,0,0,0,43.27,43.27h1.51" transform="translate(-4274.81 -3655.15)"/><path class="cls-2" d="M7109.76,3870.42h0a43.28,43.28,0,0,0,43.28-43.28v-1.51" transform="translate(-4274.81 -3655.15)"/><path class="cls-3" d="M7165,3908.9h0a43.28,43.28,0,0,0-43.28,43.28v1.51" transform="translate(-4274.81 -3655.15)"/><path class="cls-2" d="M7172.93,3909.41h0a43.28,43.28,0,0,1,43.28,43.28v1.51" transform="translate(-4274.81 -3655.15)"/><path class="cls-1" d="M6555.33,4033.22h0a43.28,43.28,0,0,1,43.28-43.28h1.51" transform="translate(-4274.81 -3655.15)"/><path class="cls-2" d="M6611.54,3989.94h0a43.28,43.28,0,0,1,43.28,43.28v1.51" transform="translate(-4274.81 -3655.15)"/><path class="cls-2" d="M6619.59,4108.8h0a43.27,43.27,0,0,1,43.27-43.27h1.51" transform="translate(-4274.81 -3655.15)"/><path class="cls-3" d="M6545.84,4064.77h0a43.28,43.28,0,0,1,43.28,43.28v1.51" transform="translate(-4274.81 -3655.15)"/><path class="cls-2" d="M6732.68,3980.54h0a43.28,43.28,0,0,1-43.27,43.28h-1.52" transform="translate(-4274.81 -3655.15)"/><path class="cls-3" d="M6805.43,4024.58h0a43.28,43.28,0,0,1-43.28-43.28v-1.51" transform="translate(-4274.81 -3655.15)"/><path class="cls-2" d="M6750.16,4063.06h0a43.28,43.28,0,0,1,43.28,43.27v1.51" transform="translate(-4274.81 -3655.15)"/><path class="cls-1" d="M6742.25,4063.57h0a43.27,43.27,0,0,0-43.27,43.27v1.52" transform="translate(-4274.81 -3655.15)"/><path class="cls-2" d="M6835.93,4031.4h0a43.27,43.27,0,0,1,43.27-43.27h1.51" transform="translate(-4274.81 -3655.15)"/><path class="cls-2" d="M6892.14,3988.13h0a43.27,43.27,0,0,1,43.27,43.27v1.52" transform="translate(-4274.81 -3655.15)"/><path class="cls-3" d="M6900.18,4107h0a43.28,43.28,0,0,1,43.27-43.28H6945" transform="translate(-4274.81 -3655.15)"/><path class="cls-2" d="M6826.43,4063h0a43.28,43.28,0,0,1,43.28,43.27v1.52" transform="translate(-4274.81 -3655.15)"/><path class="cls-2" d="M7013.27,3978.73h0A43.28,43.28,0,0,1,6970,4022h-1.51" transform="translate(-4274.81 -3655.15)"/><path class="cls-1" d="M7086,4022.76h0a43.28,43.28,0,0,1-43.28-43.27V3978" transform="translate(-4274.81 -3655.15)"/><path class="cls-2" d="M7030.75,4061.24h0a43.28,43.28,0,0,1,43.28,43.28V4106" transform="translate(-4274.81 -3655.15)"/><path class="cls-2" d="M7022.85,4061.75h0a43.28,43.28,0,0,0-43.28,43.28v1.51" transform="translate(-4274.81 -3655.15)"/><path class="cls-2" d="M7079.39,4193.72h0a43.28,43.28,0,0,0-43.28-43.28h-1.51" transform="translate(-4274.81 -3655.15)"/><path class="cls-1" d="M7023.18,4150.44h0a43.28,43.28,0,0,0-43.28,43.28v1.51" transform="translate(-4274.81 -3655.15)"/><path class="cls-3" d="M7015.14,4268.06h0a43.28,43.28,0,0,0-43.28-43.28h-1.51" transform="translate(-4274.81 -3655.15)"/><path class="cls-2" d="M7088.88,4223.27h0a43.28,43.28,0,0,0-43.28,43.28v1.51" transform="translate(-4274.81 -3655.15)"/><path class="cls-3" d="M6902,4141h0a43.28,43.28,0,0,0,43.28,43.28h1.51" transform="translate(-4274.81 -3655.15)"/><path class="cls-2" d="M6829.29,4185.07h0a43.27,43.27,0,0,0,43.28-43.27v-1.51" transform="translate(-4274.81 -3655.15)"/><path class="cls-2" d="M6884.56,4223.27h0a43.28,43.28,0,0,0-43.27,43.28v1.51" transform="translate(-4274.81 -3655.15)"/><path class="cls-2" d="M6892.47,4223.27h0a43.28,43.28,0,0,1,43.27,43.28v1.51" transform="translate(-4274.81 -3655.15)"/><path class="cls-2" d="M6798.8,4191.9h0a43.28,43.28,0,0,0-43.28-43.27H6754" transform="translate(-4274.81 -3655.15)"/><path class="cls-2" d="M6742.58,4148.63h0a43.27,43.27,0,0,0-43.27,43.27v1.52" transform="translate(-4274.81 -3655.15)"/><path class="cls-2" d="M6734.54,4268.06h0a43.28,43.28,0,0,0-43.27-43.28h-1.52" transform="translate(-4274.81 -3655.15)"/><path class="cls-1" d="M6808.29,4223.27h0a43.28,43.28,0,0,0-43.28,43.28v1.51" transform="translate(-4274.81 -3655.15)"/><path class="cls-1" d="M6621.45,4139.23h0a43.27,43.27,0,0,0,43.27,43.27h1.51" transform="translate(-4274.81 -3655.15)"/><path class="cls-2" d="M6548.7,4183.26h0A43.28,43.28,0,0,0,6592,4140v-1.52" transform="translate(-4274.81 -3655.15)"/><path class="cls-3" d="M6604,4223.27h0a43.28,43.28,0,0,0-43.28,43.28v1.51" transform="translate(-4274.81 -3655.15)"/><path class="cls-2" d="M6611.87,4223.27h0a43.28,43.28,0,0,1,43.28,43.28v1.51" transform="translate(-4274.81 -3655.15)"/><path class="cls-1" d="M7116.39,4029.69h0a43.28,43.28,0,0,1,43.28-43.28h1.51" transform="translate(-4274.81 -3655.15)"/><path class="cls-2" d="M7172.6,3986.41h0a43.28,43.28,0,0,1,43.28,43.28v1.51" transform="translate(-4274.81 -3655.15)"/><path class="cls-2" d="M7180.65,4105.27h0a43.27,43.27,0,0,1,43.27-43.27h1.51" transform="translate(-4274.81 -3655.15)"/><path class="cls-3" d="M7106.9,4061.24h0a43.28,43.28,0,0,1,43.28,43.28V4106" transform="translate(-4274.81 -3655.15)"/><path class="cls-2" d="M7293.74,3977h0a43.27,43.27,0,0,1-43.27,43.28H7249" transform="translate(-4274.81 -3655.15)"/><path class="cls-3" d="M7366.49,4021.05h0a43.28,43.28,0,0,1-43.28-43.28v-1.51" transform="translate(-4274.81 -3655.15)"/><path class="cls-2" d="M7311.22,4059.53h0a43.28,43.28,0,0,1,43.28,43.27v1.51" transform="translate(-4274.81 -3655.15)"/><path class="cls-1" d="M7303.31,4060h0a43.27,43.27,0,0,0-43.27,43.27v1.52" transform="translate(-4274.81 -3655.15)"/><path class="cls-2" d="M7397,4027.88h0a43.28,43.28,0,0,1,43.28-43.28h1.51" transform="translate(-4274.81 -3655.15)"/><path class="cls-2" d="M7453.2,3984.6h0a43.27,43.27,0,0,1,43.27,43.28v1.51" transform="translate(-4274.81 -3655.15)"/><path class="cls-3" d="M7461.24,4103.46h0a43.28,43.28,0,0,1,43.27-43.28H7506" transform="translate(-4274.81 -3655.15)"/><path class="cls-2" d="M7387.49,4059.43h0a43.28,43.28,0,0,1,43.28,43.27v1.52" transform="translate(-4274.81 -3655.15)"/><path class="cls-2" d="M7574.33,3975.2h0a43.28,43.28,0,0,1-43.27,43.28h-1.51" transform="translate(-4274.81 -3655.15)"/><path class="cls-1" d="M7647.08,4019.23h0A43.28,43.28,0,0,1,7603.8,3976v-1.52" transform="translate(-4274.81 -3655.15)"/><path class="cls-2" d="M7591.81,4057.71h0a43.28,43.28,0,0,1,43.28,43.28v1.51" transform="translate(-4274.81 -3655.15)"/><path class="cls-2" d="M7583.91,4058.22h0a43.28,43.28,0,0,0-43.28,43.28V4103" transform="translate(-4274.81 -3655.15)"/><path class="cls-2" d="M7640.45,4190.19h0a43.28,43.28,0,0,0-43.28-43.28h-1.51" transform="translate(-4274.81 -3655.15)"/><path class="cls-1" d="M7584.24,4146.91h0a43.28,43.28,0,0,0-43.28,43.28v1.51" transform="translate(-4274.81 -3655.15)"/><path class="cls-3" d="M7576.19,4268.06h0a43.28,43.28,0,0,0-43.27-43.28h-1.51" transform="translate(-4274.81 -3655.15)"/><path class="cls-2" d="M7649.94,4223.27h0a43.28,43.28,0,0,0-43.28,43.28v1.51" transform="translate(-4274.81 -3655.15)"/><path class="cls-3" d="M7463.1,4137.51h0a43.28,43.28,0,0,0,43.28,43.28h1.51" transform="translate(-4274.81 -3655.15)"/><path class="cls-2" d="M7390.35,4181.54h0a43.28,43.28,0,0,0,43.28-43.27v-1.51" transform="translate(-4274.81 -3655.15)"/><path class="cls-2" d="M7445.62,4223.27h0a43.28,43.28,0,0,0-43.27,43.28v1.51" transform="translate(-4274.81 -3655.15)"/><path class="cls-2" d="M7453.53,4223.27h0a43.28,43.28,0,0,1,43.27,43.28v1.51" transform="translate(-4274.81 -3655.15)"/><path class="cls-2" d="M7359.86,4188.37h0a43.28,43.28,0,0,0-43.28-43.27h-1.51" transform="translate(-4274.81 -3655.15)"/><path class="cls-2" d="M7303.64,4145.1h0a43.27,43.27,0,0,0-43.27,43.27v1.52" transform="translate(-4274.81 -3655.15)"/><path class="cls-2" d="M7295.6,4268.06h0a43.28,43.28,0,0,0-43.27-43.28h-1.52" transform="translate(-4274.81 -3655.15)"/><path class="cls-1" d="M7369.35,4223.27h0a43.28,43.28,0,0,0-43.28,43.28v1.51" transform="translate(-4274.81 -3655.15)"/><path class="cls-1" d="M7182.51,4135.7h0a43.28,43.28,0,0,0,43.27,43.28h1.51" transform="translate(-4274.81 -3655.15)"/><path class="cls-2" d="M7109.76,4179.73h0a43.28,43.28,0,0,0,43.28-43.27v-1.52" transform="translate(-4274.81 -3655.15)"/><path class="cls-3" d="M7165,4223.27h0a43.28,43.28,0,0,0-43.28,43.28v1.51" transform="translate(-4274.81 -3655.15)"/><path class="cls-2" d="M7172.93,4223.27h0a43.28,43.28,0,0,1,43.28,43.28v1.51" transform="translate(-4274.81 -3655.15)"/><path class="cls-1" d="M7673.71,3721.91h0a43.28,43.28,0,0,1,43.27-43.28h1.51" transform="translate(-4274.81 -3655.15)"/><path class="cls-2" d="M7729.92,3678.63h0a43.28,43.28,0,0,1,43.28,43.28v1.51" transform="translate(-4274.81 -3655.15)"/><path class="cls-2" d="M7738,3797.49h0a43.28,43.28,0,0,1,43.28-43.27h1.51" transform="translate(-4274.81 -3655.15)"/><path class="cls-3" d="M7664.22,3753.46h0a43.28,43.28,0,0,1,43.27,43.28v1.51" transform="translate(-4274.81 -3655.15)"/><path class="cls-2" d="M7851.06,3669.23h0a43.28,43.28,0,0,1-43.28,43.28h-1.51" transform="translate(-4274.81 -3655.15)"/><path class="cls-3" d="M7923.8,3713.26h0a43.27,43.27,0,0,1-43.27-43.27v-1.51" transform="translate(-4274.81 -3655.15)"/><path class="cls-2" d="M7868.54,3751.74h0a43.28,43.28,0,0,1,43.27,43.28v1.51" transform="translate(-4274.81 -3655.15)"/><path class="cls-1" d="M7860.63,3752.26h0a43.28,43.28,0,0,0-43.28,43.27V3797" transform="translate(-4274.81 -3655.15)"/><path class="cls-2" d="M7954.3,3720.09h0a43.28,43.28,0,0,1,43.28-43.27h1.51" transform="translate(-4274.81 -3655.15)"/><path class="cls-2" d="M8010.51,3676.82h0a43.28,43.28,0,0,1,43.28,43.27v1.52" transform="translate(-4274.81 -3655.15)"/><path class="cls-3" d="M8018.55,3795.68h0a43.28,43.28,0,0,1,43.28-43.28h1.51" transform="translate(-4274.81 -3655.15)"/><path class="cls-2" d="M7944.81,3751.65h0a43.27,43.27,0,0,1,43.27,43.27v1.51" transform="translate(-4274.81 -3655.15)"/><path class="cls-2" d="M8131.65,3667.42h0a43.28,43.28,0,0,1-43.28,43.27h-1.51" transform="translate(-4274.81 -3655.15)"/><path class="cls-1" d="M8204.4,3711.45h0a43.27,43.27,0,0,1-43.27-43.27v-1.52" transform="translate(-4274.81 -3655.15)"/><path class="cls-2" d="M8149.13,3749.93h0a43.28,43.28,0,0,1,43.27,43.28v1.51" transform="translate(-4274.81 -3655.15)"/><path class="cls-2" d="M8141.22,3750.44h0a43.28,43.28,0,0,0-43.27,43.28v1.51" transform="translate(-4274.81 -3655.15)"/><path class="cls-2" d="M8197.76,3882.41h0a43.28,43.28,0,0,0-43.27-43.28H8153" transform="translate(-4274.81 -3655.15)"/><path class="cls-1" d="M8141.55,3839.13h0a43.28,43.28,0,0,0-43.27,43.28v1.51" transform="translate(-4274.81 -3655.15)"/><path class="cls-3" d="M8133.51,3958h0a43.27,43.27,0,0,0-43.28-43.27h-1.51" transform="translate(-4274.81 -3655.15)"/><path class="cls-2" d="M8207.26,3914h0a43.28,43.28,0,0,0-43.28,43.27v1.52" transform="translate(-4274.81 -3655.15)"/><path class="cls-3" d="M8020.41,3829.73h0a43.28,43.28,0,0,0,43.28,43.28h1.51" transform="translate(-4274.81 -3655.15)"/><path class="cls-2" d="M7947.67,3873.76h0a43.28,43.28,0,0,0,43.28-43.27V3829" transform="translate(-4274.81 -3655.15)"/><path class="cls-2" d="M8002.94,3912.24h0a43.28,43.28,0,0,0-43.28,43.28V3957" transform="translate(-4274.81 -3655.15)"/><path class="cls-2" d="M8010.84,3912.76h0a43.28,43.28,0,0,1,43.28,43.27v1.51" transform="translate(-4274.81 -3655.15)"/><path class="cls-2" d="M7917.17,3880.59h0a43.27,43.27,0,0,0-43.27-43.27h-1.52" transform="translate(-4274.81 -3655.15)"/><path class="cls-2" d="M7861,3837.32h0a43.28,43.28,0,0,0-43.28,43.27v1.51" transform="translate(-4274.81 -3655.15)"/><path class="cls-2" d="M7852.92,3956.18h0a43.28,43.28,0,0,0-43.28-43.28h-1.51" transform="translate(-4274.81 -3655.15)"/><path class="cls-1" d="M7926.66,3912.15h0a43.27,43.27,0,0,0-43.27,43.27v1.51" transform="translate(-4274.81 -3655.15)"/><path class="cls-1" d="M7739.82,3827.92h0a43.28,43.28,0,0,0,43.28,43.27h1.51" transform="translate(-4274.81 -3655.15)"/><path class="cls-2" d="M7667.08,3872h0a43.28,43.28,0,0,0,43.27-43.28v-1.51" transform="translate(-4274.81 -3655.15)"/><path class="cls-3" d="M7722.34,3910.43h0a43.27,43.27,0,0,0-43.27,43.28v1.51" transform="translate(-4274.81 -3655.15)"/><path class="cls-2" d="M7730.25,3910.94h0a43.28,43.28,0,0,1,43.28,43.28v1.51" transform="translate(-4274.81 -3655.15)"/><path class="cls-1" d="M8234.77,3718.38h0A43.28,43.28,0,0,1,8278,3675.1h1.51" transform="translate(-4274.81 -3655.15)"/><path class="cls-2" d="M8291,3675.1h0a43.28,43.28,0,0,1,43.28,43.28v1.51" transform="translate(-4274.81 -3655.15)"/><path class="cls-2" d="M8299,3794h0a43.28,43.28,0,0,1,43.28-43.27h1.51" transform="translate(-4274.81 -3655.15)"/><path class="cls-3" d="M8225.28,3749.93h0a43.28,43.28,0,0,1,43.27,43.28v1.51" transform="translate(-4274.81 -3655.15)"/><path class="cls-2" d="M8412.12,3665.7h0a43.28,43.28,0,0,1-43.28,43.28h-1.51" transform="translate(-4274.81 -3655.15)"/><path class="cls-3" d="M8484.86,3709.73h0a43.27,43.27,0,0,1-43.27-43.27V3665" transform="translate(-4274.81 -3655.15)"/><path class="cls-2" d="M8429.6,3748.22h0a43.27,43.27,0,0,1,43.27,43.27V3793" transform="translate(-4274.81 -3655.15)"/><path class="cls-1" d="M8421.69,3748.73h0a43.28,43.28,0,0,0-43.28,43.27v1.51" transform="translate(-4274.81 -3655.15)"/><path class="cls-2" d="M8515.36,3716.56h0a43.28,43.28,0,0,1,43.28-43.27h1.51" transform="translate(-4274.81 -3655.15)"/><path class="cls-2" d="M8571.57,3673.29h0a43.28,43.28,0,0,1,43.28,43.27v1.52" transform="translate(-4274.81 -3655.15)"/><path class="cls-3" d="M8579.61,3792.15h0a43.28,43.28,0,0,1,43.28-43.28h1.51" transform="translate(-4274.81 -3655.15)"/><path class="cls-2" d="M8505.87,3748.12h0a43.27,43.27,0,0,1,43.27,43.27v1.51" transform="translate(-4274.81 -3655.15)"/><path class="cls-2" d="M8692.71,3663.89h0a43.28,43.28,0,0,1-43.28,43.28h-1.51" transform="translate(-4274.81 -3655.15)"/><path class="cls-1" d="M8765.45,3707.92h0a43.27,43.27,0,0,1-43.27-43.27v-1.52" transform="translate(-4274.81 -3655.15)"/><path class="cls-2" d="M8710.19,3746.4h0a43.28,43.28,0,0,1,43.27,43.28v1.51" transform="translate(-4274.81 -3655.15)"/><path class="cls-2" d="M8702.28,3746.91h0a43.28,43.28,0,0,0-43.27,43.28v1.51" transform="translate(-4274.81 -3655.15)"/><path class="cls-2" d="M8758.82,3878.88h0a43.28,43.28,0,0,0-43.27-43.28H8714" transform="translate(-4274.81 -3655.15)"/><path class="cls-1" d="M8702.61,3835.6h0a43.28,43.28,0,0,0-43.27,43.28v1.51" transform="translate(-4274.81 -3655.15)"/><path class="cls-3" d="M8694.57,3954.46h0a43.28,43.28,0,0,0-43.28-43.27h-1.51" transform="translate(-4274.81 -3655.15)"/><path class="cls-2" d="M8768.32,3910.43h0a43.27,43.27,0,0,0-43.28,43.28v1.51" transform="translate(-4274.81 -3655.15)"/><path class="cls-3" d="M8581.47,3826.2h0a43.28,43.28,0,0,0,43.28,43.28h1.51" transform="translate(-4274.81 -3655.15)"/><path class="cls-2" d="M8508.73,3870.23h0A43.28,43.28,0,0,0,8552,3827v-1.51" transform="translate(-4274.81 -3655.15)"/><path class="cls-2" d="M8564,3908.71h0a43.28,43.28,0,0,0-43.28,43.28v1.51" transform="translate(-4274.81 -3655.15)"/><path class="cls-2" d="M8571.9,3909.23h0a43.28,43.28,0,0,1,43.28,43.27V3954" transform="translate(-4274.81 -3655.15)"/><path class="cls-2" d="M8478.23,3877.06h0a43.27,43.27,0,0,0-43.27-43.27h-1.52" transform="translate(-4274.81 -3655.15)"/><path class="cls-2" d="M8422,3833.79h0a43.28,43.28,0,0,0-43.28,43.27v1.51" transform="translate(-4274.81 -3655.15)"/><path class="cls-2" d="M8414,3952.65h0a43.28,43.28,0,0,0-43.28-43.28h-1.51" transform="translate(-4274.81 -3655.15)"/><path class="cls-1" d="M8487.72,3908.62h0a43.27,43.27,0,0,0-43.27,43.27v1.51" transform="translate(-4274.81 -3655.15)"/><path class="cls-1" d="M8300.88,3824.39h0a43.28,43.28,0,0,0,43.28,43.27h1.51" transform="translate(-4274.81 -3655.15)"/><path class="cls-2" d="M8228.14,3868.42h0a43.28,43.28,0,0,0,43.27-43.28v-1.51" transform="translate(-4274.81 -3655.15)"/><path class="cls-3" d="M8283.4,3906.9h0a43.28,43.28,0,0,0-43.27,43.28v1.51" transform="translate(-4274.81 -3655.15)"/><path class="cls-2" d="M8291.31,3907.41h0a43.28,43.28,0,0,1,43.28,43.28v1.51" transform="translate(-4274.81 -3655.15)"/><path class="cls-1" d="M7673.71,4031.22h0a43.28,43.28,0,0,1,43.27-43.28h1.51" transform="translate(-4274.81 -3655.15)"/><path class="cls-2" d="M7729.92,3987.94h0a43.28,43.28,0,0,1,43.28,43.28v1.51" transform="translate(-4274.81 -3655.15)"/><path class="cls-2" d="M7738,4106.8h0a43.28,43.28,0,0,1,43.28-43.27h1.51" transform="translate(-4274.81 -3655.15)"/><path class="cls-3" d="M7664.22,4062.77h0a43.28,43.28,0,0,1,43.27,43.28v1.51" transform="translate(-4274.81 -3655.15)"/><path class="cls-2" d="M7851.06,3978.54h0a43.28,43.28,0,0,1-43.28,43.28h-1.51" transform="translate(-4274.81 -3655.15)"/><path class="cls-3" d="M7923.8,4022.58h0a43.28,43.28,0,0,1-43.27-43.28v-1.51" transform="translate(-4274.81 -3655.15)"/><path class="cls-2" d="M7868.54,4061.06h0a43.27,43.27,0,0,1,43.27,43.27v1.51" transform="translate(-4274.81 -3655.15)"/><path class="cls-1" d="M7860.63,4061.57h0a43.28,43.28,0,0,0-43.28,43.27v1.52" transform="translate(-4274.81 -3655.15)"/><path class="cls-2" d="M7954.3,4029.4h0a43.28,43.28,0,0,1,43.28-43.27h1.51" transform="translate(-4274.81 -3655.15)"/><path class="cls-2" d="M8010.51,3986.13h0a43.28,43.28,0,0,1,43.28,43.27v1.52" transform="translate(-4274.81 -3655.15)"/><path class="cls-3" d="M8018.55,4105h0a43.28,43.28,0,0,1,43.28-43.28h1.51" transform="translate(-4274.81 -3655.15)"/><path class="cls-2" d="M7944.81,4061h0a43.27,43.27,0,0,1,43.27,43.27v1.52" transform="translate(-4274.81 -3655.15)"/><path class="cls-2" d="M8131.65,3976.73h0a43.28,43.28,0,0,1-43.28,43.28h-1.51" transform="translate(-4274.81 -3655.15)"/><path class="cls-1" d="M8204.4,4020.76h0a43.27,43.27,0,0,1-43.27-43.27V3976" transform="translate(-4274.81 -3655.15)"/><path class="cls-2" d="M8149.13,4059.24h0a43.28,43.28,0,0,1,43.27,43.28V4104" transform="translate(-4274.81 -3655.15)"/><path class="cls-2" d="M8141.22,4059.75h0A43.28,43.28,0,0,0,8098,4103v1.51" transform="translate(-4274.81 -3655.15)"/><path class="cls-2" d="M8197.76,4191.72h0a43.28,43.28,0,0,0-43.27-43.28H8153" transform="translate(-4274.81 -3655.15)"/><path class="cls-1" d="M8141.55,4148.44h0a43.28,43.28,0,0,0-43.27,43.28v1.51" transform="translate(-4274.81 -3655.15)"/><path class="cls-3" d="M8133.51,4267.3h0a43.27,43.27,0,0,0-43.28-43.27h-1.51" transform="translate(-4274.81 -3655.15)"/><path class="cls-2" d="M8207.26,4223.27h0a43.28,43.28,0,0,0-43.28,43.28v1.51" transform="translate(-4274.81 -3655.15)"/><path class="cls-3" d="M8020.41,4139h0a43.28,43.28,0,0,0,43.28,43.28h1.51" transform="translate(-4274.81 -3655.15)"/><path class="cls-2" d="M7947.67,4183.07h0A43.28,43.28,0,0,0,7991,4139.8v-1.51" transform="translate(-4274.81 -3655.15)"/><path class="cls-2" d="M8002.94,4221.55h0a43.28,43.28,0,0,0-43.28,43.28v1.51" transform="translate(-4274.81 -3655.15)"/><path class="cls-2" d="M8010.84,4222.07h0a43.28,43.28,0,0,1,43.28,43.27v1.51" transform="translate(-4274.81 -3655.15)"/><path class="cls-2" d="M7917.17,4189.9h0a43.27,43.27,0,0,0-43.27-43.27h-1.52" transform="translate(-4274.81 -3655.15)"/><path class="cls-2" d="M7861,4146.63h0a43.28,43.28,0,0,0-43.28,43.27v1.52" transform="translate(-4274.81 -3655.15)"/><path class="cls-2" d="M7852.92,4265.49h0a43.28,43.28,0,0,0-43.28-43.28h-1.51" transform="translate(-4274.81 -3655.15)"/><path class="cls-1" d="M7926.66,4221.46h0a43.27,43.27,0,0,0-43.27,43.27v1.51" transform="translate(-4274.81 -3655.15)"/><path class="cls-1" d="M7739.82,4137.23h0a43.28,43.28,0,0,0,43.28,43.27h1.51" transform="translate(-4274.81 -3655.15)"/><path class="cls-2" d="M7667.08,4181.26h0a43.27,43.27,0,0,0,43.27-43.27v-1.52" transform="translate(-4274.81 -3655.15)"/><path class="cls-3" d="M7722.34,4219.74h0a43.28,43.28,0,0,0-43.27,43.28v1.51" transform="translate(-4274.81 -3655.15)"/><path class="cls-2" d="M7730.25,4220.25h0a43.28,43.28,0,0,1,43.28,43.28V4265" transform="translate(-4274.81 -3655.15)"/><path class="cls-1" d="M8234.77,4027.69h0a43.28,43.28,0,0,1,43.27-43.28h1.51" transform="translate(-4274.81 -3655.15)"/><path class="cls-2" d="M8291,3984.41h0a43.28,43.28,0,0,1,43.28,43.28v1.51" transform="translate(-4274.81 -3655.15)"/><path class="cls-2" d="M8299,4103.27h0A43.28,43.28,0,0,1,8342.3,4060h1.51" transform="translate(-4274.81 -3655.15)"/><path class="cls-3" d="M8225.28,4059.24h0a43.28,43.28,0,0,1,43.27,43.28V4104" transform="translate(-4274.81 -3655.15)"/><path class="cls-2" d="M8412.12,3975h0a43.28,43.28,0,0,1-43.28,43.28h-1.51" transform="translate(-4274.81 -3655.15)"/><path class="cls-3" d="M8484.86,4019.05h0a43.28,43.28,0,0,1-43.27-43.28v-1.51" transform="translate(-4274.81 -3655.15)"/><path class="cls-2" d="M8429.6,4057.53h0a43.27,43.27,0,0,1,43.27,43.27v1.51" transform="translate(-4274.81 -3655.15)"/><path class="cls-1" d="M8421.69,4058h0a43.28,43.28,0,0,0-43.28,43.27v1.52" transform="translate(-4274.81 -3655.15)"/><path class="cls-2" d="M8515.36,4025.88h0a43.28,43.28,0,0,1,43.28-43.28h1.51" transform="translate(-4274.81 -3655.15)"/><path class="cls-2" d="M8571.57,3982.6h0a43.28,43.28,0,0,1,43.28,43.28v1.51" transform="translate(-4274.81 -3655.15)"/><path class="cls-3" d="M8579.61,4101.46h0a43.28,43.28,0,0,1,43.28-43.28h1.51" transform="translate(-4274.81 -3655.15)"/><path class="cls-2" d="M8505.87,4057.43h0a43.27,43.27,0,0,1,43.27,43.27v1.52" transform="translate(-4274.81 -3655.15)"/><path class="cls-2" d="M8692.71,3973.2h0a43.28,43.28,0,0,1-43.28,43.28h-1.51" transform="translate(-4274.81 -3655.15)"/><path class="cls-1" d="M8765.45,4017.23h0a43.27,43.27,0,0,1-43.27-43.27v-1.52" transform="translate(-4274.81 -3655.15)"/><path class="cls-2" d="M8710.19,4055.71h0a43.28,43.28,0,0,1,43.27,43.28v1.51" transform="translate(-4274.81 -3655.15)"/><path class="cls-2" d="M8702.28,4056.22h0A43.28,43.28,0,0,0,8659,4099.5V4101" transform="translate(-4274.81 -3655.15)"/><path class="cls-2" d="M8758.82,4188.19h0a43.28,43.28,0,0,0-43.27-43.28H8714" transform="translate(-4274.81 -3655.15)"/><path class="cls-1" d="M8702.61,4144.91h0a43.28,43.28,0,0,0-43.27,43.28v1.51" transform="translate(-4274.81 -3655.15)"/><path class="cls-3" d="M8694.57,4263.77h0a43.28,43.28,0,0,0-43.28-43.27h-1.51" transform="translate(-4274.81 -3655.15)"/><path class="cls-2" d="M8768.32,4219.74h0A43.28,43.28,0,0,0,8725,4263v1.51" transform="translate(-4274.81 -3655.15)"/><path class="cls-3" d="M8581.47,4135.51h0a43.28,43.28,0,0,0,43.28,43.28h1.51" transform="translate(-4274.81 -3655.15)"/><path class="cls-2" d="M8508.73,4179.54h0a43.28,43.28,0,0,0,43.28-43.27v-1.51" transform="translate(-4274.81 -3655.15)"/><path class="cls-2" d="M8564,4218h0a43.28,43.28,0,0,0-43.28,43.27v1.51" transform="translate(-4274.81 -3655.15)"/><path class="cls-2" d="M8571.9,4218.54h0a43.28,43.28,0,0,1,43.28,43.27v1.51" transform="translate(-4274.81 -3655.15)"/><path class="cls-2" d="M8478.23,4186.37h0A43.27,43.27,0,0,0,8435,4143.1h-1.52" transform="translate(-4274.81 -3655.15)"/><path class="cls-2" d="M8422,4143.1h0a43.28,43.28,0,0,0-43.28,43.27v1.52" transform="translate(-4274.81 -3655.15)"/><path class="cls-2" d="M8414,4262h0a43.28,43.28,0,0,0-43.28-43.28h-1.51" transform="translate(-4274.81 -3655.15)"/><path class="cls-1" d="M8487.72,4217.93h0a43.27,43.27,0,0,0-43.27,43.27v1.51" transform="translate(-4274.81 -3655.15)"/><path class="cls-1" d="M8300.88,4133.7h0a43.28,43.28,0,0,0,43.28,43.28h1.51" transform="translate(-4274.81 -3655.15)"/><path class="cls-2" d="M8228.14,4177.73h0a43.27,43.27,0,0,0,43.27-43.27v-1.52" transform="translate(-4274.81 -3655.15)"/><path class="cls-3" d="M8283.4,4216.21h0a43.28,43.28,0,0,0-43.27,43.28V4261" transform="translate(-4274.81 -3655.15)"/><path class="cls-2" d="M8291.31,4216.72h0a43.28,43.28,0,0,1,43.28,43.28v1.51" transform="translate(-4274.81 -3655.15)"/></g></g></svg>