<svg xmlns="http://www.w3.org/2000/svg" viewBox="0 0 379.82 123.72"><defs><style>.cls-1,.cls-2{fill:#007737;stroke:#007737;}.cls-1,.cls-2,.cls-3{stroke-miterlimit:10;}.cls-1,.cls-3{stroke-width:2px;}.cls-2{stroke-width:3px;}.cls-3{fill:#d1d84c;stroke:#d1d84c;}</style></defs><g id="Camada_2" data-name="Camada 2"><g id="Camada_1-2" data-name="Camada 1"><path class="cls-1" d="M68.47,122.22c-25.93,0-38.73-14.6-38.73-41V33.6h15.1V81.2c0,17.88,6.89,27.57,23.8,27.57,15.42,0,24.12-8.7,24.12-27.57V33.6h15.1V81.2C107.86,109.42,92.76,122.22,68.47,122.22Z"/><path class="cls-1" d="M236.29,122.22V74.63c0-17.89-6.4-27.57-21.34-27.57-14.11,0-22,8.7-22,27.57v47.59h-15.1V74.63c0-17.89-6.56-27.57-21.5-27.57-14,0-21.82,8.7-21.82,27.57v47.59h-15.1V74.63c0-28.23,12.64-41,36.1-41,17.24,0,27.58,9.36,29.87,19.53,2.46-10.34,13-19.53,30.37-19.53,24.61,0,35.61,14.61,35.61,41v47.59Z"/><path class="cls-1" d="M265.83,122.22V33.6h9a6.48,6.48,0,0,1,6.48,6.49v82.13Z"/><path class="cls-2" d="M1.5,1.5h9.76a4,4,0,0,1,4,4V122.22a0,0,0,0,1,0,0H1.5a0,0,0,0,1,0,0V1.5A0,0,0,0,1,1.5,1.5Z"/><path class="cls-3" d="M332.88,33.6A41.06,41.06,0,0,0,307,42.38c-9.65,7.78-14.45,19-14.19,34,.89,40.47,21.7,45.19,43,45.83s28.6-11.62,28.6-11.62l-.11,11.65h14.36l.11-88.63ZM306.12,75.69C308,41.61,333.05,46.3,363.67,45.62c-29.68,14.83-47,42.94-53.11,54.43C305.81,92.86,305.72,82.69,306.12,75.69Zm47.54,30c-6.18,4.52-15.22,4.45-18.76,4.37-4.73-.11-10.47-.18-16.27-3.12,11.14-24.49,31.84-41.13,45.06-49.82V79.39C363.21,87.4,365.79,96.85,353.66,105.73Z"/></g></g></svg>