<svg xmlns="http://www.w3.org/2000/svg" viewBox="0 0 531.04 130.93"><defs><style>.cls-1,.cls-2{fill:#003a33;stroke:#003a33;}.cls-1,.cls-2,.cls-3{stroke-miterlimit:10;}.cls-1,.cls-3{stroke-width:2px;}.cls-2{stroke-width:3px;}.cls-3,.cls-4{fill:#007737;}.cls-3{stroke:#007737;}</style></defs><g id="Camada_2" data-name="Camada 2"><g id="Camada_1-2" data-name="Camada 1"><path class="cls-1" d="M68.47,122.22c-25.93,0-38.73-14.6-38.73-41V33.6h15.1V81.2c0,17.88,6.89,27.57,23.8,27.57,15.42,0,24.12-8.7,24.12-27.57V33.6h15.1V81.2C107.86,109.42,92.76,122.22,68.47,122.22Z"/><path class="cls-1" d="M236.29,122.22V74.63c0-17.89-6.4-27.57-21.34-27.57-14.11,0-22,8.7-22,27.57v47.59h-15.1V74.63c0-17.89-6.56-27.57-21.5-27.57-14,0-21.82,8.7-21.82,27.57v47.59h-15.1V74.63c0-28.23,12.64-41,36.1-41,17.24,0,27.58,9.36,29.87,19.53,2.46-10.34,13-19.53,30.37-19.53,24.61,0,35.61,14.61,35.61,41v47.59Z"/><path class="cls-1" d="M265.83,122.22V33.6h9a6.48,6.48,0,0,1,6.48,6.49v82.13Z"/><path class="cls-2" d="M1.5,1.5h9.76a4,4,0,0,1,4,4V122.22a0,0,0,0,1,0,0H1.5a0,0,0,0,1,0,0V1.5A0,0,0,0,1,1.5,1.5Z"/><path class="cls-3" d="M332.88,33.6A41.06,41.06,0,0,0,307,42.38c-9.65,7.78-14.45,19-14.19,34,.89,40.47,21.7,45.19,43,45.83s28.6-11.62,28.6-11.62l-.11,11.65h14.36l.11-88.63ZM306.12,75.69C308,41.61,333.05,46.3,363.67,45.62c-29.68,14.83-47,42.94-53.11,54.43C305.81,92.86,305.72,82.69,306.12,75.69Zm47.54,30c-6.18,4.52-15.22,4.45-18.76,4.37-4.73-.11-10.47-.18-16.27-3.12,11.14-24.49,31.84-41.13,45.06-49.82V79.39C363.21,87.4,365.79,96.85,353.66,105.73Z"/><path class="cls-4" d="M401.15,75.51a5.77,5.77,0,0,1-2.89-.72,5.39,5.39,0,0,1-2-2,5.77,5.77,0,0,1-.74-2.93,5.85,5.85,0,0,1,.74-2.95,5.19,5.19,0,0,1,2-2,6.15,6.15,0,0,1,5.34-.21,4.35,4.35,0,0,1,1.78,1.54l-.79.58a3.61,3.61,0,0,0-1.49-1.26,4.89,4.89,0,0,0-4.29.18,4.15,4.15,0,0,0-1.62,1.65,5.44,5.44,0,0,0,0,4.93A4.21,4.21,0,0,0,398.81,74a5,5,0,0,0,4.29.18,3.61,3.61,0,0,0,1.49-1.26l.79.57A4.21,4.21,0,0,1,403.6,75,5.74,5.74,0,0,1,401.15,75.51Z"/><path class="cls-4" d="M413,75.51a5.59,5.59,0,0,1-2.85-.72,5.41,5.41,0,0,1-2-2,6.17,6.17,0,0,1,0-5.86,5.31,5.31,0,0,1,2-2,5.5,5.5,0,0,1,2.85-.73,5.56,5.56,0,0,1,2.86.73,5.31,5.31,0,0,1,2,2,6.32,6.32,0,0,1,0,5.86,5.41,5.41,0,0,1-2,2A5.65,5.65,0,0,1,413,75.51Zm0-1a4.54,4.54,0,0,0,2.3-.58,4.21,4.21,0,0,0,1.61-1.66,5.13,5.13,0,0,0,.57-2.46,5.08,5.08,0,0,0-.57-2.46,4.12,4.12,0,0,0-1.61-1.65,4.78,4.78,0,0,0-4.6,0,4.17,4.17,0,0,0-1.6,1.65,5,5,0,0,0-.59,2.46,5,5,0,0,0,.59,2.46,4.26,4.26,0,0,0,1.6,1.66A4.52,4.52,0,0,0,413,74.55Z"/><path class="cls-4" d="M427.52,64.19a5.12,5.12,0,0,1,2.38.53,3.65,3.65,0,0,1,1.58,1.58,5.42,5.42,0,0,1,.57,2.61v6.52H431V69a4,4,0,0,0-1-2.86,3.52,3.52,0,0,0-2.66-1,4.57,4.57,0,0,0-2.27.54,3.5,3.5,0,0,0-1.46,1.49,4.86,4.86,0,0,0-.5,2.31v5.94h-1.07V64.28h1v3.1l-.15-.35A4.33,4.33,0,0,1,424.63,65,5.21,5.21,0,0,1,427.52,64.19Z"/><path class="cls-4" d="M439.48,75.51a8.14,8.14,0,0,1-2.6-.4,5.08,5.08,0,0,1-1.87-1l.5-.85a5.29,5.29,0,0,0,1.71,1,6.65,6.65,0,0,0,2.3.39A4.3,4.3,0,0,0,442,74a1.8,1.8,0,0,0,.77-1.52,1.48,1.48,0,0,0-.39-1.08,2.79,2.79,0,0,0-1.06-.61,11,11,0,0,0-1.45-.35c-.53-.09-1.06-.19-1.58-.31a6.59,6.59,0,0,1-1.46-.49,2.61,2.61,0,0,1-1.05-.89,2.51,2.51,0,0,1-.4-1.5,2.67,2.67,0,0,1,.47-1.54,3.2,3.2,0,0,1,1.41-1.1,5.78,5.78,0,0,1,2.35-.42,7.74,7.74,0,0,1,2.11.3,5.22,5.22,0,0,1,1.71.79l-.49.86a4.31,4.31,0,0,0-1.58-.77,6.63,6.63,0,0,0-1.77-.24,3.82,3.82,0,0,0-2.38.6,1.83,1.83,0,0,0-.76,1.49,1.58,1.58,0,0,0,.39,1.13,2.71,2.71,0,0,0,1.06.64,9.6,9.6,0,0,0,1.45.36c.53.09,1.06.2,1.59.31a6.5,6.5,0,0,1,1.45.48,2.73,2.73,0,0,1,1.06.86,2.45,2.45,0,0,1,.39,1.46,2.65,2.65,0,0,1-.5,1.6,3.27,3.27,0,0,1-1.49,1.07A6.55,6.55,0,0,1,439.48,75.51Z"/><path class="cls-4" d="M451.61,75.51a5.42,5.42,0,0,1-2.47-.52,3.64,3.64,0,0,1-1.62-1.58,5.58,5.58,0,0,1-.56-2.62V64.28H448v6.43a3.93,3.93,0,0,0,1,2.86,3.59,3.59,0,0,0,2.71,1,4.22,4.22,0,0,0,2.18-.53,3.61,3.61,0,0,0,1.41-1.51,5,5,0,0,0,.49-2.29V64.28h1.07V75.43h-1v-3.1l.15.36a4.23,4.23,0,0,1-1.63,2.07A4.85,4.85,0,0,1,451.61,75.51Z"/><path class="cls-4" d="M461.59,75.43V59.58h1.07V75.43Z"/><path class="cls-4" d="M465.39,65.2v-.92h6.67v.92Zm5.09,10.31a3,3,0,0,1-2.26-.81,3.07,3.07,0,0,1-.78-2.22V61.84h1.07V72.37a2.33,2.33,0,0,0,.54,1.65,2,2,0,0,0,1.53.58,2.48,2.48,0,0,0,1.73-.62l.45.74a2.64,2.64,0,0,1-1,.6A4.08,4.08,0,0,1,470.48,75.51Z"/><path class="cls-4" d="M479.9,75.51a5.59,5.59,0,0,1-2.85-.72,5.41,5.41,0,0,1-2-2,6.17,6.17,0,0,1,0-5.86,5.31,5.31,0,0,1,2-2,5.5,5.5,0,0,1,2.85-.73,5.56,5.56,0,0,1,2.86.73,5.31,5.31,0,0,1,2,2,6.32,6.32,0,0,1,0,5.86,5.41,5.41,0,0,1-2,2A5.65,5.65,0,0,1,479.9,75.51Zm0-1a4.61,4.61,0,0,0,2.31-.58,4.26,4.26,0,0,0,1.6-1.66,5.14,5.14,0,0,0,.58-2.46,5.08,5.08,0,0,0-.58-2.46,4.17,4.17,0,0,0-1.6-1.65,4.62,4.62,0,0,0-2.31-.59,4.55,4.55,0,0,0-2.3.59,4.23,4.23,0,0,0-1.6,1.65,5,5,0,0,0-.59,2.46,5,5,0,0,0,.59,2.46A4.33,4.33,0,0,0,477.6,74,4.54,4.54,0,0,0,479.9,74.55Z"/><path class="cls-4" d="M489,75.43V64.28h1v3l-.11-.34a3.9,3.9,0,0,1,1.58-2.07,4.94,4.94,0,0,1,2.78-.73v1H494a3.7,3.7,0,0,0-2.9,1.16,4.68,4.68,0,0,0-1.05,3.24v5.81Z"/><path class="cls-4" d="M498,61.56a.84.84,0,0,1-.62-.25.82.82,0,0,1-.25-.6.84.84,0,0,1,.25-.62.89.89,0,0,1,1.25,0,.81.81,0,0,1,.25.61.84.84,0,0,1-.25.62A.82.82,0,0,1,498,61.56Zm-.53,13.87V64.28h1.07V75.43Z"/><path class="cls-4" d="M506.24,75.51a5.43,5.43,0,0,1-2.15-.39A3.09,3.09,0,0,1,502.71,74a2.9,2.9,0,0,1-.49-1.67,3.14,3.14,0,0,1,.4-1.55,2.85,2.85,0,0,1,1.31-1.13,5.86,5.86,0,0,1,2.46-.44h4.1v.84h-4.08a3.55,3.55,0,0,0-2.42.64A2.19,2.19,0,0,0,504.1,74a3.63,3.63,0,0,0,2.29.64,4.21,4.21,0,0,0,2.38-.64,3.77,3.77,0,0,0,1.44-1.86l.3.73A3.87,3.87,0,0,1,509,74.8,4.87,4.87,0,0,1,506.24,75.51Zm4-.08V72.89l-.05-.39V68.31a3.16,3.16,0,0,0-.84-2.37,3.42,3.42,0,0,0-2.47-.81,5.58,5.58,0,0,0-2.14.4,5.68,5.68,0,0,0-1.7,1l-.54-.77a6,6,0,0,1,2-1.16,7.23,7.23,0,0,1,2.46-.42,4.45,4.45,0,0,1,3.18,1,4.1,4.1,0,0,1,1.11,3.12v7.07Z"/><path class="cls-4" d="M526.13,75.51a6,6,0,0,1-3-.72,5.37,5.37,0,0,1-2-2,5.77,5.77,0,0,1-.74-2.93,5.91,5.91,0,0,1,.7-2.93,5.11,5.11,0,0,1,1.91-2,5.17,5.17,0,0,1,2.73-.73,5.34,5.34,0,0,1,2.73.71,5.07,5.07,0,0,1,1.9,2,6.08,6.08,0,0,1,.69,2.94.71.71,0,0,1,0,.14s0,.1,0,.16h-9.85v-.83h9.28l-.43.4a4.65,4.65,0,0,0-.55-2.34A4.17,4.17,0,0,0,528,65.72a4.47,4.47,0,0,0-4.44,0A4.09,4.09,0,0,0,522,67.34a4.81,4.81,0,0,0-.56,2.36v.2a4.7,4.7,0,0,0,.61,2.42A4.23,4.23,0,0,0,523.72,74a5,5,0,0,0,2.43.58,5.12,5.12,0,0,0,2-.38A4,4,0,0,0,529.72,73l.62.71a4.49,4.49,0,0,1-1.83,1.35A6,6,0,0,1,526.13,75.51Z"/><path class="cls-4" d="M401.26,101.15a6,6,0,0,1-3-.72,5.37,5.37,0,0,1-2-2,5.8,5.8,0,0,1-.74-2.93,6.08,6.08,0,0,1,.7-2.94,5.14,5.14,0,0,1,4.64-2.72,5.31,5.31,0,0,1,2.73.7,5,5,0,0,1,1.9,2,6.08,6.08,0,0,1,.69,2.94.71.71,0,0,1,0,.14s0,.1,0,.16H396.3v-.84h9.28l-.43.41A4.65,4.65,0,0,0,404.6,93a4.23,4.23,0,0,0-7.48,0,4.93,4.93,0,0,0-.56,2.36v.19a4.77,4.77,0,0,0,.61,2.43,4.27,4.27,0,0,0,1.68,1.64,5,5,0,0,0,2.43.59,5.13,5.13,0,0,0,2-.39,3.84,3.84,0,0,0,1.57-1.17l.62.71a4.59,4.59,0,0,1-1.83,1.35A6,6,0,0,1,401.26,101.15Z"/><path class="cls-4" d="M415.15,89.83a5.12,5.12,0,0,1,2.38.52,3.71,3.71,0,0,1,1.58,1.58,5.49,5.49,0,0,1,.57,2.62v6.52h-1.07V94.63a4,4,0,0,0-.95-2.86,3.56,3.56,0,0,0-2.66-1,4.67,4.67,0,0,0-2.27.53,3.58,3.58,0,0,0-1.46,1.5,4.86,4.86,0,0,0-.5,2.31v5.94H409.7V89.91h1V93l-.14-.34a4.21,4.21,0,0,1,1.68-2.08A5.21,5.21,0,0,1,415.15,89.83Z"/><path class="cls-4" d="M428.63,100.66a5.73,5.73,0,0,1-2.83-.69,5.27,5.27,0,0,1-2-1.93,5.72,5.72,0,0,1,0-5.63,5.19,5.19,0,0,1,2-1.9,5.83,5.83,0,0,1,2.83-.68,5.67,5.67,0,0,1,2.72.65,4.75,4.75,0,0,1,1.91,1.86,6.24,6.24,0,0,1,0,5.78,4.86,4.86,0,0,1-1.91,1.88A5.56,5.56,0,0,1,428.63,100.66Zm.3,4.64a8.89,8.89,0,0,1-2.89-.47,5.89,5.89,0,0,1-2.22-1.31l.58-.81a6,6,0,0,0,2,1.2,7.39,7.39,0,0,0,2.51.42,4.55,4.55,0,0,0,3.31-1,4.5,4.5,0,0,0,1.05-3.29V96.9l.22-1.67-.17-1.66V89.91h1v10A5.47,5.47,0,0,1,433,104,5.57,5.57,0,0,1,428.93,105.3Zm-.22-5.6a4.78,4.78,0,0,0,2.37-.57,4.1,4.1,0,0,0,1.62-1.58,5,5,0,0,0,0-4.65,4.26,4.26,0,0,0-1.62-1.56,5.32,5.32,0,0,0-4.71,0,4.19,4.19,0,0,0-1.62,1.56,4.88,4.88,0,0,0,0,4.65,4,4,0,0,0,1.62,1.58A4.77,4.77,0,0,0,428.71,99.7Z"/><path class="cls-4" d="M443.6,101.15a6,6,0,0,1-3-.72,5.37,5.37,0,0,1-2-2,5.79,5.79,0,0,1-.73-2.93,6.08,6.08,0,0,1,.69-2.94,5.43,5.43,0,0,1,7.37-2,5,5,0,0,1,1.9,2,6.08,6.08,0,0,1,.7,2.94s0,.09,0,.14a.78.78,0,0,0,0,.16h-9.84v-.84h9.27l-.43.41A4.65,4.65,0,0,0,447,93a4.26,4.26,0,0,0-1.53-1.62,4.25,4.25,0,0,0-6,1.62,4.93,4.93,0,0,0-.56,2.36v.19a4.87,4.87,0,0,0,.61,2.43,4.34,4.34,0,0,0,1.68,1.64,5,5,0,0,0,2.43.59,5.09,5.09,0,0,0,2-.39,3.84,3.84,0,0,0,1.57-1.17l.62.71a4.52,4.52,0,0,1-1.83,1.35A6,6,0,0,1,443.6,101.15Z"/><path class="cls-4" d="M457.49,89.83a5.12,5.12,0,0,1,2.38.52,3.71,3.71,0,0,1,1.58,1.58,5.49,5.49,0,0,1,.57,2.62v6.52H461V94.63a4,4,0,0,0-.95-2.86,3.54,3.54,0,0,0-2.66-1,4.7,4.7,0,0,0-2.27.53,3.64,3.64,0,0,0-1.46,1.5,5,5,0,0,0-.5,2.31v5.94H452V89.91h1V93l-.15-.34a4.21,4.21,0,0,1,1.68-2.08A5.21,5.21,0,0,1,457.49,89.83Z"/><path class="cls-4" d="M472.08,89.83a5.09,5.09,0,0,1,2.38.52A3.65,3.65,0,0,1,476,91.93a5.49,5.49,0,0,1,.57,2.62v6.52h-1.07V94.63a4,4,0,0,0-1-2.86,3.54,3.54,0,0,0-2.66-1,4.63,4.63,0,0,0-2.26.53,3.6,3.6,0,0,0-1.47,1.5,5,5,0,0,0-.5,2.31v5.94h-1.07V85.21h1.07V93l-.19-.34a4.18,4.18,0,0,1,1.69-2.08A5.15,5.15,0,0,1,472.08,89.83Z"/><path class="cls-4" d="M484.23,101.15a5.38,5.38,0,0,1-2.14-.39,3.09,3.09,0,0,1-1.39-1.13,2.94,2.94,0,0,1-.48-1.66,3.1,3.1,0,0,1,.39-1.55,2.93,2.93,0,0,1,1.32-1.13,5.77,5.77,0,0,1,2.45-.44h4.11v.83h-4.08a3.61,3.61,0,0,0-2.43.64,2.1,2.1,0,0,0-.69,1.61,2,2,0,0,0,.81,1.7,3.58,3.58,0,0,0,2.28.65,4.25,4.25,0,0,0,2.39-.65,3.75,3.75,0,0,0,1.44-1.85l.3.72a3.91,3.91,0,0,1-1.53,1.94A4.92,4.92,0,0,1,484.23,101.15Zm4-.08V98.52l0-.38V94a3.11,3.11,0,0,0-.85-2.37,3.41,3.41,0,0,0-2.46-.81,5.83,5.83,0,0,0-2.15.39,6,6,0,0,0-1.7,1l-.53-.77a5.68,5.68,0,0,1,2-1.16,7.21,7.21,0,0,1,2.45-.42,4.49,4.49,0,0,1,3.19,1A4.06,4.06,0,0,1,489.28,94v7.08Z"/><path class="cls-4" d="M493.89,101.07V89.91h1V93l-.11-.34a4,4,0,0,1,1.58-2.08,5,5,0,0,1,2.78-.72v1l-.13,0h-.13A3.67,3.67,0,0,0,496,92,4.64,4.64,0,0,0,495,95.26v5.81Z"/><path class="cls-4" d="M502.86,87.2a.83.83,0,0,1-.62-.26.81.81,0,0,1-.25-.59.83.83,0,0,1,.25-.62.87.87,0,0,1,.62-.26.82.82,0,0,1,.63.25.79.79,0,0,1,.25.6.83.83,0,0,1-.25.62A.79.79,0,0,1,502.86,87.2Zm-.53,13.87V89.91h1.07v11.16Z"/><path class="cls-4" d="M511.13,101.15a5.38,5.38,0,0,1-2.14-.39,3.09,3.09,0,0,1-1.39-1.13,2.94,2.94,0,0,1-.48-1.66,3.1,3.1,0,0,1,.39-1.55,2.83,2.83,0,0,1,1.32-1.13,5.77,5.77,0,0,1,2.45-.44h4.1v.83H511.3a3.6,3.6,0,0,0-2.42.64,2.11,2.11,0,0,0-.7,1.61,2,2,0,0,0,.82,1.7,3.58,3.58,0,0,0,2.28.65,4.19,4.19,0,0,0,2.38-.65,3.77,3.77,0,0,0,1.45-1.85l.3.72a3.91,3.91,0,0,1-1.53,1.94A5,5,0,0,1,511.13,101.15Zm4-.08V98.52l0-.38V94a3.15,3.15,0,0,0-.85-2.37,3.41,3.41,0,0,0-2.46-.81,5.83,5.83,0,0,0-2.15.39,6,6,0,0,0-1.7,1l-.53-.77a5.72,5.72,0,0,1,2-1.16,7.31,7.31,0,0,1,2.46-.42,4.45,4.45,0,0,1,3.18,1A4.06,4.06,0,0,1,516.17,94v7.08Z"/><path class="cls-4" d="M397.27,112.84a.84.84,0,0,1-.62-.26.79.79,0,0,1-.26-.6.82.82,0,0,1,.26-.62.83.83,0,0,1,.62-.25.88.88,0,0,1,.63.24.85.85,0,0,1,.24.61.88.88,0,0,1-.24.62A.86.86,0,0,1,397.27,112.84Zm-.54,13.86V115.55h1.07V126.7Z"/><path class="cls-4" d="M408,115.46a5.12,5.12,0,0,1,2.38.53,3.65,3.65,0,0,1,1.58,1.58,5.46,5.46,0,0,1,.57,2.62v6.51h-1.07v-6.43a4,4,0,0,0-.95-2.86,3.52,3.52,0,0,0-2.66-1,4.59,4.59,0,0,0-2.27.53,3.52,3.52,0,0,0-1.46,1.5,5,5,0,0,0-.5,2.3v5.94h-1.07V115.55h1v3.1l-.15-.34a4.23,4.23,0,0,1,1.68-2.09A5.29,5.29,0,0,1,408,115.46Z"/><path class="cls-4" d="M415.27,116.47v-.92h6.67v.92Zm5.09,10.32a3,3,0,0,1-2.26-.82,3.11,3.11,0,0,1-.77-2.22V113.11h1.06v10.54a2.3,2.3,0,0,0,.54,1.64,2,2,0,0,0,1.53.58,2.52,2.52,0,0,0,1.74-.62l.44.75a2.51,2.51,0,0,1-1,.59A4.09,4.09,0,0,1,420.36,126.79Z"/><path class="cls-4" d="M430,126.79a5.93,5.93,0,0,1-3-.73,5.23,5.23,0,0,1-2-2,5.76,5.76,0,0,1-.74-2.92,6.06,6.06,0,0,1,.7-2.94,5.17,5.17,0,0,1,1.91-2,5.54,5.54,0,0,1,5.46,0,5,5,0,0,1,1.9,2,6,6,0,0,1,.69,2.93.66.66,0,0,1,0,.14s0,.11,0,.16H425v-.83h9.28l-.43.4a4.64,4.64,0,0,0-.55-2.33,4.22,4.22,0,0,0-7.48,0,4.9,4.9,0,0,0-.56,2.36v.19a4.7,4.7,0,0,0,.61,2.42,4.23,4.23,0,0,0,1.68,1.65,5,5,0,0,0,2.43.59,5.13,5.13,0,0,0,2-.39,4,4,0,0,0,1.57-1.17l.62.7a4.61,4.61,0,0,1-1.83,1.36A6.19,6.19,0,0,1,430,126.79Z"/><path class="cls-4" d="M442.73,126.3a5.74,5.74,0,0,1-2.83-.7,5.17,5.17,0,0,1-2-1.92,5.72,5.72,0,0,1,0-5.63,5.12,5.12,0,0,1,2-1.9,5.73,5.73,0,0,1,2.83-.69,5.56,5.56,0,0,1,2.72.66,4.79,4.79,0,0,1,1.91,1.85,6.24,6.24,0,0,1,0,5.78,4.86,4.86,0,0,1-1.91,1.88A5.56,5.56,0,0,1,442.73,126.3Zm.3,4.63a8.89,8.89,0,0,1-2.89-.47,5.88,5.88,0,0,1-2.22-1.3l.58-.81a5.83,5.83,0,0,0,2,1.19A7.16,7.16,0,0,0,443,130a4.51,4.51,0,0,0,3.3-1.05,4.44,4.44,0,0,0,1.06-3.29v-3.09l.22-1.67-.17-1.67v-3.65h1v10a5.49,5.49,0,0,1-1.36,4.11A5.61,5.61,0,0,1,443,130.93Zm-.22-5.6a4.77,4.77,0,0,0,2.37-.56,4.24,4.24,0,0,0,1.62-1.58,5,5,0,0,0,0-4.65,4.12,4.12,0,0,0-1.62-1.56,5.32,5.32,0,0,0-4.71,0,4.05,4.05,0,0,0-1.62,1.56,4.88,4.88,0,0,0,0,4.65,4.17,4.17,0,0,0,1.62,1.58A4.76,4.76,0,0,0,442.81,125.33Z"/><path class="cls-4" d="M453.17,126.7V115.55h1v3l-.11-.34a4,4,0,0,1,1.58-2.07,5,5,0,0,1,2.78-.73v1.05h-.26a3.72,3.72,0,0,0-2.9,1.16,4.68,4.68,0,0,0-1.05,3.24v5.81Z"/><path class="cls-4" d="M463.79,126.79a5.26,5.26,0,0,1-2.15-.4,3.09,3.09,0,0,1-1.38-1.12,2.88,2.88,0,0,1-.49-1.67,3.14,3.14,0,0,1,.4-1.55,2.9,2.9,0,0,1,1.31-1.13,5.86,5.86,0,0,1,2.46-.44H468v.84H464a3.55,3.55,0,0,0-2.42.64,2.19,2.19,0,0,0,.11,3.31,3.63,3.63,0,0,0,2.29.64,4.21,4.21,0,0,0,2.38-.64,3.77,3.77,0,0,0,1.44-1.86l.3.73a3.87,3.87,0,0,1-1.52,1.93A4.87,4.87,0,0,1,463.79,126.79Zm4-.09v-2.54l-.05-.39v-4.18a3.14,3.14,0,0,0-.84-2.37,3.42,3.42,0,0,0-2.47-.82,5.78,5.78,0,0,0-2.14.4,5.68,5.68,0,0,0-1.7,1l-.54-.76a6,6,0,0,1,2-1.17,7.23,7.23,0,0,1,2.46-.42,4.45,4.45,0,0,1,3.18,1.05,4.1,4.1,0,0,1,1.11,3.12v7.07Z"/><path class="cls-4" d="M477.74,126.79a5.52,5.52,0,0,1-2.81-.72,5.19,5.19,0,0,1-2-2,6.33,6.33,0,0,1,0-5.9,5.23,5.23,0,0,1,2-2,5.52,5.52,0,0,1,2.81-.72,5.2,5.2,0,0,1,2.66.69,4.88,4.88,0,0,1,1.88,1.94,6.93,6.93,0,0,1,0,6,4.78,4.78,0,0,1-1.87,2A5.22,5.22,0,0,1,477.74,126.79Zm.07-1a4.49,4.49,0,0,0,2.29-.59,4.19,4.19,0,0,0,1.6-1.66,5.42,5.42,0,0,0,0-4.92,4.17,4.17,0,0,0-1.6-1.65,4.83,4.83,0,0,0-4.59,0,4.17,4.17,0,0,0-1.6,1.65,5.42,5.42,0,0,0,0,4.92,4.19,4.19,0,0,0,1.6,1.66A4.5,4.5,0,0,0,477.81,125.83Zm4.5.87v-3.65l.2-2-.22-1.94v-8.31h1.07V126.7Z"/><path class="cls-4" d="M491.09,126.79a5.21,5.21,0,0,1-2.14-.4,3.07,3.07,0,0,1-1.39-1.12,3,3,0,0,1-.48-1.67,3.13,3.13,0,0,1,.39-1.55,2.93,2.93,0,0,1,1.32-1.13,5.77,5.77,0,0,1,2.45-.44h4.1v.84h-4.08a3.55,3.55,0,0,0-2.42.64,2.21,2.21,0,0,0,.12,3.31,3.58,3.58,0,0,0,2.28.64,4.24,4.24,0,0,0,2.39-.64,3.88,3.88,0,0,0,1.44-1.86l.3.73a3.89,3.89,0,0,1-1.53,1.93A4.87,4.87,0,0,1,491.09,126.79Zm4-.09v-2.54l0-.39v-4.18a3.11,3.11,0,0,0-.85-2.37,3.41,3.41,0,0,0-2.46-.82,5.94,5.94,0,0,0-3.85,1.41l-.53-.76a5.9,5.9,0,0,1,2-1.17,7.31,7.31,0,0,1,2.46-.42,4.45,4.45,0,0,1,3.18,1.05,4.1,4.1,0,0,1,1.11,3.12v7.07Z"/></g></g></svg>