<svg xmlns="http://www.w3.org/2000/svg" viewBox="0 0 532.09 128.01"><defs><style>.cls-1,.cls-2{fill:#fffbf7;stroke:#fffbf7;}.cls-1,.cls-2,.cls-3{stroke-miterlimit:10;}.cls-1,.cls-3{stroke-width:2px;}.cls-2{stroke-width:3px;}.cls-3,.cls-4{fill:#d1d84c;}.cls-3{stroke:#d1d84c;}</style></defs><g id="Camada_2" data-name="Camada 2"><g id="Camada_1-2" data-name="Camada 1"><path class="cls-1" d="M68.47,122.22c-25.93,0-38.73-14.6-38.73-41V33.6h15.1V81.2c0,17.88,6.89,27.57,23.8,27.57,15.42,0,24.12-8.7,24.12-27.57V33.6h15.1V81.2C107.86,109.42,92.76,122.22,68.47,122.22Z"/><path class="cls-1" d="M236.29,122.22V74.63c0-17.89-6.4-27.57-21.34-27.57-14.11,0-22,8.7-22,27.57v47.59h-15.1V74.63c0-17.89-6.56-27.57-21.5-27.57-14,0-21.82,8.7-21.82,27.57v47.59h-15.1V74.63c0-28.23,12.64-41,36.1-41,17.24,0,27.58,9.36,29.87,19.53,2.46-10.34,13-19.53,30.37-19.53,24.61,0,35.61,14.61,35.61,41v47.59Z"/><path class="cls-1" d="M265.83,122.22V33.6h9a6.48,6.48,0,0,1,6.48,6.49v82.13Z"/><path class="cls-2" d="M1.5,1.5h9.76a4,4,0,0,1,4,4V122.22a0,0,0,0,1,0,0H1.5a0,0,0,0,1,0,0V1.5A0,0,0,0,1,1.5,1.5Z"/><path class="cls-3" d="M332.88,33.6A41.06,41.06,0,0,0,307,42.38c-9.65,7.78-14.45,19-14.19,34,.89,40.47,21.7,45.19,43,45.83s28.6-11.62,28.6-11.62l-.11,11.65h14.36l.11-88.63ZM306.12,75.69C308,41.61,333.05,46.3,363.67,45.62c-29.68,14.83-47,42.94-53.11,54.43C305.81,92.86,305.72,82.69,306.12,75.69Zm47.54,30c-6.18,4.52-15.22,4.45-18.76,4.37-4.73-.11-10.47-.18-16.27-3.12,11.14-24.49,31.84-41.13,45.06-49.82V79.39C363.21,87.4,365.79,96.85,353.66,105.73Z"/><path class="cls-4" d="M402.2,72.6a5.74,5.74,0,0,1-2.89-.73,5.25,5.25,0,0,1-2-2,6.19,6.19,0,0,1,0-5.87,5.22,5.22,0,0,1,2-2,5.74,5.74,0,0,1,2.89-.72,5.63,5.63,0,0,1,2.45.52,4.31,4.31,0,0,1,1.78,1.53l-.79.58a3.64,3.64,0,0,0-1.5-1.26,4.62,4.62,0,0,0-1.94-.41,4.67,4.67,0,0,0-2.34.59,4.15,4.15,0,0,0-1.62,1.65,5.44,5.44,0,0,0,0,4.93,4.15,4.15,0,0,0,1.62,1.65,4.67,4.67,0,0,0,2.34.58,4.61,4.61,0,0,0,1.94-.4,3.64,3.64,0,0,0,1.5-1.26l.79.57a4.27,4.27,0,0,1-1.78,1.54A5.78,5.78,0,0,1,402.2,72.6Z"/><path class="cls-4" d="M414,72.6a5.62,5.62,0,0,1-2.85-.73,5.31,5.31,0,0,1-2-2,6.17,6.17,0,0,1,0-5.86,5.35,5.35,0,0,1,2-2,5.62,5.62,0,0,1,2.85-.73,5.7,5.7,0,0,1,2.87.73,5.21,5.21,0,0,1,2,2,6.25,6.25,0,0,1,0,5.86,5.17,5.17,0,0,1-2,2A5.7,5.7,0,0,1,414,72.6Zm0-1a4.56,4.56,0,0,0,2.31-.58,4.13,4.13,0,0,0,1.6-1.66,5,5,0,0,0,.58-2.46,5,5,0,0,0-.58-2.46,4.1,4.1,0,0,0-1.6-1.65,4.56,4.56,0,0,0-2.31-.59,4.49,4.49,0,0,0-2.29.59,4.26,4.26,0,0,0-1.61,1.65,5,5,0,0,0-.58,2.46,5,5,0,0,0,.58,2.46,4.29,4.29,0,0,0,1.61,1.66A4.48,4.48,0,0,0,414,71.63Z"/><path class="cls-4" d="M428.56,61.27a5.09,5.09,0,0,1,2.38.53,3.67,3.67,0,0,1,1.59,1.58,5.54,5.54,0,0,1,.56,2.61v6.52H432V66.08a3.92,3.92,0,0,0-.95-2.86,3.51,3.51,0,0,0-2.66-1,4.53,4.53,0,0,0-2.26.54,3.5,3.5,0,0,0-1.46,1.49,4.86,4.86,0,0,0-.51,2.31v5.94h-1.07V61.36h1v3.1l-.15-.35A4.27,4.27,0,0,1,425.68,62,5.23,5.23,0,0,1,428.56,61.27Z"/><path class="cls-4" d="M440.53,72.6a8.14,8.14,0,0,1-2.6-.41,5,5,0,0,1-1.87-1l.49-.85a5.51,5.51,0,0,0,1.71,1,6.67,6.67,0,0,0,2.31.4,4.29,4.29,0,0,0,2.52-.58,1.82,1.82,0,0,0,.77-1.52,1.46,1.46,0,0,0-.4-1.08,2.67,2.67,0,0,0-1-.61,11.17,11.17,0,0,0-1.46-.35c-.52-.09-1.05-.19-1.58-.31a6.51,6.51,0,0,1-1.45-.49,2.71,2.71,0,0,1-1.06-.89,2.59,2.59,0,0,1-.39-1.5,2.62,2.62,0,0,1,.47-1.54,3.2,3.2,0,0,1,1.41-1.1,5.75,5.75,0,0,1,2.35-.42,7.61,7.61,0,0,1,2.1.3,5.19,5.19,0,0,1,1.72.79l-.49.86a4.39,4.39,0,0,0-1.58-.77,6.74,6.74,0,0,0-1.77-.24,3.85,3.85,0,0,0-2.39.6,1.85,1.85,0,0,0-.75,1.5,1.57,1.57,0,0,0,.39,1.12,2.53,2.53,0,0,0,1.06.64,9.31,9.31,0,0,0,1.45.36c.53.09,1.05.2,1.58.31a7.81,7.81,0,0,1,1.46.48,2.63,2.63,0,0,1,1,.86,2.39,2.39,0,0,1,.4,1.46,2.65,2.65,0,0,1-.5,1.6,3.27,3.27,0,0,1-1.49,1.07A6.54,6.54,0,0,1,440.53,72.6Z"/><path class="cls-4" d="M452.66,72.6a5.49,5.49,0,0,1-2.48-.53,3.62,3.62,0,0,1-1.61-1.58,5.46,5.46,0,0,1-.57-2.62V61.36h1.07v6.43a3.92,3.92,0,0,0,1,2.86,3.61,3.61,0,0,0,2.72,1,4.24,4.24,0,0,0,2.18-.53,3.53,3.53,0,0,0,1.4-1.51,5,5,0,0,0,.5-2.29V61.36h1.06V72.51h-1v-3.1l.15.37a4.22,4.22,0,0,1-1.64,2.06A4.85,4.85,0,0,1,452.66,72.6Z"/><path class="cls-4" d="M462.64,72.51V56.66h1.07V72.51Z"/><path class="cls-4" d="M466.44,62.28v-.92h6.67v.92Zm5.08,10.32a3,3,0,0,1-2.25-.82,3.07,3.07,0,0,1-.78-2.22V58.92h1.07V69.46a2.34,2.34,0,0,0,.53,1.64,2,2,0,0,0,1.54.58,2.48,2.48,0,0,0,1.73-.62l.45.75a2.6,2.6,0,0,1-1,.59A4,4,0,0,1,471.52,72.6Z"/><path class="cls-4" d="M481,72.6a5.66,5.66,0,0,1-2.86-.73,5.31,5.31,0,0,1-2-2,6.17,6.17,0,0,1,0-5.86,5.35,5.35,0,0,1,2-2,6,6,0,0,1,5.72,0,5.31,5.31,0,0,1,2,2,6.32,6.32,0,0,1,0,5.86,5.26,5.26,0,0,1-2,2A5.68,5.68,0,0,1,481,72.6Zm0-1a4.54,4.54,0,0,0,2.3-.58,4.15,4.15,0,0,0,1.61-1.66,5.13,5.13,0,0,0,.57-2.46,5.08,5.08,0,0,0-.57-2.46,4.12,4.12,0,0,0-1.61-1.65,4.55,4.55,0,0,0-2.3-.59,4.5,4.5,0,0,0-2.3.59,4.17,4.17,0,0,0-1.6,1.65,4.87,4.87,0,0,0-.59,2.46,4.92,4.92,0,0,0,.59,2.46,4.19,4.19,0,0,0,1.6,1.66A4.49,4.49,0,0,0,481,71.63Z"/><path class="cls-4" d="M490.05,72.51V61.36h1v3l-.1-.34A3.9,3.9,0,0,1,492.55,62a5,5,0,0,1,2.77-.73v1h-.25a3.74,3.74,0,0,0-2.91,1.16,4.68,4.68,0,0,0-1.05,3.24v5.81Z"/><path class="cls-4" d="M499,58.64a.84.84,0,0,1-.62-.25.83.83,0,0,1-.26-.6.89.89,0,0,1,1.51-.63.85.85,0,0,1,.25.61.89.89,0,0,1-.25.62A.82.82,0,0,1,499,58.64Zm-.53,13.87V61.36h1.06V72.51Z"/><path class="cls-4" d="M507.29,72.6a5.43,5.43,0,0,1-2.15-.4,3.07,3.07,0,0,1-1.39-1.12,3,3,0,0,1-.48-1.67,3,3,0,0,1,.4-1.55A2.85,2.85,0,0,1,505,66.73a5.79,5.79,0,0,1,2.46-.44h4.1v.84h-4.08a3.58,3.58,0,0,0-2.43.64,2.21,2.21,0,0,0,.12,3.31,3.59,3.59,0,0,0,2.29.64,4.21,4.21,0,0,0,2.38-.64,3.77,3.77,0,0,0,1.44-1.86l.3.73A3.89,3.89,0,0,1,510,71.88,4.83,4.83,0,0,1,507.29,72.6Zm4-.09V70l0-.39V65.4a3.18,3.18,0,0,0-.84-2.38,3.45,3.45,0,0,0-2.47-.81,5.94,5.94,0,0,0-3.85,1.41l-.53-.77a6.1,6.1,0,0,1,2-1.16,7.21,7.21,0,0,1,2.45-.42,4.46,4.46,0,0,1,3.19,1,4.1,4.1,0,0,1,1.11,3.12v7.07Z"/><path class="cls-4" d="M527.18,72.6a6,6,0,0,1-3-.73,5.16,5.16,0,0,1-2-2,5.77,5.77,0,0,1-.74-2.93,6,6,0,0,1,.69-2.93A5.13,5.13,0,0,1,524,62a5.52,5.52,0,0,1,5.45,0,5.1,5.1,0,0,1,1.91,2,6.08,6.08,0,0,1,.69,2.94.71.71,0,0,1,0,.14.81.81,0,0,0,0,.16h-9.85v-.83h9.27l-.43.4a4.55,4.55,0,0,0-.54-2.34A4.26,4.26,0,0,0,529,62.8a4.45,4.45,0,0,0-4.43,0A4.12,4.12,0,0,0,523,64.42a4.92,4.92,0,0,0-.55,2.36V67a4.8,4.8,0,0,0,.6,2.42,4.3,4.3,0,0,0,1.68,1.65,5.41,5.41,0,0,0,4.43.2,4,4,0,0,0,1.58-1.18l.61.71a4.58,4.58,0,0,1-1.82,1.36A6.27,6.27,0,0,1,527.18,72.6Z"/><path class="cls-4" d="M402.31,98.23a6,6,0,0,1-3-.72,5.3,5.3,0,0,1-2-2,5.8,5.8,0,0,1-.74-2.93,6.08,6.08,0,0,1,.69-2.94,5.25,5.25,0,0,1,1.92-2,5.17,5.17,0,0,1,2.73-.73,5.27,5.27,0,0,1,2.72.7,5.06,5.06,0,0,1,1.91,2,6.08,6.08,0,0,1,.69,2.94.71.71,0,0,1,0,.14.81.81,0,0,0,0,.16h-9.85V92h9.27l-.43.41a4.55,4.55,0,0,0-.54-2.34,4.26,4.26,0,0,0-1.53-1.62,4.45,4.45,0,0,0-4.43,0,4.12,4.12,0,0,0-1.53,1.62,4.92,4.92,0,0,0-.55,2.36v.19a4.74,4.74,0,0,0,.61,2.43,4.25,4.25,0,0,0,1.67,1.64,4.92,4.92,0,0,0,2.44.59,5.31,5.31,0,0,0,2-.38,4,4,0,0,0,1.57-1.18l.62.71a4.56,4.56,0,0,1-1.83,1.35A6,6,0,0,1,402.31,98.23Z"/><path class="cls-4" d="M416.19,86.91a5.14,5.14,0,0,1,2.39.52A3.76,3.76,0,0,1,420.16,89a5.61,5.61,0,0,1,.56,2.62v6.52h-1.07V91.72a4,4,0,0,0-.95-2.87,3.54,3.54,0,0,0-2.66-1,4.63,4.63,0,0,0-2.26.53,3.58,3.58,0,0,0-1.46,1.5,4.86,4.86,0,0,0-.51,2.31v5.94h-1.06V87h1v3.09l-.15-.34a4.23,4.23,0,0,1,1.69-2.08A5.15,5.15,0,0,1,416.19,86.91Z"/><path class="cls-4" d="M429.67,97.74a5.78,5.78,0,0,1-2.83-.69,5.31,5.31,0,0,1-2-1.93,5.24,5.24,0,0,1-.74-2.81,5.3,5.3,0,0,1,.74-2.82,5.24,5.24,0,0,1,2-1.9,5.89,5.89,0,0,1,2.83-.68,5.73,5.73,0,0,1,2.73.65,5,5,0,0,1,1.91,1.86,6.32,6.32,0,0,1,0,5.78,4.93,4.93,0,0,1-1.91,1.88A5.63,5.63,0,0,1,429.67,97.74Zm.3,4.64a8.87,8.87,0,0,1-2.88-.47,5.89,5.89,0,0,1-2.22-1.31l.57-.81a5.9,5.9,0,0,0,2,1.2,7.35,7.35,0,0,0,2.51.43,4.51,4.51,0,0,0,3.3-1,4.46,4.46,0,0,0,1.06-3.29V94l.21-1.67-.17-1.66V87h1V97a5.46,5.46,0,0,1-1.36,4.11A5.58,5.58,0,0,1,430,102.38Zm-.21-5.6a4.78,4.78,0,0,0,2.37-.57,4.08,4.08,0,0,0,1.61-1.58,4.86,4.86,0,0,0,0-4.64,4.09,4.09,0,0,0-1.61-1.56,5.23,5.23,0,0,0-4.71,0A4.05,4.05,0,0,0,425.8,90a4.86,4.86,0,0,0,0,4.64,4,4,0,0,0,1.62,1.58A4.77,4.77,0,0,0,429.76,96.78Z"/><path class="cls-4" d="M444.65,98.23a6,6,0,0,1-3-.72,5.37,5.37,0,0,1-2-2,5.8,5.8,0,0,1-.74-2.93,6,6,0,0,1,.7-2.94,5.19,5.19,0,0,1,4.64-2.72,5.34,5.34,0,0,1,2.73.7,5.1,5.1,0,0,1,1.9,2,6.08,6.08,0,0,1,.69,2.94.71.71,0,0,1,0,.14.81.81,0,0,0,0,.16h-9.85V92H449l-.42.41a4.65,4.65,0,0,0-.55-2.34,4.33,4.33,0,0,0-6-1.62,4.12,4.12,0,0,0-1.53,1.62,4.92,4.92,0,0,0-.55,2.36v.19a4.74,4.74,0,0,0,.61,2.43,4.21,4.21,0,0,0,1.68,1.64,4.86,4.86,0,0,0,2.43.59,5.31,5.31,0,0,0,2-.38,4,4,0,0,0,1.57-1.18l.62.71A4.56,4.56,0,0,1,447,97.77,6,6,0,0,1,444.65,98.23Z"/><path class="cls-4" d="M458.53,86.91a5.14,5.14,0,0,1,2.39.52A3.76,3.76,0,0,1,462.5,89a5.49,5.49,0,0,1,.56,2.62v6.52H462V91.72a4,4,0,0,0-.95-2.87,3.56,3.56,0,0,0-2.66-1,4.67,4.67,0,0,0-2.27.53,3.58,3.58,0,0,0-1.46,1.5,4.86,4.86,0,0,0-.5,2.31v5.94h-1.07V87h1v3.09l-.15-.34a4.28,4.28,0,0,1,1.69-2.08A5.17,5.17,0,0,1,458.53,86.91Z"/><path class="cls-4" d="M473.13,86.91a5.12,5.12,0,0,1,2.38.52A3.76,3.76,0,0,1,477.09,89a5.49,5.49,0,0,1,.56,2.62v6.52h-1.06V91.72a4,4,0,0,0-.95-2.87,3.56,3.56,0,0,0-2.66-1,4.67,4.67,0,0,0-2.27.53,3.58,3.58,0,0,0-1.46,1.5,4.86,4.86,0,0,0-.5,2.31v5.94h-1.07V82.3h1.07v7.79l-.2-.34a4.28,4.28,0,0,1,1.69-2.08A5.21,5.21,0,0,1,473.13,86.91Z"/><path class="cls-4" d="M485.28,98.23a5.43,5.43,0,0,1-2.15-.39,3.16,3.16,0,0,1-1.38-1.12,3,3,0,0,1-.48-1.67,3.1,3.1,0,0,1,.39-1.55A2.85,2.85,0,0,1,483,92.37a5.86,5.86,0,0,1,2.46-.44h4.1v.83h-4.08a3.6,3.6,0,0,0-2.42.64,2.09,2.09,0,0,0-.7,1.61,2.06,2.06,0,0,0,.82,1.71,3.64,3.64,0,0,0,2.28.64,4.29,4.29,0,0,0,2.38-.64,3.77,3.77,0,0,0,1.44-1.86l.3.72A3.89,3.89,0,0,1,488,97.52,5,5,0,0,1,485.28,98.23Zm4-.08V95.6l-.05-.38V91a3.14,3.14,0,0,0-.84-2.37,3.42,3.42,0,0,0-2.47-.81,5.77,5.77,0,0,0-2.14.39,5.91,5.91,0,0,0-1.7,1l-.54-.77a5.86,5.86,0,0,1,2-1.16,7.27,7.27,0,0,1,2.46-.42,4.45,4.45,0,0,1,3.18,1,4.07,4.07,0,0,1,1.11,3.12v7.07Z"/><path class="cls-4" d="M494.94,98.15V87h1v3l-.1-.34a3.9,3.9,0,0,1,1.58-2.07,4.9,4.9,0,0,1,2.77-.73v1h-.12l-.13,0a3.71,3.71,0,0,0-2.91,1.17,4.71,4.71,0,0,0-1,3.24v5.81Z"/><path class="cls-4" d="M503.91,84.28a.86.86,0,0,1-.62-1.47.85.85,0,0,1,.62-.26.85.85,0,0,1,.88.86.9.9,0,0,1-.25.62A.82.82,0,0,1,503.91,84.28Zm-.53,13.87V87h1.06V98.15Z"/><path class="cls-4" d="M512.18,98.23a5.43,5.43,0,0,1-2.15-.39,3.19,3.19,0,0,1-1.39-1.12,3,3,0,0,1-.48-1.67,3,3,0,0,1,.4-1.55,2.85,2.85,0,0,1,1.31-1.13,5.79,5.79,0,0,1,2.46-.44h4.1v.83h-4.08a3.6,3.6,0,0,0-2.42.64,2.21,2.21,0,0,0,.11,3.32,3.67,3.67,0,0,0,2.29.64,4.29,4.29,0,0,0,2.38-.64,3.77,3.77,0,0,0,1.44-1.86l.3.72a3.91,3.91,0,0,1-1.53,1.94A4.91,4.91,0,0,1,512.18,98.23Zm4-.08V95.6l0-.38V91a3.14,3.14,0,0,0-.84-2.37,3.44,3.44,0,0,0-2.47-.81,5.86,5.86,0,0,0-2.15.39,6,6,0,0,0-1.69,1l-.54-.77a5.86,5.86,0,0,1,2-1.16,7.23,7.23,0,0,1,2.46-.42,4.45,4.45,0,0,1,3.18,1,4.07,4.07,0,0,1,1.11,3.12v7.07Z"/><path class="cls-4" d="M398.31,109.92a.85.85,0,0,1-.62-.26.82.82,0,0,1-.25-.6.89.89,0,0,1,1.5-.63.82.82,0,0,1,.25.61.84.84,0,0,1-.25.62A.83.83,0,0,1,398.31,109.92Zm-.53,13.86V112.63h1.07v11.15Z"/><path class="cls-4" d="M409,112.55a5.14,5.14,0,0,1,2.39.52,3.71,3.71,0,0,1,1.58,1.58,5.46,5.46,0,0,1,.56,2.62v6.51h-1.06v-6.43a4,4,0,0,0-1-2.86,3.54,3.54,0,0,0-2.67-1,4.55,4.55,0,0,0-2.26.53,3.52,3.52,0,0,0-1.46,1.5,4.85,4.85,0,0,0-.5,2.3v5.94h-1.07V112.63h1v3.1l-.15-.34a4.25,4.25,0,0,1,1.69-2.09A5.23,5.23,0,0,1,409,112.55Z"/><path class="cls-4" d="M416.32,113.55v-.92H423v.92Zm5.08,10.32a3,3,0,0,1-2.25-.81,3.09,3.09,0,0,1-.78-2.23V110.2h1.07v10.53a2.34,2.34,0,0,0,.53,1.64,2,2,0,0,0,1.54.58,2.48,2.48,0,0,0,1.73-.62l.45.75a2.61,2.61,0,0,1-1,.6A4.35,4.35,0,0,1,421.4,123.87Z"/><path class="cls-4" d="M431,123.87a5.9,5.9,0,0,1-3-.73,5.16,5.16,0,0,1-2-2,5.76,5.76,0,0,1-.74-2.92,6.08,6.08,0,0,1,.69-2.94,5.17,5.17,0,0,1,4.65-2.72,5.34,5.34,0,0,1,2.73.7,5.1,5.1,0,0,1,1.9,2,6,6,0,0,1,.69,2.93.66.66,0,0,1,0,.14.86.86,0,0,0,0,.16H426v-.83h9.27l-.42.41a4.65,4.65,0,0,0-.55-2.34,4.29,4.29,0,0,0-1.53-1.63,4.24,4.24,0,0,0-6,1.63,4.89,4.89,0,0,0-.55,2.36v.19a4.7,4.7,0,0,0,.61,2.42,4.21,4.21,0,0,0,1.67,1.65,5,5,0,0,0,2.44.59,5.13,5.13,0,0,0,2-.39,3.93,3.93,0,0,0,1.57-1.17l.62.7a4.68,4.68,0,0,1-1.83,1.36A6,6,0,0,1,431,123.87Z"/><path class="cls-4" d="M443.77,123.38a5.79,5.79,0,0,1-2.83-.7,5.21,5.21,0,0,1-2-1.92,5.72,5.72,0,0,1,0-5.63,5.16,5.16,0,0,1,2-1.9,5.78,5.78,0,0,1,2.83-.68,5.62,5.62,0,0,1,2.73.65,4.81,4.81,0,0,1,1.91,1.86,6.3,6.3,0,0,1,0,5.77,4.86,4.86,0,0,1-1.91,1.88A5.52,5.52,0,0,1,443.77,123.38Zm.3,4.63a8.61,8.61,0,0,1-2.88-.47,5.75,5.75,0,0,1-2.22-1.3l.57-.81a5.88,5.88,0,0,0,2,1.19,7.12,7.12,0,0,0,2.51.43,4.51,4.51,0,0,0,3.3-1,4.43,4.43,0,0,0,1.06-3.29v-3.09l.21-1.67-.17-1.67v-3.65h1v10a5.49,5.49,0,0,1-1.36,4.11A5.62,5.62,0,0,1,444.07,128Zm-.21-5.59a4.78,4.78,0,0,0,2.37-.57,4.21,4.21,0,0,0,1.61-1.58,4.88,4.88,0,0,0,0-4.65,4.09,4.09,0,0,0-1.61-1.56,5.32,5.32,0,0,0-4.71,0,4.05,4.05,0,0,0-1.62,1.56,4.88,4.88,0,0,0,0,4.65,4.17,4.17,0,0,0,1.62,1.58A4.77,4.77,0,0,0,443.86,122.42Z"/><path class="cls-4" d="M454.22,123.78V112.63h1v3.06l-.1-.35a4,4,0,0,1,1.58-2.07,5,5,0,0,1,2.78-.72v1h-.26a3.74,3.74,0,0,0-2.91,1.16,4.72,4.72,0,0,0-1,3.24v5.81Z"/><path class="cls-4" d="M464.84,123.87a5.26,5.26,0,0,1-2.15-.4,3,3,0,0,1-1.39-1.12,3,3,0,0,1-.48-1.67,3,3,0,0,1,.4-1.54,2.86,2.86,0,0,1,1.31-1.14,5.81,5.81,0,0,1,2.46-.43h4.1v.83H465a3.58,3.58,0,0,0-2.43.64,2.21,2.21,0,0,0,.12,3.31A3.59,3.59,0,0,0,465,123a4.21,4.21,0,0,0,2.38-.64,3.77,3.77,0,0,0,1.44-1.86l.3.73a3.84,3.84,0,0,1-1.53,1.93A4.83,4.83,0,0,1,464.84,123.87Zm4-.09v-2.54l0-.38v-4.19a3.14,3.14,0,0,0-.84-2.37,3.45,3.45,0,0,0-2.47-.81,5.87,5.87,0,0,0-3.85,1.4l-.53-.76a6,6,0,0,1,2-1.17,7.2,7.2,0,0,1,2.45-.41,4.46,4.46,0,0,1,3.19,1,4.1,4.1,0,0,1,1.11,3.12v7.07Z"/><path class="cls-4" d="M478.79,123.87a5.52,5.52,0,0,1-2.81-.72,5.21,5.21,0,0,1-2-2,6.4,6.4,0,0,1,0-5.9,5.33,5.33,0,0,1,2-2,5.51,5.51,0,0,1,2.81-.71,5.19,5.19,0,0,1,2.66.68,5,5,0,0,1,1.88,1.94,6.24,6.24,0,0,1,.69,3,6.39,6.39,0,0,1-.68,3,4.85,4.85,0,0,1-1.87,2A5.24,5.24,0,0,1,478.79,123.87Zm.06-1a4.52,4.52,0,0,0,2.3-.59,4.19,4.19,0,0,0,1.6-1.66,5.42,5.42,0,0,0,0-4.92,4.3,4.3,0,0,0-1.6-1.65,4.83,4.83,0,0,0-4.59,0,4.26,4.26,0,0,0-1.61,1.65,5.51,5.51,0,0,0,0,4.92,4.15,4.15,0,0,0,1.61,1.66A4.49,4.49,0,0,0,478.85,122.91Zm4.51.87v-3.65l.19-1.95-.21-1.94v-8.31h1.07v15.85Z"/><path class="cls-4" d="M492.14,123.87a5.26,5.26,0,0,1-2.15-.4,3.06,3.06,0,0,1-1.39-1.12,3,3,0,0,1-.48-1.67,3,3,0,0,1,.4-1.54,2.86,2.86,0,0,1,1.31-1.14,5.81,5.81,0,0,1,2.46-.43h4.1v.83h-4.08a3.55,3.55,0,0,0-2.42.64,2.19,2.19,0,0,0,.11,3.31,3.61,3.61,0,0,0,2.29.64,4.21,4.21,0,0,0,2.38-.64,3.77,3.77,0,0,0,1.44-1.86l.3.73a3.88,3.88,0,0,1-1.52,1.93A4.87,4.87,0,0,1,492.14,123.87Zm4-.09v-2.54l-.05-.38v-4.19a3.14,3.14,0,0,0-.84-2.37,3.44,3.44,0,0,0-2.47-.81,5.86,5.86,0,0,0-2.15.39,5.75,5.75,0,0,0-1.69,1l-.54-.76a6,6,0,0,1,2-1.17,7.22,7.22,0,0,1,2.46-.41,4.45,4.45,0,0,1,3.18,1,4.1,4.1,0,0,1,1.11,3.12v7.07Z"/></g></g></svg>