<svg xmlns="http://www.w3.org/2000/svg" viewBox="0 0 379.93 156.79"><defs><style>.cls-1,.cls-2{fill:#003a33;stroke:#003a33;}.cls-1,.cls-2,.cls-3{stroke-miterlimit:10;}.cls-1,.cls-3{stroke-width:2px;}.cls-2{stroke-width:3px;}.cls-3,.cls-4{fill:#007737;}.cls-3{stroke:#007737;}</style></defs><g id="Camada_2" data-name="Camada 2"><g id="Camada_1-2" data-name="Camada 1"><path class="cls-1" d="M69.64,122.22c-25.93,0-38.73-14.6-38.73-41V33.6H46V81.2c0,17.88,6.89,27.57,23.8,27.57,15.43,0,24.12-8.7,24.12-27.57V33.6H109V81.2C109,109.42,93.93,122.22,69.64,122.22Z" transform="translate(-1.06)"/><path class="cls-1" d="M237.46,122.22V74.63c0-17.89-6.4-27.57-21.33-27.57-14.12,0-22,8.7-22,27.57v47.59H179V74.63c0-17.89-6.57-27.57-21.5-27.57-13.95,0-21.83,8.7-21.83,27.57v47.59h-15.1V74.63c0-28.23,12.64-41,36.11-41,17.23,0,27.57,9.36,29.87,19.53,2.46-10.34,13-19.53,30.36-19.53,24.62,0,35.61,14.61,35.61,41v47.59Z" transform="translate(-1.06)"/><path class="cls-1" d="M267,122.22V33.6h9a6.49,6.49,0,0,1,6.49,6.49v82.13Z" transform="translate(-1.06)"/><path class="cls-2" d="M1.61,1.5h9.76a4,4,0,0,1,4,4V122.22a0,0,0,0,1,0,0H1.61a0,0,0,0,1,0,0V1.5A0,0,0,0,1,1.61,1.5Z"/><path class="cls-3" d="M334.05,33.6a41.08,41.08,0,0,0-25.85,8.78c-9.65,7.78-14.45,19-14.19,34,.9,40.47,21.71,45.19,43,45.83s28.59-11.62,28.59-11.62l-.1,11.65h14.36l.1-88.63ZM307.29,75.69c1.91-34.08,26.93-29.39,57.56-30.07-29.68,14.83-47,42.94-53.11,54.43C307,92.86,306.9,82.69,307.29,75.69Zm47.54,30c-6.17,4.52-15.21,4.45-18.75,4.37-4.74-.11-10.48-.18-16.27-3.12C331,82.49,351.64,65.85,364.87,57.16c0,7.47,0,15.1,0,22.23C364.38,87.4,367,96.85,354.83,105.73Z" transform="translate(-1.06)"/><path class="cls-4" d="M6.79,152.59a5.84,5.84,0,0,1-2.94-.74,5.4,5.4,0,0,1-2-2,6.3,6.3,0,0,1,0-6,5.37,5.37,0,0,1,2-2,5.93,5.93,0,0,1,2.94-.72,5.77,5.77,0,0,1,2.48.52,4.26,4.26,0,0,1,1.81,1.56l-.8.58a3.82,3.82,0,0,0-1.52-1.28,4.83,4.83,0,0,0-2-.41,4.7,4.7,0,0,0-2.38.6,4.27,4.27,0,0,0-1.65,1.67,5.61,5.61,0,0,0,0,5A4.34,4.34,0,0,0,4.41,151a4.8,4.8,0,0,0,2.38.59,4.83,4.83,0,0,0,2-.41,3.66,3.66,0,0,0,1.52-1.28l.8.59a4.4,4.4,0,0,1-1.81,1.56A5.92,5.92,0,0,1,6.79,152.59Z" transform="translate(-1.06)"/><path class="cls-4" d="M18.77,152.59a5.68,5.68,0,0,1-2.89-.74,5.49,5.49,0,0,1-2-2,6.35,6.35,0,0,1,0-5.95,5.47,5.47,0,0,1,4.91-2.76,5.72,5.72,0,0,1,2.91.73,5.54,5.54,0,0,1,2,2,6.43,6.43,0,0,1,0,5.95,5.42,5.42,0,0,1-2,2A5.72,5.72,0,0,1,18.77,152.59Zm0-1a4.74,4.74,0,0,0,2.35-.59,4.23,4.23,0,0,0,1.62-1.68,5.22,5.22,0,0,0,.59-2.5,5.13,5.13,0,0,0-.59-2.5,4.2,4.2,0,0,0-1.62-1.67,4.64,4.64,0,0,0-2.35-.6,4.57,4.57,0,0,0-2.33.6,4.27,4.27,0,0,0-1.62,1.67,5,5,0,0,0-.6,2.5,5.11,5.11,0,0,0,.6,2.5A4.29,4.29,0,0,0,16.44,151,4.66,4.66,0,0,0,18.77,151.61Z" transform="translate(-1.06)"/><path class="cls-4" d="M33.54,141.1a5.17,5.17,0,0,1,2.42.53,3.74,3.74,0,0,1,1.6,1.6,5.63,5.63,0,0,1,.58,2.66v6.61H37.05V146a4,4,0,0,0-1-2.91,3.58,3.58,0,0,0-2.7-1,4.68,4.68,0,0,0-2.3.54,3.7,3.7,0,0,0-1.49,1.52,5,5,0,0,0-.51,2.34v6H28V141.18h1v3.15L28.9,144a4.3,4.3,0,0,1,1.71-2.11A5.24,5.24,0,0,1,33.54,141.1Z" transform="translate(-1.06)"/><path class="cls-4" d="M45.68,152.59a8.39,8.39,0,0,1-2.64-.41,5.26,5.26,0,0,1-1.89-1.05l.5-.86a5.52,5.52,0,0,0,1.73,1,6.61,6.61,0,0,0,2.34.4,4.34,4.34,0,0,0,2.56-.58,1.84,1.84,0,0,0,.78-1.54,1.49,1.49,0,0,0-.4-1.1,2.64,2.64,0,0,0-1.07-.61,9.72,9.72,0,0,0-1.48-.36c-.53-.1-1.07-.2-1.6-.32a6.59,6.59,0,0,1-1.48-.49,2.85,2.85,0,0,1-1.07-.9,2.63,2.63,0,0,1-.4-1.53,2.67,2.67,0,0,1,.48-1.56,3.17,3.17,0,0,1,1.43-1.12,5.9,5.9,0,0,1,2.38-.42,8,8,0,0,1,2.14.3,5.31,5.31,0,0,1,1.74.8l-.5.87a4.59,4.59,0,0,0-1.6-.78,6.85,6.85,0,0,0-1.8-.24,3.88,3.88,0,0,0-2.42.61,1.86,1.86,0,0,0-.77,1.52,1.61,1.61,0,0,0,.4,1.13,2.52,2.52,0,0,0,1.08.65,8.77,8.77,0,0,0,1.47.37c.54.1,1.07.2,1.61.32a7.24,7.24,0,0,1,1.47.48,2.64,2.64,0,0,1,1.07.87,2.48,2.48,0,0,1,.41,1.49,2.65,2.65,0,0,1-.51,1.62,3.29,3.29,0,0,1-1.51,1.09A6.77,6.77,0,0,1,45.68,152.59Z" transform="translate(-1.06)"/><path class="cls-4" d="M58,152.59a5.63,5.63,0,0,1-2.51-.53,3.7,3.7,0,0,1-1.64-1.61,5.59,5.59,0,0,1-.57-2.65v-6.62h1.08v6.53a4,4,0,0,0,1,2.9,3.66,3.66,0,0,0,2.75,1,4.33,4.33,0,0,0,2.21-.54,3.59,3.59,0,0,0,1.43-1.53,5.13,5.13,0,0,0,.5-2.33v-6h1.09V152.5H62.26v-3.14l.16.37a4.3,4.3,0,0,1-1.66,2.09A4.94,4.94,0,0,1,58,152.59Z" transform="translate(-1.06)"/><path class="cls-4" d="M68.12,152.5V136.41H69.2V152.5Z" transform="translate(-1.06)"/><path class="cls-4" d="M72,142.12v-.94h6.76v.94Zm5.16,10.47a3,3,0,0,1-2.29-.83,3.1,3.1,0,0,1-.79-2.25v-10.8h1.08V149.4a2.38,2.38,0,0,0,.54,1.67,2,2,0,0,0,1.57.58A2.5,2.5,0,0,0,79,151l.46.75a2.59,2.59,0,0,1-1.06.61A4.15,4.15,0,0,1,77.14,152.59Z" transform="translate(-1.06)"/><path class="cls-4" d="M86.7,152.59a5.69,5.69,0,0,1-2.9-.74,5.47,5.47,0,0,1-2-2,6.28,6.28,0,0,1,0-5.95,5.59,5.59,0,0,1,2-2,6.13,6.13,0,0,1,5.8,0,5.39,5.39,0,0,1,2,2,6.35,6.35,0,0,1,0,5.95,5.28,5.28,0,0,1-2,2A5.71,5.71,0,0,1,86.7,152.59Zm0-1A4.73,4.73,0,0,0,89,151a4.32,4.32,0,0,0,1.63-1.68,5.33,5.33,0,0,0,.58-2.5,5.24,5.24,0,0,0-.58-2.5A4.29,4.29,0,0,0,89,142.67a4.63,4.63,0,0,0-2.34-.6,4.52,4.52,0,0,0-2.33.6,4.29,4.29,0,0,0-1.63,1.67,5,5,0,0,0-.6,2.5,5.11,5.11,0,0,0,.6,2.5A4.32,4.32,0,0,0,84.37,151,4.61,4.61,0,0,0,86.7,151.61Z" transform="translate(-1.06)"/><path class="cls-4" d="M95.93,152.5V141.18h1v3.1l-.1-.34a4,4,0,0,1,1.6-2.11,5.05,5.05,0,0,1,2.82-.73v1.06H101a3.76,3.76,0,0,0-3,1.18A4.72,4.72,0,0,0,97,146.6v5.9Z" transform="translate(-1.06)"/><path class="cls-4" d="M105,138.43a.86.86,0,0,1-.63-.26.85.85,0,0,1-.26-.61.89.89,0,0,1,.26-.63.86.86,0,0,1,.63-.26.9.9,0,0,1,.64.25.91.91,0,0,1,0,1.25A.87.87,0,0,1,105,138.43Zm-.54,14.07V141.18h1.08V152.5Z" transform="translate(-1.06)"/><path class="cls-4" d="M113.43,152.59a5.54,5.54,0,0,1-2.18-.4,3.16,3.16,0,0,1-1.41-1.14,3,3,0,0,1-.49-1.69,3.25,3.25,0,0,1,.4-1.58,2.9,2.9,0,0,1,1.34-1.14,5.77,5.77,0,0,1,2.49-.45h4.16V147H113.6a3.59,3.59,0,0,0-2.46.65,2.24,2.24,0,0,0,.12,3.36,3.68,3.68,0,0,0,2.32.65,4.35,4.35,0,0,0,2.42-.65,3.9,3.9,0,0,0,1.46-1.89l.3.74a3.9,3.9,0,0,1-1.55,2A4.87,4.87,0,0,1,113.43,152.59Zm4.07-.09v-2.58l0-.39v-4.25a3.21,3.21,0,0,0-.86-2.41,3.5,3.5,0,0,0-2.5-.82,5.93,5.93,0,0,0-3.9,1.43l-.54-.78a6.06,6.06,0,0,1,2-1.18,7.5,7.5,0,0,1,2.5-.42,4.52,4.52,0,0,1,3.23,1.06,4.14,4.14,0,0,1,1.12,3.16v7.18Z" transform="translate(-1.06)"/><path class="cls-4" d="M133.61,152.59a6.06,6.06,0,0,1-3-.74,5.31,5.31,0,0,1-2.06-2,5.83,5.83,0,0,1-.75-3,6.1,6.1,0,0,1,.7-3,5.22,5.22,0,0,1,4.72-2.76,5.4,5.4,0,0,1,2.76.71,5.12,5.12,0,0,1,1.93,2,6.11,6.11,0,0,1,.71,3s0,.09,0,.14a.81.81,0,0,0,0,.16h-10v-.84H138l-.43.41a4.73,4.73,0,0,0-.56-2.38,4.2,4.2,0,0,0-1.54-1.64,4.27,4.27,0,0,0-2.26-.6,4.19,4.19,0,0,0-2.24.6,4.09,4.09,0,0,0-1.55,1.64,5,5,0,0,0-.57,2.4v.2a4.89,4.89,0,0,0,.62,2.46,4.4,4.4,0,0,0,1.7,1.67,5.12,5.12,0,0,0,2.47.59,5.24,5.24,0,0,0,2-.39,4,4,0,0,0,1.59-1.19l.63.71a4.63,4.63,0,0,1-1.85,1.38A6.21,6.21,0,0,1,133.61,152.59Z" transform="translate(-1.06)"/><path class="cls-4" d="M152.56,152.59a6.06,6.06,0,0,1-3-.74,5.25,5.25,0,0,1-2.06-2,5.83,5.83,0,0,1-.75-3,6.1,6.1,0,0,1,.7-3,5.22,5.22,0,0,1,4.72-2.76,5.43,5.43,0,0,1,2.76.71,5.12,5.12,0,0,1,1.93,2,6.11,6.11,0,0,1,.71,3s0,.09,0,.14a.81.81,0,0,0,0,.16h-10v-.84h9.41l-.43.41a4.73,4.73,0,0,0-.56-2.38,4.31,4.31,0,0,0-7.6,0,5.09,5.09,0,0,0-.56,2.4v.2a4.89,4.89,0,0,0,.62,2.46,4.4,4.4,0,0,0,1.7,1.67,5.12,5.12,0,0,0,2.47.59,5.28,5.28,0,0,0,2-.39A4,4,0,0,0,156.2,150l.63.71a4.63,4.63,0,0,1-1.85,1.38A6.25,6.25,0,0,1,152.56,152.59Z" transform="translate(-1.06)"/><path class="cls-4" d="M166.65,141.1a5.14,5.14,0,0,1,2.42.53,3.74,3.74,0,0,1,1.6,1.6,5.51,5.51,0,0,1,.58,2.66v6.61h-1.09V146a4,4,0,0,0-1-2.91,3.55,3.55,0,0,0-2.7-1,4.68,4.68,0,0,0-2.3.54,3.67,3.67,0,0,0-1.48,1.52,5,5,0,0,0-.51,2.34v6h-1.09V141.18h1v3.15L162,144a4.3,4.3,0,0,1,1.71-2.11A5.27,5.27,0,0,1,166.65,141.1Z" transform="translate(-1.06)"/><path class="cls-4" d="M180.33,152.09a5.79,5.79,0,0,1-2.87-.71,5.33,5.33,0,0,1-2-1.95,5.81,5.81,0,0,1,0-5.71,5.28,5.28,0,0,1,2-1.93,5.89,5.89,0,0,1,2.87-.69,5.69,5.69,0,0,1,2.76.66,5,5,0,0,1,1.95,1.88,6.42,6.42,0,0,1,0,5.87,5,5,0,0,1-1.95,1.91A5.69,5.69,0,0,1,180.33,152.09Zm.3,4.7a9.12,9.12,0,0,1-2.92-.47,5.89,5.89,0,0,1-2.26-1.33l.59-.82a6,6,0,0,0,2,1.21,7.25,7.25,0,0,0,2.54.44,4.62,4.62,0,0,0,3.35-1.06,4.53,4.53,0,0,0,1.08-3.34v-3.15l.21-1.69-.17-1.69v-3.71h1v10.11a5.57,5.57,0,0,1-1.38,4.17A5.66,5.66,0,0,1,180.63,156.79Zm-.21-5.68a4.89,4.89,0,0,0,2.4-.57,4.16,4.16,0,0,0,1.64-1.61,4.92,4.92,0,0,0,0-4.71,4.09,4.09,0,0,0-1.64-1.58,5.3,5.3,0,0,0-4.78,0,4,4,0,0,0-1.64,1.58,4.92,4.92,0,0,0,0,4.71,4.1,4.1,0,0,0,1.64,1.61A4.93,4.93,0,0,0,180.42,151.11Z" transform="translate(-1.06)"/><path class="cls-4" d="M195.53,152.59a6.13,6.13,0,0,1-3-.74,5.29,5.29,0,0,1-2.05-2,5.83,5.83,0,0,1-.75-3,6.1,6.1,0,0,1,.7-3,5.22,5.22,0,0,1,4.72-2.76,5.45,5.45,0,0,1,2.76.71,5.12,5.12,0,0,1,1.93,2,6.11,6.11,0,0,1,.71,3,.78.78,0,0,1,0,.14c0,.05,0,.1,0,.16h-10v-.84h9.41l-.44.41a4.72,4.72,0,0,0-.55-2.38,4.31,4.31,0,0,0-7.6,0,5.09,5.09,0,0,0-.56,2.4v.2a4.89,4.89,0,0,0,.62,2.46,4.4,4.4,0,0,0,1.7,1.67,5.12,5.12,0,0,0,2.47.59,5.28,5.28,0,0,0,2-.39,4,4,0,0,0,1.59-1.19l.63.71a4.63,4.63,0,0,1-1.85,1.38A6.25,6.25,0,0,1,195.53,152.59Z" transform="translate(-1.06)"/><path class="cls-4" d="M209.62,141.1a5.17,5.17,0,0,1,2.42.53,3.74,3.74,0,0,1,1.6,1.6,5.63,5.63,0,0,1,.58,2.66v6.61h-1.09V146a4,4,0,0,0-1-2.91,3.58,3.58,0,0,0-2.7-1,4.68,4.68,0,0,0-2.3.54,3.67,3.67,0,0,0-1.48,1.52,5,5,0,0,0-.51,2.34v6h-1.09V141.18h1v3.15L205,144a4.3,4.3,0,0,1,1.71-2.11A5.24,5.24,0,0,1,209.62,141.1Z" transform="translate(-1.06)"/><path class="cls-4" d="M224.43,141.1a5.1,5.1,0,0,1,2.41.53,3.71,3.71,0,0,1,1.61,1.6,5.63,5.63,0,0,1,.57,2.66v6.61h-1.08V146a4,4,0,0,0-1-2.91,3.55,3.55,0,0,0-2.69-1,4.66,4.66,0,0,0-2.3.54,3.7,3.7,0,0,0-1.49,1.52,5,5,0,0,0-.51,2.34v6H218.9V136.41H220v7.92l-.19-.35a4.24,4.24,0,0,1,1.71-2.11A5.22,5.22,0,0,1,224.43,141.1Z" transform="translate(-1.06)"/><path class="cls-4" d="M236.76,152.59a5.58,5.58,0,0,1-2.18-.4,3.22,3.22,0,0,1-1.41-1.14,3,3,0,0,1-.48-1.69,3.15,3.15,0,0,1,.4-1.58,2.92,2.92,0,0,1,1.33-1.14,5.79,5.79,0,0,1,2.5-.45h4.16V147h-4.14a3.59,3.59,0,0,0-2.46.65,2.11,2.11,0,0,0-.71,1.62,2.13,2.13,0,0,0,.82,1.74,3.71,3.71,0,0,0,2.33.65,4.31,4.31,0,0,0,2.41-.65,3.85,3.85,0,0,0,1.47-1.89l.3.74a3.9,3.9,0,0,1-1.55,2A4.91,4.91,0,0,1,236.76,152.59Zm4.08-.09v-2.58l0-.39v-4.25a3.21,3.21,0,0,0-.86-2.41,3.52,3.52,0,0,0-2.5-.82,5.75,5.75,0,0,0-2.18.4,5.88,5.88,0,0,0-1.73,1l-.54-.78a6,6,0,0,1,2-1.18,7.4,7.4,0,0,1,2.49-.42,4.52,4.52,0,0,1,3.23,1.06,4.15,4.15,0,0,1,1.13,3.16v7.18Z" transform="translate(-1.06)"/><path class="cls-4" d="M246.56,152.5V141.18h1v3.1l-.1-.34a4,4,0,0,1,1.6-2.11,5.05,5.05,0,0,1,2.82-.73v1.06h-.26a3.76,3.76,0,0,0-2.95,1.18,4.72,4.72,0,0,0-1.06,3.28v5.9Z" transform="translate(-1.06)"/><path class="cls-4" d="M255.67,138.43a.86.86,0,0,1-.63-.26.85.85,0,0,1-.26-.61.89.89,0,0,1,.26-.63.86.86,0,0,1,.63-.26.9.9,0,0,1,.64.25.91.91,0,0,1,0,1.25A.87.87,0,0,1,255.67,138.43Zm-.54,14.07V141.18h1.08V152.5Z" transform="translate(-1.06)"/><path class="cls-4" d="M264.06,152.59a5.54,5.54,0,0,1-2.18-.4,3.11,3.11,0,0,1-1.41-1.14,3,3,0,0,1-.49-1.69,3.25,3.25,0,0,1,.4-1.58,2.9,2.9,0,0,1,1.34-1.14,5.77,5.77,0,0,1,2.49-.45h4.16V147h-4.14a3.59,3.59,0,0,0-2.46.65,2.24,2.24,0,0,0,.12,3.36,3.68,3.68,0,0,0,2.32.65,4.35,4.35,0,0,0,2.42-.65,3.9,3.9,0,0,0,1.46-1.89l.3.74a3.9,3.9,0,0,1-1.55,2A4.87,4.87,0,0,1,264.06,152.59Zm4.07-.09v-2.58l0-.39v-4.25a3.21,3.21,0,0,0-.86-2.41,3.5,3.5,0,0,0-2.5-.82,5.93,5.93,0,0,0-3.9,1.43l-.54-.78a6.06,6.06,0,0,1,2-1.18,7.5,7.5,0,0,1,2.5-.42,4.52,4.52,0,0,1,3.23,1.06,4.14,4.14,0,0,1,1.12,3.16v7.18Z" transform="translate(-1.06)"/><path class="cls-4" d="M280.19,138.43a.86.86,0,0,1-.63-.26.85.85,0,0,1-.26-.61.89.89,0,0,1,.26-.63.86.86,0,0,1,.63-.26.9.9,0,0,1,.64.25.91.91,0,0,1,0,1.25A.87.87,0,0,1,280.19,138.43Zm-.54,14.07V141.18h1.08V152.5Z" transform="translate(-1.06)"/><path class="cls-4" d="M291.05,141.1a5.17,5.17,0,0,1,2.42.53,3.74,3.74,0,0,1,1.6,1.6,5.63,5.63,0,0,1,.57,2.66v6.61h-1.08V146a4,4,0,0,0-1-2.91,3.58,3.58,0,0,0-2.7-1,4.66,4.66,0,0,0-2.3.54,3.7,3.7,0,0,0-1.49,1.52,5,5,0,0,0-.51,2.34v6h-1.08V141.18h1v3.15l-.15-.35a4.3,4.3,0,0,1,1.71-2.11A5.24,5.24,0,0,1,291.05,141.1Z" transform="translate(-1.06)"/><path class="cls-4" d="M298.46,142.12v-.94h6.77v.94Zm5.16,10.47a3,3,0,0,1-2.28-.83,3.11,3.11,0,0,1-.8-2.25v-10.8h1.09V149.4a2.38,2.38,0,0,0,.54,1.67,2,2,0,0,0,1.56.58,2.53,2.53,0,0,0,1.76-.62l.45.75a2.62,2.62,0,0,1-1.05.61A4.16,4.16,0,0,1,303.62,152.59Z" transform="translate(-1.06)"/><path class="cls-4" d="M313.36,152.59a6.1,6.1,0,0,1-3-.74,5.38,5.38,0,0,1-2.06-2,5.82,5.82,0,0,1-.74-3,6.1,6.1,0,0,1,.7-3A5.22,5.22,0,0,1,313,141.1a5.45,5.45,0,0,1,2.76.71,5.12,5.12,0,0,1,1.93,2,6.1,6.1,0,0,1,.7,3,.71.71,0,0,1,0,.14c0,.05,0,.1,0,.16h-10v-.84h9.41l-.44.41a4.72,4.72,0,0,0-.55-2.38,4.4,4.4,0,0,0-6.05-1.64,4.15,4.15,0,0,0-1.55,1.64,5.09,5.09,0,0,0-.56,2.4v.2a4.79,4.79,0,0,0,.62,2.46,4.33,4.33,0,0,0,1.7,1.67,5.1,5.1,0,0,0,2.47.59,5.28,5.28,0,0,0,2-.39A4,4,0,0,0,317,150l.63.71a4.59,4.59,0,0,1-1.86,1.38A6.2,6.2,0,0,1,313.36,152.59Z" transform="translate(-1.06)"/><path class="cls-4" d="M326.32,152.09a5.79,5.79,0,0,1-2.87-.71,5.33,5.33,0,0,1-2-1.95,5.81,5.81,0,0,1,0-5.71,5.28,5.28,0,0,1,2-1.93,5.89,5.89,0,0,1,2.87-.69,5.69,5.69,0,0,1,2.76.66,5,5,0,0,1,1.95,1.88,6.42,6.42,0,0,1,0,5.87,5,5,0,0,1-1.95,1.91A5.69,5.69,0,0,1,326.32,152.09Zm.3,4.7a9.12,9.12,0,0,1-2.92-.47,5.89,5.89,0,0,1-2.26-1.33l.59-.82a6,6,0,0,0,2,1.21,7.25,7.25,0,0,0,2.54.44,4.62,4.62,0,0,0,3.35-1.06,4.53,4.53,0,0,0,1.08-3.34v-3.15l.21-1.69-.17-1.69v-3.71h1v10.11a5.57,5.57,0,0,1-1.38,4.17A5.66,5.66,0,0,1,326.62,156.79Zm-.21-5.68a4.89,4.89,0,0,0,2.4-.57,4.16,4.16,0,0,0,1.64-1.61,4.92,4.92,0,0,0,0-4.71,4.09,4.09,0,0,0-1.64-1.58,5.3,5.3,0,0,0-4.78,0,4,4,0,0,0-1.64,1.58,4.92,4.92,0,0,0,0,4.71,4.1,4.1,0,0,0,1.64,1.61A4.93,4.93,0,0,0,326.41,151.11Z" transform="translate(-1.06)"/><path class="cls-4" d="M336.92,152.5V141.18h1v3.1l-.11-.34a4.09,4.09,0,0,1,1.61-2.11,5.05,5.05,0,0,1,2.82-.73v1.06H342a3.76,3.76,0,0,0-2.95,1.18A4.72,4.72,0,0,0,338,146.6v5.9Z" transform="translate(-1.06)"/><path class="cls-4" d="M347.7,152.59a5.54,5.54,0,0,1-2.18-.4,3.11,3.11,0,0,1-1.41-1.14,3,3,0,0,1-.49-1.69,3.15,3.15,0,0,1,.4-1.58,2.9,2.9,0,0,1,1.34-1.14,5.77,5.77,0,0,1,2.49-.45H352V147h-4.14a3.59,3.59,0,0,0-2.46.65,2.24,2.24,0,0,0,.12,3.36,3.68,3.68,0,0,0,2.32.65,4.35,4.35,0,0,0,2.42-.65,3.9,3.9,0,0,0,1.46-1.89l.3.74a3.9,3.9,0,0,1-1.55,2A4.87,4.87,0,0,1,347.7,152.59Zm4.07-.09v-2.58l0-.39v-4.25a3.21,3.21,0,0,0-.86-2.41,3.5,3.5,0,0,0-2.5-.82,5.93,5.93,0,0,0-3.9,1.43l-.54-.78a6.06,6.06,0,0,1,2-1.18,7.5,7.5,0,0,1,2.5-.42,4.52,4.52,0,0,1,3.23,1.06,4.14,4.14,0,0,1,1.12,3.16v7.18Z" transform="translate(-1.06)"/><path class="cls-4" d="M361.85,152.59a5.6,5.6,0,0,1-2.85-.73,5.27,5.27,0,0,1-2-2,6.43,6.43,0,0,1,0-6,5.39,5.39,0,0,1,2-2,5.69,5.69,0,0,1,2.85-.72,5.32,5.32,0,0,1,2.7.69,5,5,0,0,1,1.91,2,6.31,6.31,0,0,1,.71,3.08,6.46,6.46,0,0,1-.7,3.06,4.85,4.85,0,0,1-1.89,2A5.31,5.31,0,0,1,361.85,152.59Zm.07-1a4.64,4.64,0,0,0,2.33-.59,4.32,4.32,0,0,0,1.63-1.68,5.22,5.22,0,0,0,.59-2.5,5.13,5.13,0,0,0-.59-2.5,4.29,4.29,0,0,0-1.63-1.67,4.82,4.82,0,0,0-4.66,0,4.29,4.29,0,0,0-1.63,1.67,5,5,0,0,0-.59,2.5,5.1,5.1,0,0,0,.59,2.5,4.32,4.32,0,0,0,1.63,1.68A4.61,4.61,0,0,0,361.92,151.61Zm4.57.89v-3.71l.2-2-.22-2v-8.44h1.09V152.5Z" transform="translate(-1.06)"/><path class="cls-4" d="M375.4,152.59a5.62,5.62,0,0,1-2.18-.4,3.13,3.13,0,0,1-1.4-1.14,3,3,0,0,1-.49-1.69,3.15,3.15,0,0,1,.4-1.58,2.92,2.92,0,0,1,1.33-1.14,5.79,5.79,0,0,1,2.5-.45h4.16V147h-4.14a3.59,3.59,0,0,0-2.46.65,2.22,2.22,0,0,0,.12,3.36,3.68,3.68,0,0,0,2.32.65,4.29,4.29,0,0,0,2.41-.65,3.85,3.85,0,0,0,1.47-1.89l.3.74a3.9,3.9,0,0,1-1.55,2A4.91,4.91,0,0,1,375.4,152.59Zm4.08-.09v-2.58l0-.39v-4.25a3.21,3.21,0,0,0-.86-2.41,3.52,3.52,0,0,0-2.5-.82,5.75,5.75,0,0,0-2.18.4,5.88,5.88,0,0,0-1.73,1l-.54-.78a6.11,6.11,0,0,1,2-1.18,7.4,7.4,0,0,1,2.49-.42,4.52,4.52,0,0,1,3.23,1.06,4.15,4.15,0,0,1,1.13,3.16v7.18Z" transform="translate(-1.06)"/></g></g></svg>