<svg xmlns="http://www.w3.org/2000/svg" viewBox="0 0 380.05 155.93"><defs><style>.cls-1,.cls-2{fill:#fffbf7;stroke:#fffbf7;}.cls-1,.cls-2,.cls-3{stroke-miterlimit:10;}.cls-1,.cls-3{stroke-width:2px;}.cls-2{stroke-width:3px;}.cls-3,.cls-4{fill:#d1d84c;}.cls-3{stroke:#d1d84c;}</style></defs><g id="Camada_2" data-name="Camada 2"><g id="Camada_1-2" data-name="Camada 1"><path class="cls-1" d="M69.76,122.22c-25.93,0-38.73-14.6-38.73-41V33.6h15.1V81.2c0,17.88,6.89,27.57,23.8,27.57,15.43,0,24.12-8.7,24.12-27.57V33.6h15.1V81.2C109.15,109.42,94.05,122.22,69.76,122.22Z" transform="translate(-1.06)"/><path class="cls-1" d="M237.58,122.22V74.63c0-17.89-6.4-27.57-21.33-27.57-14.12,0-22,8.7-22,27.57v47.59h-15.1V74.63c0-17.89-6.57-27.57-21.5-27.57-13.95,0-21.83,8.7-21.83,27.57v47.59h-15.1V74.63c0-28.23,12.64-41,36.11-41,17.23,0,27.57,9.36,29.87,19.53,2.46-10.34,13-19.53,30.36-19.53,24.62,0,35.61,14.61,35.61,41v47.59Z" transform="translate(-1.06)"/><path class="cls-1" d="M267.12,122.22V33.6h9a6.49,6.49,0,0,1,6.49,6.49v82.13Z" transform="translate(-1.06)"/><path class="cls-2" d="M1.73,1.5h9.76a4,4,0,0,1,4,4V122.22a0,0,0,0,1,0,0H1.73a0,0,0,0,1,0,0V1.5A0,0,0,0,1,1.73,1.5Z"/><path class="cls-3" d="M334.17,33.6a41.08,41.08,0,0,0-25.85,8.78c-9.65,7.78-14.45,19-14.19,34,.9,40.47,21.71,45.19,43,45.83s28.59-11.62,28.59-11.62l-.1,11.65H380l.1-88.63ZM307.41,75.69C309.32,41.61,334.34,46.3,365,45.62c-29.68,14.83-47,42.94-53.1,54.43C307.1,92.86,307,82.69,307.41,75.69Zm47.54,30c-6.18,4.52-15.21,4.45-18.75,4.37-4.74-.11-10.48-.18-16.27-3.12C331.07,82.49,351.76,65.85,365,57.16c0,7.47,0,15.1,0,22.23C364.5,87.4,367.09,96.85,355,105.73Z" transform="translate(-1.06)"/><path class="cls-4" d="M6.79,151.72A5.83,5.83,0,0,1,3.85,151a5.47,5.47,0,0,1-2-2,6.3,6.3,0,0,1,0-6,5.3,5.3,0,0,1,2-2,5.93,5.93,0,0,1,2.94-.73,5.92,5.92,0,0,1,2.48.52,4.4,4.4,0,0,1,1.81,1.56l-.8.59a3.74,3.74,0,0,0-1.52-1.28,4.83,4.83,0,0,0-2-.41,4.8,4.8,0,0,0-2.38.59,4.34,4.34,0,0,0-1.65,1.67,5.61,5.61,0,0,0,0,5,4.27,4.27,0,0,0,1.65,1.67,4.7,4.7,0,0,0,2.38.6,4.83,4.83,0,0,0,2-.41,3.82,3.82,0,0,0,1.52-1.28l.8.58a4.26,4.26,0,0,1-1.81,1.56A5.77,5.77,0,0,1,6.79,151.72Z" transform="translate(-1.06)"/><path class="cls-4" d="M18.77,151.72a5.67,5.67,0,0,1-2.89-.73,5.57,5.57,0,0,1-2-2,6.35,6.35,0,0,1,0-5.95,5.54,5.54,0,0,1,2-2,6.05,6.05,0,0,1,5.8,0,5.47,5.47,0,0,1,2,2,6.43,6.43,0,0,1,0,5.95,5.49,5.49,0,0,1-2,2A5.72,5.72,0,0,1,18.77,151.72Zm0-1a4.64,4.64,0,0,0,2.35-.6,4.23,4.23,0,0,0,1.62-1.68,5.59,5.59,0,0,0,0-5,4.27,4.27,0,0,0-1.62-1.67,4.74,4.74,0,0,0-2.35-.59,4.66,4.66,0,0,0-2.33.59,4.34,4.34,0,0,0-1.62,1.67,5.51,5.51,0,0,0,0,5,4.29,4.29,0,0,0,1.62,1.68A4.57,4.57,0,0,0,18.77,150.75Z" transform="translate(-1.06)"/><path class="cls-4" d="M33.54,140.23a5.29,5.29,0,0,1,2.42.53,3.77,3.77,0,0,1,1.6,1.61,5.58,5.58,0,0,1,.58,2.65v6.62H37.05v-6.53a4,4,0,0,0-1-2.9,3.58,3.58,0,0,0-2.7-1,4.68,4.68,0,0,0-2.3.54,3.64,3.64,0,0,0-1.49,1.52,5,5,0,0,0-.51,2.34v6H28V140.32h1v3.14l-.15-.34A4.36,4.36,0,0,1,30.61,141,5.33,5.33,0,0,1,33.54,140.23Z" transform="translate(-1.06)"/><path class="cls-4" d="M45.68,151.72a8.11,8.11,0,0,1-2.64-.41,5.11,5.11,0,0,1-1.89-1l.5-.87a5.53,5.53,0,0,0,1.73,1,6.61,6.61,0,0,0,2.34.4,4.33,4.33,0,0,0,2.56-.59,1.83,1.83,0,0,0,.78-1.54,1.46,1.46,0,0,0-.4-1.09,2.65,2.65,0,0,0-1.07-.62,12.85,12.85,0,0,0-1.48-.36c-.53-.09-1.07-.19-1.6-.31a6.6,6.6,0,0,1-1.48-.5,2.85,2.85,0,0,1-1.07-.9,2.59,2.59,0,0,1-.4-1.53,2.71,2.71,0,0,1,.48-1.56,3.22,3.22,0,0,1,1.43-1.11,5.72,5.72,0,0,1,2.38-.43,7.59,7.59,0,0,1,2.14.31,5.31,5.31,0,0,1,1.74.8l-.5.87a4.27,4.27,0,0,0-1.6-.78,6.85,6.85,0,0,0-1.8-.24,4,4,0,0,0-2.42.6,1.88,1.88,0,0,0-.77,1.52,1.61,1.61,0,0,0,.4,1.14,2.63,2.63,0,0,0,1.08.65,11.26,11.26,0,0,0,1.47.37c.54.09,1.07.2,1.61.31a7.25,7.25,0,0,1,1.47.49,2.64,2.64,0,0,1,1.07.87,2.45,2.45,0,0,1,.41,1.48,2.68,2.68,0,0,1-.51,1.63,3.35,3.35,0,0,1-1.51,1.08A6.77,6.77,0,0,1,45.68,151.72Z" transform="translate(-1.06)"/><path class="cls-4" d="M58,151.72a5.49,5.49,0,0,1-2.51-.53,3.68,3.68,0,0,1-1.64-1.6,5.63,5.63,0,0,1-.57-2.66v-6.61h1.08v6.53a4,4,0,0,0,1,2.9,3.66,3.66,0,0,0,2.75,1,4.33,4.33,0,0,0,2.21-.54,3.7,3.7,0,0,0,1.43-1.53,5.16,5.16,0,0,0,.5-2.33v-6h1.09v11.32H62.26v-3.15l.16.37A4.3,4.3,0,0,1,60.76,151,4.86,4.86,0,0,1,58,151.72Z" transform="translate(-1.06)"/><path class="cls-4" d="M68.12,151.64V135.55H69.2v16.09Z" transform="translate(-1.06)"/><path class="cls-4" d="M72,141.25v-.93h6.76v.93Zm5.16,10.47a3,3,0,0,1-2.29-.82,3.11,3.11,0,0,1-.79-2.26V137.85h1.08v10.69a2.38,2.38,0,0,0,.54,1.67,2,2,0,0,0,1.57.58,2.51,2.51,0,0,0,1.75-.63l.46.76a2.59,2.59,0,0,1-1.06.61A4.14,4.14,0,0,1,77.14,151.72Z" transform="translate(-1.06)"/><path class="cls-4" d="M86.7,151.72a5.68,5.68,0,0,1-2.9-.73,5.54,5.54,0,0,1-2-2,6.28,6.28,0,0,1,0-5.95,5.51,5.51,0,0,1,2-2,6.05,6.05,0,0,1,5.8,0,5.32,5.32,0,0,1,2,2,6.35,6.35,0,0,1,0,5.95,5.35,5.35,0,0,1-2,2A5.71,5.71,0,0,1,86.7,151.72Zm0-1a4.63,4.63,0,0,0,2.34-.6,4.32,4.32,0,0,0,1.63-1.68,5.68,5.68,0,0,0,0-5A4.36,4.36,0,0,0,89,141.8a4.73,4.73,0,0,0-2.34-.59,4.61,4.61,0,0,0-2.33.59,4.36,4.36,0,0,0-1.63,1.67,5.51,5.51,0,0,0,0,5,4.32,4.32,0,0,0,1.63,1.68A4.52,4.52,0,0,0,86.7,150.75Z" transform="translate(-1.06)"/><path class="cls-4" d="M95.93,151.64V140.32h1v3.1l-.1-.35a4,4,0,0,1,1.6-2.1,5.06,5.06,0,0,1,2.82-.74v1.06H101a3.79,3.79,0,0,0-3,1.18A4.75,4.75,0,0,0,97,145.74v5.9Z" transform="translate(-1.06)"/><path class="cls-4" d="M105,137.57a.89.89,0,1,1,.89-.89.93.93,0,0,1-.25.63A.87.87,0,0,1,105,137.57Zm-.54,14.07V140.32h1.08v11.32Z" transform="translate(-1.06)"/><path class="cls-4" d="M113.43,151.72a5.37,5.37,0,0,1-2.18-.4,3.1,3.1,0,0,1-1.41-1.14,2.94,2.94,0,0,1-.49-1.69,3.19,3.19,0,0,1,.4-1.57,2.91,2.91,0,0,1,1.34-1.15,5.94,5.94,0,0,1,2.49-.44h4.16v.84H113.6a3.65,3.65,0,0,0-2.46.65,2.13,2.13,0,0,0-.7,1.63,2.08,2.08,0,0,0,.82,1.73,3.62,3.62,0,0,0,2.32.65,4.27,4.27,0,0,0,2.42-.65,3.87,3.87,0,0,0,1.46-1.88l.3.73a3.92,3.92,0,0,1-1.55,2A5,5,0,0,1,113.43,151.72Zm4.07-.08v-2.58l0-.39v-4.25a3.19,3.19,0,0,0-.86-2.41,3.46,3.46,0,0,0-2.5-.82,5.93,5.93,0,0,0-3.9,1.43l-.54-.78a5.9,5.9,0,0,1,2-1.18,7.26,7.26,0,0,1,2.5-.43,4.57,4.57,0,0,1,3.23,1.06,4.17,4.17,0,0,1,1.12,3.17v7.18Z" transform="translate(-1.06)"/><path class="cls-4" d="M133.61,151.72a6.06,6.06,0,0,1-3-.73,5.38,5.38,0,0,1-2.06-2,5.85,5.85,0,0,1-.75-3,6.1,6.1,0,0,1,.7-3,5.26,5.26,0,0,1,1.94-2,5.62,5.62,0,0,1,5.54,0,5.09,5.09,0,0,1,1.93,2,6.13,6.13,0,0,1,.71,3s0,.1,0,.15a.81.81,0,0,0,0,.16h-10v-.85H138l-.43.41a4.67,4.67,0,0,0-.56-2.37,4.3,4.3,0,0,0-1.54-1.65,4.35,4.35,0,0,0-2.26-.59,4.28,4.28,0,0,0-2.24.59,4.18,4.18,0,0,0-1.55,1.65,5,5,0,0,0-.57,2.4V146a4.83,4.83,0,0,0,.62,2.46,4.33,4.33,0,0,0,1.7,1.67,5,5,0,0,0,2.47.6,5.24,5.24,0,0,0,2-.39,3.91,3.91,0,0,0,1.59-1.2l.63.72a4.63,4.63,0,0,1-1.85,1.38A6.21,6.21,0,0,1,133.61,151.72Z" transform="translate(-1.06)"/><path class="cls-4" d="M152.56,151.72a6.06,6.06,0,0,1-3-.73,5.31,5.31,0,0,1-2.06-2,5.85,5.85,0,0,1-.75-3,6.1,6.1,0,0,1,.7-3,5.26,5.26,0,0,1,1.94-2,5.62,5.62,0,0,1,5.54,0,5.09,5.09,0,0,1,1.93,2,6.13,6.13,0,0,1,.71,3s0,.1,0,.15a.81.81,0,0,0,0,.16h-10v-.85h9.41l-.43.41a4.67,4.67,0,0,0-.56-2.37,4.3,4.3,0,0,0-7.6,0,5.06,5.06,0,0,0-.56,2.4V146a4.83,4.83,0,0,0,.62,2.46,4.33,4.33,0,0,0,1.7,1.67,5,5,0,0,0,2.47.6,5.28,5.28,0,0,0,2-.39,3.91,3.91,0,0,0,1.59-1.2l.63.72a4.63,4.63,0,0,1-1.85,1.38A6.25,6.25,0,0,1,152.56,151.72Z" transform="translate(-1.06)"/><path class="cls-4" d="M166.65,140.23a5.26,5.26,0,0,1,2.42.53,3.77,3.77,0,0,1,1.6,1.61,5.47,5.47,0,0,1,.58,2.65v6.62h-1.09v-6.53a4,4,0,0,0-1-2.9,3.55,3.55,0,0,0-2.7-1,4.68,4.68,0,0,0-2.3.54,3.61,3.61,0,0,0-1.48,1.52,5,5,0,0,0-.51,2.34v6h-1.09V140.32h1v3.14l-.15-.34a4.36,4.36,0,0,1,1.71-2.12A5.35,5.35,0,0,1,166.65,140.23Z" transform="translate(-1.06)"/><path class="cls-4" d="M180.33,151.22a5.78,5.78,0,0,1-2.87-.7,5.33,5.33,0,0,1-2-2,5.81,5.81,0,0,1,0-5.71,5.2,5.2,0,0,1,2-1.93,5.78,5.78,0,0,1,2.87-.7,5.69,5.69,0,0,1,2.76.66,4.92,4.92,0,0,1,1.95,1.89,6.4,6.4,0,0,1,0,5.86,5,5,0,0,1-1.95,1.91A5.58,5.58,0,0,1,180.33,151.22Zm.3,4.71a8.85,8.85,0,0,1-2.92-.48,6,6,0,0,1-2.26-1.32l.59-.82a6,6,0,0,0,2,1.21,7.24,7.24,0,0,0,2.54.43,4.58,4.58,0,0,0,3.35-1.06,4.52,4.52,0,0,0,1.08-3.34v-3.14l.21-1.69-.17-1.69v-3.71h1v10.1a5.58,5.58,0,0,1-1.38,4.18A5.66,5.66,0,0,1,180.63,155.93Zm-.21-5.68a4.79,4.79,0,0,0,2.4-.58,4.14,4.14,0,0,0,1.64-1.6,4.59,4.59,0,0,0,.6-2.35,4.53,4.53,0,0,0-.6-2.36,4.18,4.18,0,0,0-1.64-1.59,5.38,5.38,0,0,0-4.78,0,4.11,4.11,0,0,0-1.64,1.59,4.53,4.53,0,0,0-.6,2.36,4.59,4.59,0,0,0,.6,2.35,4.07,4.07,0,0,0,1.64,1.6A4.82,4.82,0,0,0,180.42,150.25Z" transform="translate(-1.06)"/><path class="cls-4" d="M195.53,151.72a6.12,6.12,0,0,1-3-.73,5.36,5.36,0,0,1-2.05-2,5.85,5.85,0,0,1-.75-3,6.1,6.1,0,0,1,.7-3,5.26,5.26,0,0,1,1.94-2,5.62,5.62,0,0,1,5.54,0,5.09,5.09,0,0,1,1.93,2,6.13,6.13,0,0,1,.71,3,.77.77,0,0,1,0,.15s0,.1,0,.16h-10v-.85h9.41l-.44.41a4.66,4.66,0,0,0-.55-2.37,4.3,4.3,0,0,0-7.6,0,5.06,5.06,0,0,0-.56,2.4V146a4.83,4.83,0,0,0,.62,2.46,4.33,4.33,0,0,0,1.7,1.67,5,5,0,0,0,2.47.6,5.28,5.28,0,0,0,2-.39,3.91,3.91,0,0,0,1.59-1.2l.63.72a4.63,4.63,0,0,1-1.85,1.38A6.25,6.25,0,0,1,195.53,151.72Z" transform="translate(-1.06)"/><path class="cls-4" d="M209.62,140.23a5.29,5.29,0,0,1,2.42.53,3.77,3.77,0,0,1,1.6,1.61,5.58,5.58,0,0,1,.58,2.65v6.62h-1.09v-6.53a4,4,0,0,0-1-2.9,3.58,3.58,0,0,0-2.7-1,4.68,4.68,0,0,0-2.3.54,3.61,3.61,0,0,0-1.48,1.52,5,5,0,0,0-.51,2.34v6h-1.09V140.32h1v3.14l-.15-.34a4.36,4.36,0,0,1,1.71-2.12A5.33,5.33,0,0,1,209.62,140.23Z" transform="translate(-1.06)"/><path class="cls-4" d="M224.43,140.23a5.22,5.22,0,0,1,2.41.53,3.74,3.74,0,0,1,1.61,1.61A5.59,5.59,0,0,1,229,145v6.62h-1.08v-6.53a4,4,0,0,0-1-2.9,3.55,3.55,0,0,0-2.69-1,4.66,4.66,0,0,0-2.3.54,3.64,3.64,0,0,0-1.49,1.52,5,5,0,0,0-.51,2.34v6H218.9V135.55H220v7.91l-.19-.34A4.31,4.31,0,0,1,221.5,141,5.3,5.3,0,0,1,224.43,140.23Z" transform="translate(-1.06)"/><path class="cls-4" d="M236.76,151.72a5.4,5.4,0,0,1-2.18-.4,3.15,3.15,0,0,1-1.41-1.14,3,3,0,0,1-.48-1.69,3.08,3.08,0,0,1,.4-1.57,2.94,2.94,0,0,1,1.33-1.15,6,6,0,0,1,2.5-.44h4.16v.84h-4.14a3.65,3.65,0,0,0-2.46.65,2.14,2.14,0,0,0-.71,1.63,2.11,2.11,0,0,0,.82,1.73,3.65,3.65,0,0,0,2.33.65,4.23,4.23,0,0,0,2.41-.65,3.83,3.83,0,0,0,1.47-1.88l.3.73a3.92,3.92,0,0,1-1.55,2A5,5,0,0,1,236.76,151.72Zm4.08-.08v-2.58l0-.39v-4.25a3.19,3.19,0,0,0-.86-2.41,3.47,3.47,0,0,0-2.5-.82,5.75,5.75,0,0,0-2.18.4,5.88,5.88,0,0,0-1.73,1l-.54-.78a5.85,5.85,0,0,1,2-1.18,7.16,7.16,0,0,1,2.49-.43,4.57,4.57,0,0,1,3.23,1.06,4.17,4.17,0,0,1,1.13,3.17v7.18Z" transform="translate(-1.06)"/><path class="cls-4" d="M246.56,151.64V140.32h1v3.1l-.1-.35a4,4,0,0,1,1.6-2.1,5.06,5.06,0,0,1,2.82-.74v1.06h-.26a3.79,3.79,0,0,0-2.95,1.18,4.75,4.75,0,0,0-1.06,3.29v5.9Z" transform="translate(-1.06)"/><path class="cls-4" d="M255.67,137.57a.89.89,0,1,1,.89-.89.93.93,0,0,1-.25.63A.87.87,0,0,1,255.67,137.57Zm-.54,14.07V140.32h1.08v11.32Z" transform="translate(-1.06)"/><path class="cls-4" d="M264.06,151.72a5.37,5.37,0,0,1-2.18-.4,3,3,0,0,1-1.41-1.14,2.94,2.94,0,0,1-.49-1.69,3.19,3.19,0,0,1,.4-1.57,2.91,2.91,0,0,1,1.34-1.15,5.94,5.94,0,0,1,2.49-.44h4.16v.84h-4.14a3.65,3.65,0,0,0-2.46.65,2.13,2.13,0,0,0-.7,1.63,2.08,2.08,0,0,0,.82,1.73,3.62,3.62,0,0,0,2.32.65,4.27,4.27,0,0,0,2.42-.65,3.87,3.87,0,0,0,1.46-1.88l.3.73a3.92,3.92,0,0,1-1.55,2A5,5,0,0,1,264.06,151.72Zm4.07-.08v-2.58l0-.39v-4.25a3.19,3.19,0,0,0-.86-2.41,3.46,3.46,0,0,0-2.5-.82,5.93,5.93,0,0,0-3.9,1.43l-.54-.78a5.9,5.9,0,0,1,2-1.18,7.26,7.26,0,0,1,2.5-.43,4.57,4.57,0,0,1,3.23,1.06,4.17,4.17,0,0,1,1.12,3.17v7.18Z" transform="translate(-1.06)"/><path class="cls-4" d="M280.19,137.57a.89.89,0,1,1,.89-.89.93.93,0,0,1-.25.63A.87.87,0,0,1,280.19,137.57Zm-.54,14.07V140.32h1.08v11.32Z" transform="translate(-1.06)"/><path class="cls-4" d="M291.05,140.23a5.29,5.29,0,0,1,2.42.53,3.77,3.77,0,0,1,1.6,1.61,5.59,5.59,0,0,1,.57,2.65v6.62h-1.08v-6.53a4,4,0,0,0-1-2.9,3.58,3.58,0,0,0-2.7-1,4.66,4.66,0,0,0-2.3.54,3.64,3.64,0,0,0-1.49,1.52,5,5,0,0,0-.51,2.34v6h-1.08V140.32h1v3.14l-.15-.34a4.36,4.36,0,0,1,1.71-2.12A5.33,5.33,0,0,1,291.05,140.23Z" transform="translate(-1.06)"/><path class="cls-4" d="M298.46,141.25v-.93h6.77v.93Zm5.16,10.47a3,3,0,0,1-2.28-.82,3.12,3.12,0,0,1-.8-2.26V137.85h1.09v10.69a2.38,2.38,0,0,0,.54,1.67,2,2,0,0,0,1.56.58,2.53,2.53,0,0,0,1.76-.63l.45.76a2.62,2.62,0,0,1-1.05.61A4.16,4.16,0,0,1,303.62,151.72Z" transform="translate(-1.06)"/><path class="cls-4" d="M313.36,151.72a6.09,6.09,0,0,1-3-.73,5.45,5.45,0,0,1-2.06-2,5.85,5.85,0,0,1-.74-3,6.1,6.1,0,0,1,.7-3,5.26,5.26,0,0,1,1.94-2,5.62,5.62,0,0,1,5.54,0,5.09,5.09,0,0,1,1.93,2,6.13,6.13,0,0,1,.7,3,.76.76,0,0,1,0,.15s0,.1,0,.16h-10v-.85h9.41l-.44.41a4.66,4.66,0,0,0-.55-2.37,4.42,4.42,0,0,0-6.05-1.65,4.25,4.25,0,0,0-1.55,1.65,5.06,5.06,0,0,0-.56,2.4V146a4.73,4.73,0,0,0,.62,2.46,4.27,4.27,0,0,0,1.7,1.67,5,5,0,0,0,2.47.6,5.28,5.28,0,0,0,2-.39,4,4,0,0,0,1.59-1.2l.63.72a4.59,4.59,0,0,1-1.86,1.38A6.2,6.2,0,0,1,313.36,151.72Z" transform="translate(-1.06)"/><path class="cls-4" d="M326.32,151.22a5.78,5.78,0,0,1-2.87-.7,5.33,5.33,0,0,1-2-2,5.81,5.81,0,0,1,0-5.71,5.2,5.2,0,0,1,2-1.93,5.78,5.78,0,0,1,2.87-.7,5.69,5.69,0,0,1,2.76.66,4.92,4.92,0,0,1,1.95,1.89,6.4,6.4,0,0,1,0,5.86,5,5,0,0,1-1.95,1.91A5.58,5.58,0,0,1,326.32,151.22Zm.3,4.71a8.85,8.85,0,0,1-2.92-.48,6,6,0,0,1-2.26-1.32l.59-.82a6,6,0,0,0,2,1.21,7.24,7.24,0,0,0,2.54.43,4.58,4.58,0,0,0,3.35-1.06,4.52,4.52,0,0,0,1.08-3.34v-3.14l.21-1.69-.17-1.69v-3.71h1v10.1a5.58,5.58,0,0,1-1.38,4.18A5.66,5.66,0,0,1,326.62,155.93Zm-.21-5.68a4.79,4.79,0,0,0,2.4-.58,4.14,4.14,0,0,0,1.64-1.6,4.59,4.59,0,0,0,.6-2.35,4.53,4.53,0,0,0-.6-2.36,4.18,4.18,0,0,0-1.64-1.59,5.38,5.38,0,0,0-4.78,0,4.11,4.11,0,0,0-1.64,1.59,4.53,4.53,0,0,0-.6,2.36,4.59,4.59,0,0,0,.6,2.35,4.07,4.07,0,0,0,1.64,1.6A4.82,4.82,0,0,0,326.41,150.25Z" transform="translate(-1.06)"/><path class="cls-4" d="M336.92,151.64V140.32h1v3.1l-.11-.35a4,4,0,0,1,1.61-2.1,5.06,5.06,0,0,1,2.82-.74v1.06H342a3.79,3.79,0,0,0-2.95,1.18,4.75,4.75,0,0,0-1.06,3.29v5.9Z" transform="translate(-1.06)"/><path class="cls-4" d="M347.7,151.72a5.37,5.37,0,0,1-2.18-.4,3,3,0,0,1-1.41-1.14,2.94,2.94,0,0,1-.49-1.69,3.08,3.08,0,0,1,.4-1.57,2.91,2.91,0,0,1,1.34-1.15,5.94,5.94,0,0,1,2.49-.44H352v.84h-4.14a3.65,3.65,0,0,0-2.46.65,2.13,2.13,0,0,0-.7,1.63,2.08,2.08,0,0,0,.82,1.73,3.62,3.62,0,0,0,2.32.65,4.27,4.27,0,0,0,2.42-.65,3.87,3.87,0,0,0,1.46-1.88l.3.73a3.92,3.92,0,0,1-1.55,2A5,5,0,0,1,347.7,151.72Zm4.07-.08v-2.58l0-.39v-4.25a3.19,3.19,0,0,0-.86-2.41,3.46,3.46,0,0,0-2.5-.82,5.93,5.93,0,0,0-3.9,1.43l-.54-.78a5.9,5.9,0,0,1,2-1.18,7.26,7.26,0,0,1,2.5-.43,4.57,4.57,0,0,1,3.23,1.06,4.17,4.17,0,0,1,1.12,3.17v7.18Z" transform="translate(-1.06)"/><path class="cls-4" d="M361.85,151.72A5.69,5.69,0,0,1,359,151a5.34,5.34,0,0,1-2-2,6.43,6.43,0,0,1,0-6,5.32,5.32,0,0,1,2-2,5.7,5.7,0,0,1,2.85-.73,5.23,5.23,0,0,1,2.7.7,5,5,0,0,1,1.91,2,6.29,6.29,0,0,1,.71,3.08,6.39,6.39,0,0,1-.7,3.05,4.87,4.87,0,0,1-1.89,2A5.4,5.4,0,0,1,361.85,151.72Zm.07-1a4.54,4.54,0,0,0,2.33-.6,4.32,4.32,0,0,0,1.63-1.68,5.59,5.59,0,0,0,0-5,4.36,4.36,0,0,0-1.63-1.67,4.9,4.9,0,0,0-4.66,0,4.36,4.36,0,0,0-1.63,1.67,5.59,5.59,0,0,0,0,5,4.32,4.32,0,0,0,1.63,1.68A4.52,4.52,0,0,0,361.92,150.75Zm4.57.89v-3.71l.2-2-.22-2v-8.43h1.09v16.09Z" transform="translate(-1.06)"/><path class="cls-4" d="M375.4,151.72a5.44,5.44,0,0,1-2.18-.4,3.07,3.07,0,0,1-1.4-1.14,2.94,2.94,0,0,1-.49-1.69,3.08,3.08,0,0,1,.4-1.57,2.94,2.94,0,0,1,1.33-1.15,6,6,0,0,1,2.5-.44h4.16v.84h-4.14a3.65,3.65,0,0,0-2.46.65,2.14,2.14,0,0,0-.71,1.63,2.09,2.09,0,0,0,.83,1.73,3.62,3.62,0,0,0,2.32.65,4.21,4.21,0,0,0,2.41-.65,3.83,3.83,0,0,0,1.47-1.88l.3.73a3.92,3.92,0,0,1-1.55,2A5,5,0,0,1,375.4,151.72Zm4.08-.08v-2.58l0-.39v-4.25a3.19,3.19,0,0,0-.86-2.41,3.47,3.47,0,0,0-2.5-.82,5.75,5.75,0,0,0-2.18.4,5.88,5.88,0,0,0-1.73,1l-.54-.78a6,6,0,0,1,2-1.18,7.16,7.16,0,0,1,2.49-.43,4.57,4.57,0,0,1,3.23,1.06,4.17,4.17,0,0,1,1.13,3.17v7.18Z" transform="translate(-1.06)"/></g></g></svg>