<svg width="32" height="32" viewBox="0 0 32 32" fill="none" xmlns="http://www.w3.org/2000/svg">
<g clip-path="url(#clip0_61_758)">
<mask id="mask0_61_758" style="mask-type:luminance" maskUnits="userSpaceOnUse" x="0" y="0" width="32" height="27">
<path d="M0.831161 0H31.1688V26.1884H0.831161V0Z" fill="white"/>
</mask>
<g mask="url(#mask0_61_758)">
<path d="M23.5827 0H8.41895L0.837357 13.1168L8.41895 26.2318H23.5827L31.1643 13.1168L23.5827 0Z" fill="#F89C0E"/>
</g>
<mask id="mask1_61_758" style="mask-type:luminance" maskUnits="userSpaceOnUse" x="4" y="1" width="24" height="31">
<path d="M4.01901 1.84366H27.1334V32H4.01901V1.84366Z" fill="white"/>
</mask>
<g mask="url(#mask1_61_758)">
<mask id="mask2_61_758" style="mask-type:luminance" maskUnits="userSpaceOnUse" x="-3" y="-2" width="35" height="35">
<path d="M24.9241 -1.73145L31.7219 25.4619L4.49528 32.2509L-2.30247 5.05802L24.9241 -1.73145Z" fill="white"/>
</mask>
<g mask="url(#mask2_61_758)">
<mask id="mask3_61_758" style="mask-type:luminance" maskUnits="userSpaceOnUse" x="-3" y="-2" width="35" height="35">
<path d="M24.9241 -1.73145L31.7219 25.4619L4.49528 32.2509L-2.30247 5.05802L24.9241 -1.73145Z" fill="white"/>
</mask>
<g mask="url(#mask3_61_758)">
<path d="M5.85753 31.915L11.3839 22.7785C11.5932 22.8794 11.806 22.973 12.0216 23.0598C12.2371 23.1472 12.4555 23.2272 12.6762 23.3005C12.8968 23.3732 13.1197 23.4397 13.3443 23.4983C13.5695 23.5575 13.7958 23.6093 14.0243 23.6539C14.2523 23.6984 14.482 23.7361 14.7122 23.766C14.943 23.7959 15.1744 23.819 15.4063 23.8342C15.6383 23.8494 15.8708 23.8579 16.1033 23.8585C16.3358 23.859 16.5683 23.8523 16.8002 23.8382C17.0321 23.8241 17.2635 23.8027 17.4943 23.7739C17.7251 23.7452 17.9548 23.7091 18.1833 23.6657C18.4119 23.6223 18.6387 23.5721 18.8639 23.5141C19.0891 23.4566 19.312 23.3918 19.5332 23.3196C19.7544 23.248 19.9733 23.1691 20.1889 23.0835C20.405 22.9978 20.6184 22.9048 20.8288 22.8056C21.0388 22.7064 21.2459 22.6004 21.449 22.4883C21.6527 22.3755 21.8525 22.2572 22.0483 22.1321C22.2442 22.0069 22.436 21.8756 22.6239 21.7386C22.8113 21.6011 22.9941 21.458 23.173 21.3092C23.3513 21.1604 23.5251 21.0059 23.6939 20.8464C23.8626 20.6863 24.0257 20.5212 24.1837 20.351C24.3423 20.1808 24.4946 20.0055 24.6419 19.8257C24.7887 19.6459 24.9303 19.4616 25.0652 19.2728C25.2006 19.084 25.3298 18.8906 25.4529 18.6934C25.5759 18.4967 25.6927 18.296 25.8027 18.0914C25.9133 17.8868 26.0166 17.6788 26.1137 17.468C26.2107 17.2567 26.301 17.0431 26.3845 16.8261C26.4681 16.6096 26.5448 16.3904 26.6142 16.1683C26.6836 15.9468 26.7457 15.723 26.801 15.4976C26.8563 15.2721 26.9048 15.045 26.9455 14.8162C26.9861 14.5879 27.02 14.3579 27.0459 14.1274C27.0724 13.8963 27.0911 13.6652 27.1029 13.433C27.1142 13.2008 27.1182 12.9691 27.1148 12.7369C27.1119 12.5047 27.1012 12.2725 27.0832 12.0408C27.0651 11.8092 27.0397 11.5787 27.007 11.3487C26.9743 11.1188 26.9347 10.8899 26.8873 10.6628C26.8399 10.4351 26.7858 10.2096 26.7243 9.98586C26.6627 9.76154 26.5939 9.54003 26.5183 9.32021C26.4427 9.1004 26.3597 8.8834 26.2705 8.66922C26.1808 8.45504 26.0849 8.24368 25.9816 8.03514C25.8789 7.82716 25.7694 7.622 25.6538 7.42079C25.5375 7.21957 25.415 7.0223 25.2869 6.82841C25.1583 6.63509 25.024 6.44571 24.8829 6.26084C24.7424 6.0754 24.5962 5.89504 24.4444 5.71919C24.2921 5.5439 24.1346 5.37312 23.9721 5.20742C23.809 5.04171 23.6408 4.88107 23.4682 4.72608C23.2949 4.57108 23.1171 4.42115 22.9343 4.27743C22.752 4.1337 22.5647 3.99561 22.3734 3.86372C22.1821 3.73184 21.9868 3.60615 21.7876 3.48666C21.5879 3.36717 21.3853 3.25388 21.1787 3.14735C20.9722 3.04083 20.7623 2.9405 20.5495 2.84694C20.3362 2.75394 20.1206 2.66714 19.9022 2.58767C19.6838 2.50763 19.4632 2.43493 19.2403 2.36955C19.0168 2.3036 18.7922 2.24555 18.5654 2.19369C18.3385 2.1424 18.1105 2.09844 17.8809 2.06124C17.6512 2.0246 17.4204 1.99473 17.189 1.97275C16.9576 1.95021 16.7257 1.93499 16.4932 1.92766C16.2607 1.92033 16.0288 1.91977 15.7963 1.9271C15.5638 1.93442 15.3318 1.94851 15.0999 1.9705C14.8685 1.99248 14.6383 2.02179 14.4086 2.05786C14.1789 2.09449 13.9504 2.13846 13.7235 2.18918C13.4967 2.24047 13.2715 2.29853 13.0486 2.36391C12.8251 2.42929 12.6045 2.50143 12.3861 2.58034C12.1671 2.65981 11.9516 2.74605 11.7383 2.83905C11.5255 2.93205 11.3156 3.03181 11.1085 3.13777C10.902 3.2443 10.6988 3.35702 10.499 3.47595C10.2993 3.59544 10.104 3.72056 9.91214 3.85245C9.72084 3.98378 9.53348 4.1213 9.35065 4.26503C9.16781 4.40819 8.98948 4.55755 8.81624 4.71199C8.64299 4.86698 8.47483 5.02705 8.31117 5.19276C8.14809 5.3579 7.99064 5.52868 7.83828 5.70397C7.68591 5.87926 7.53919 6.05962 7.39811 6.24449C7.25703 6.42936 7.12216 6.61818 6.99349 6.8115C6.86483 7.00483 6.74181 7.2021 6.62556 7.40331C6.50931 7.60396 6.39927 7.80856 6.296 8.0171C6.19273 8.22508 6.09623 8.43588 6.0065 8.65006C5.91678 8.8648 5.83326 9.08124 5.75764 9.30105C5.68146 9.5203 5.61205 9.74181 5.55054 9.96557C5.48846 10.1899 5.43372 10.4153 5.38576 10.6425C5.33835 10.8702 5.29772 11.0985 5.26443 11.3284C5.2317 11.5584 5.20574 11.7889 5.18712 12.0206C5.16906 12.2522 5.15777 12.4839 5.15439 12.7161C5.15044 12.9483 5.15439 13.1805 5.16511 13.4127C5.1764 13.6444 5.19502 13.876 5.22041 14.1065C5.24637 14.3376 5.27967 14.5676 5.31973 14.7959C5.36036 15.0247 5.40776 15.2518 5.46307 15.4779C5.51781 15.7033 5.57988 15.9271 5.64873 16.1491C5.71757 16.3706 5.79376 16.5899 5.87671 16.8069C5.96023 17.0239 6.04996 17.2381 6.14646 17.4494C6.24295 17.6608 6.34622 17.8688 6.45627 18.0734C6.56631 18.278 6.68256 18.4792 6.80501 18.6764C6.92803 18.8737 7.0567 19.0665 7.19157 19.2559C7.32644 19.4452 7.46752 19.6295 7.61424 19.8099C7.76097 19.9903 7.91333 20.1656 8.07078 20.3358C8.22878 20.5066 8.39187 20.6717 8.5606 20.8323C8.72877 20.9924 8.90201 21.1468 9.08034 21.2962C9.25866 21.4456 9.4415 21.5887 9.62885 21.7262L4.15216 30.892L5.85753 31.915ZM13.9521 4.22219C14.2376 4.15118 14.5266 4.09425 14.8177 4.05141C15.1089 4.00858 15.4012 3.97983 15.6953 3.96574C15.9893 3.95165 16.2833 3.95165 16.5773 3.96631C16.8713 3.98096 17.1642 4.01027 17.4554 4.05367C17.7465 4.09707 18.0343 4.15456 18.3199 4.22614C18.6054 4.29828 18.887 4.38339 19.1641 4.48315C19.4412 4.58235 19.7126 4.69508 19.9784 4.82077C20.2442 4.94702 20.5038 5.08567 20.756 5.23729C21.0083 5.38834 21.2526 5.55179 21.4885 5.72764C21.725 5.90293 21.9518 6.08949 22.1697 6.28733C22.3875 6.4846 22.5952 6.69258 22.7927 6.9107C22.9902 7.12883 23.1764 7.35597 23.3513 7.59269C23.5263 7.82885 23.6894 8.07347 23.8406 8.32597C23.9913 8.57792 24.1295 8.83718 24.2554 9.10322C24.3807 9.36925 24.493 9.64092 24.5917 9.91766C24.6905 10.1944 24.7751 10.4757 24.8462 10.7608C24.9173 11.0466 24.9743 11.3346 25.0172 11.6255C25.0595 11.9163 25.0883 12.2088 25.1018 12.5025C25.116 12.7961 25.1154 13.0898 25.1007 13.3834C25.0855 13.6771 25.0561 13.969 25.0127 14.2599C24.9692 14.5507 24.9111 14.8387 24.8389 15.1233C24.7672 15.4085 24.6814 15.6892 24.5815 15.966C24.4817 16.2427 24.3688 16.5138 24.2424 16.7793C24.116 17.0447 23.9772 17.3035 23.8254 17.5554C23.6736 17.8073 23.5093 18.0514 23.3338 18.287C23.1578 18.5231 22.971 18.7497 22.7729 18.9673C22.5748 19.1843 22.3666 19.3917 22.1477 19.589C21.9293 19.7857 21.7018 19.9717 21.4648 20.1464C21.2284 20.3211 20.9835 20.4834 20.7307 20.6339C20.4778 20.7844 20.2183 20.9225 19.9519 21.0476C19.6855 21.1728 19.4135 21.2844 19.1359 21.383C18.8588 21.4816 18.5772 21.5662 18.2917 21.6366C18.0056 21.7076 17.7172 21.764 17.426 21.8068C17.1348 21.8491 16.8419 21.8773 16.5479 21.8908C16.2539 21.9049 15.9599 21.9038 15.6659 21.8891C15.3719 21.8739 15.0796 21.844 14.7884 21.8006C14.4972 21.7567 14.2088 21.6986 13.9239 21.6265C13.6383 21.5543 13.3573 21.4681 13.0802 21.3683C12.8031 21.2686 12.5317 21.1559 12.2659 21.029C12.0007 20.9028 11.7417 20.7636 11.4894 20.612C11.2372 20.4603 10.9934 20.2963 10.7575 20.1205C10.5216 19.9446 10.2947 19.7581 10.0769 19.5597C9.85966 19.3618 9.65199 19.1533 9.45504 18.9352C9.2581 18.7165 9.07187 18.4893 8.8975 18.2526C8.72256 18.0159 8.56004 17.7713 8.40936 17.5188C8.25869 17.2663 8.121 17.0064 7.99572 16.7404C7.87101 16.4744 7.75927 16.2027 7.66108 15.9254C7.56233 15.6486 7.47824 15.3674 7.40714 15.0816C7.3366 14.797 7.28017 14.5095 7.23841 14.2187C7.19608 13.9284 7.16787 13.6365 7.15432 13.3434C7.14078 13.0503 7.14135 12.7572 7.15658 12.4641C7.17182 12.171 7.20116 11.8797 7.24518 11.5894C7.2892 11.2991 7.34676 11.0122 7.41899 10.7276C7.49122 10.443 7.577 10.1628 7.67632 9.88666C7.7762 9.61048 7.88907 9.33994 8.01491 9.07504C8.14131 8.81013 8.28014 8.55199 8.43137 8.30061C8.58317 8.04923 8.74683 7.80574 8.92233 7.57015C9.09727 7.33511 9.28406 7.10854 9.48157 6.89154C9.67908 6.67454 9.88731 6.46769 10.1051 6.27098C10.323 6.07371 10.5504 5.88828 10.7863 5.71412C11.0227 5.53939 11.2671 5.37707 11.5193 5.22602C11.771 5.07553 12.03 4.938 12.2958 4.81288C12.5616 4.68775 12.833 4.57559 13.1096 4.47695C13.3861 4.37832 13.6671 4.29377 13.9521 4.22219Z" fill="#014437"/>
</g>
</g>
</g>
<path d="M19.2364 15.0996C19.2364 15.2681 19.2313 15.4361 19.2222 15.6034C19.2127 15.7708 19.198 15.9377 19.1794 16.1028C19.1602 16.268 19.1365 16.4309 19.1083 16.5921C19.08 16.7533 19.0473 16.9116 19.0101 17.0672C18.9728 17.2228 18.9316 17.3749 18.8859 17.5232C18.8396 17.672 18.79 17.8163 18.7358 17.956C18.6816 18.0958 18.6241 18.2311 18.562 18.3613C18.5005 18.4915 18.4356 18.616 18.3667 18.735C18.2979 18.8545 18.2257 18.9672 18.1506 19.0743C18.0756 19.1808 17.9977 19.2811 17.9164 19.3747C17.8357 19.4682 17.7522 19.5545 17.6664 19.634C17.5806 19.7134 17.4932 19.7856 17.4035 19.8498C17.3132 19.9141 17.2217 19.971 17.1286 20.0195C17.0355 20.0685 16.9418 20.1097 16.8465 20.1423C16.7505 20.175 16.6546 20.1998 16.5581 20.2162C16.461 20.2331 16.364 20.241 16.2669 20.241C16.1699 20.241 16.0728 20.2331 15.9757 20.2162C15.8792 20.1998 15.7827 20.175 15.6874 20.1423C15.592 20.1097 15.4978 20.0685 15.4052 20.0195C15.3121 19.971 15.2207 19.9141 15.1304 19.8498C15.0407 19.7856 14.9526 19.7134 14.8674 19.634C14.7816 19.5545 14.6981 19.4682 14.6174 19.3747C14.5362 19.2811 14.4583 19.1808 14.3832 19.0743C14.3082 18.9672 14.2359 18.8545 14.1671 18.735C14.0983 18.616 14.0334 18.4915 13.9713 18.3613C13.9098 18.2311 13.8522 18.0958 13.798 17.956C13.7439 17.8163 13.6942 17.672 13.6479 17.5232C13.6022 17.3749 13.561 17.2228 13.5238 17.0672C13.4865 16.9116 13.4538 16.7533 13.4256 16.5921C13.3974 16.4309 13.3737 16.268 13.3545 16.1028C13.3359 15.9377 13.3212 15.7708 13.3116 15.6034C13.3026 15.4361 13.2975 15.2681 13.2975 15.0996C13.2975 14.931 13.3026 14.7631 13.3116 14.5957C13.3212 14.4277 13.3359 14.2614 13.3545 14.0963C13.3737 13.9312 13.3974 13.7683 13.4256 13.6071C13.4538 13.4459 13.4865 13.2875 13.5238 13.1319C13.561 12.9764 13.6022 12.8242 13.6479 12.676C13.6942 12.5272 13.7439 12.3829 13.798 12.2431C13.8522 12.1028 13.9098 11.968 13.9713 11.8378C14.0334 11.7076 14.0983 11.5831 14.1671 11.4636C14.2359 11.3447 14.3082 11.2319 14.3832 11.1249C14.4583 11.0183 14.5362 10.918 14.6174 10.8244C14.6981 10.7309 14.7816 10.6441 14.8674 10.5652C14.9526 10.4857 15.0407 10.4136 15.1304 10.3493C15.2207 10.285 15.3121 10.2281 15.4052 10.1791C15.4978 10.1306 15.592 10.0895 15.6874 10.0568C15.7827 10.0235 15.8792 9.99929 15.9757 9.98238C16.0728 9.96604 16.1699 9.95758 16.2669 9.95758C16.364 9.95758 16.461 9.96604 16.5581 9.98238C16.6546 9.99929 16.7505 10.0235 16.8465 10.0568C16.9418 10.0895 17.0355 10.1306 17.1286 10.1791C17.2217 10.2281 17.3132 10.285 17.4035 10.3493C17.4932 10.4136 17.5806 10.4857 17.6664 10.5652C17.7522 10.6441 17.8357 10.7309 17.9164 10.8244C17.9977 10.918 18.0756 11.0183 18.1506 11.1249C18.2257 11.2319 18.2979 11.3447 18.3667 11.4636C18.4356 11.5831 18.5005 11.7076 18.562 11.8378C18.6241 11.968 18.6816 12.1028 18.7358 12.2431C18.79 12.3829 18.8396 12.5272 18.8859 12.676C18.9316 12.8242 18.9728 12.9764 19.0101 13.1319C19.0473 13.2875 19.08 13.4459 19.1083 13.6071C19.1365 13.7683 19.1602 13.9312 19.1794 14.0963C19.198 14.2614 19.2127 14.4277 19.2222 14.5957C19.2313 14.7631 19.2364 14.931 19.2364 15.0996Z" fill="#F89C0E"/>
</g>
<defs>
<clipPath id="clip0_61_758">
<rect width="32" height="32" fill="white"/>
</clipPath>
</defs>
</svg>
