<svg xmlns="http://www.w3.org/2000/svg" version="1.1" xmlns:xlink="http://www.w3.org/1999/xlink" width="87.99" height="90.65"><svg xmlns="http://www.w3.org/2000/svg" viewBox="0 0 87.99 90.65"><defs><style>.cls-1{fill:#d1d84c;stroke:#d1d84c;stroke-miterlimit:10;stroke-width:2px;}</style></defs><g id="SvgjsG1006" data-name="Camada 2"><g id="SvgjsG1005" data-name="Camada 1"><path class="cls-1" d="M41.05,1A41.05,41.05,0,0,0,15.2,9.79C5.55,17.57.75,28.8,1,43.79,1.9,84.25,22.71,89,44,89.61S72.63,78,72.63,78l-.11,11.65,14.37,0L87,1ZM14.29,43.1C16.2,9,41.22,13.72,71.84,13,42.16,27.87,24.84,56,18.73,67.46,14,60.28,13.89,50.11,14.29,43.1Zm47.54,30c-6.18,4.53-15.22,4.46-18.76,4.37-4.73-.11-10.47-.17-16.27-3.12C37.94,49.9,58.64,33.27,71.86,24.57V46.8C71.38,54.82,74,64.26,61.83,73.14Z"></path></g></g></svg><style>@media (prefers-color-scheme: light) { :root { filter: none; } }
@media (prefers-color-scheme: dark) { :root { filter: none; } }
</style></svg>